<?xml version="1.0" standalone="no"?>
<!DOCTYPE svg PUBLIC "-//W3C//DTD SVG 20010904//EN"
 "http://www.w3.org/TR/2001/REC-SVG-20010904/DTD/svg10.dtd">
<svg version="1.0" xmlns="http://www.w3.org/2000/svg"
 width="700.000000pt" height="700.000000pt" viewBox="0 0 700.000000 700.000000"
 preserveAspectRatio="xMidYMid meet">
<metadata>
Created by potrace 1.11, written by Peter Selinger 2001-2013
</metadata>
<g transform="translate(0.000000,700.000000) scale(0.100000,-0.100000)"
fill="#000000" stroke="none">
<path d="M3289 6776 c-2 -2 -42 -7 -89 -10 -376 -27 -853 -164 -1185 -340
-180 -96 -218 -119 -345 -204 -250 -168 -504 -396 -675 -603 -330 -401 -537
-798 -664 -1269 -31 -116 -67 -290 -77 -371 -2 -24 -7 -53 -9 -64 -27 -131
-27 -612 0 -830 80 -655 391 -1326 832 -1796 152 -162 349 -341 453 -412 25
-17 47 -34 50 -37 3 -4 39 -29 80 -57 347 -233 714 -391 1120 -484 47 -11 101
-22 120 -25 19 -3 42 -7 50 -10 8 -2 38 -7 65 -10 28 -3 97 -12 155 -19 104
-12 563 -13 660 -1 25 3 65 8 89 11 40 5 207 35 286 50 17 3 48 11 70 17 22 5
50 12 62 14 40 8 308 96 317 105 6 5 16 9 24 9 8 0 28 6 45 14 18 8 82 37 144
65 106 48 133 62 263 134 102 57 336 213 370 247 3 3 39 32 80 65 173 138 373
343 521 535 65 85 209 295 209 306 0 3 8 18 18 32 34 48 128 235 179 352 106
244 191 529 229 766 3 20 7 45 9 55 2 10 7 49 10 86 4 37 11 91 15 118 8 52 6
574 -3 610 -2 11 -8 47 -11 80 -11 90 -16 123 -31 200 -8 39 -16 81 -19 95
-11 65 -62 247 -98 355 -100 295 -240 570 -424 830 -42 61 -80 112 -83 115 -3
3 -35 41 -71 85 -208 256 -471 491 -760 680 -228 149 -619 326 -850 385 -19 5
-69 18 -110 29 -83 23 -313 68 -393 77 -29 3 -70 8 -92 11 -49 6 -530 14 -536
9z"/>
</g>
</svg>
