<svg width="512" height="512" viewBox="0 0 512 512" fill="none" xmlns="http://www.w3.org/2000/svg">
<g clip-path="url(#clip0)">
<circle cx="255.196" cy="255.196" r="230.976" fill="#FFC72A"/>
<path d="M16 263.537C16 258.487 16 253.438 16 248.389C16.0721 247.932 16.1443 247.451 16.1924 246.994C16.6011 241.367 16.8897 235.717 17.4427 230.114C18.669 217.635 21.0254 205.324 24.3196 193.229C34.7551 154.926 53.5582 121.263 80.6088 92.2167C97.32 74.2551 116.364 59.2511 137.716 47.1565C166.786 30.6616 197.972 20.7311 231.202 17.2686C244.162 15.9221 257.171 15.6576 270.203 16.427C284.654 17.2686 298.961 19.2884 313.003 22.823C366.503 36.2641 410.529 64.565 444.697 107.798C474.393 145.38 491.056 188.3 495.168 236.029C496.562 252.164 496.226 268.274 494.326 284.36C492.595 298.931 489.613 313.262 485.213 327.256C472.373 368.084 450.228 403.07 418.897 432.212C399.637 450.102 377.973 464.384 353.976 475.132C330.051 485.856 304.996 492.421 278.907 494.921C266.236 496.124 253.564 496.316 240.868 495.523C226.61 494.633 212.543 492.541 198.669 489.103C162.434 480.134 129.997 463.639 101.48 439.594C71.9045 414.659 49.5908 384.315 34.5627 348.656C23.9829 323.529 17.9717 297.32 16.4328 270.101C16.3126 267.913 16.1443 265.725 16 263.537ZM255.993 338.846C301.774 338.798 338.803 301.768 338.803 256.011C338.803 210.133 301.75 173.152 255.776 173.176C210.163 173.2 173.11 210.35 173.158 256.059C173.182 301.816 210.259 338.87 255.993 338.846ZM342.073 458.157C342.049 459.888 343.636 461.186 345.32 460.729C346.041 460.537 346.738 460.176 347.411 459.864C369.244 450.054 388.985 437.045 406.634 420.887C428.491 400.882 445.731 377.462 458.355 350.652C459.1 349.065 459.87 347.478 460.519 345.843C461.12 344.376 460.519 342.933 459.148 342.332C457.826 341.755 456.455 342.284 455.71 343.655C455.566 343.895 455.469 344.16 455.349 344.4C446.14 365.031 434.094 383.81 419.089 400.689C401.224 420.767 380.401 437.069 356.573 449.476C352.509 451.592 348.301 453.492 344.141 455.464C343.011 456.041 342.098 456.738 342.073 458.157ZM169.84 53.865C169.84 51.8693 167.748 50.5949 165.896 51.5326C158.683 55.1634 151.301 58.5297 144.328 62.5693C108.958 83.0796 81.2339 111.236 61.0843 146.799C59.4733 149.66 57.9584 152.569 56.4676 155.479C55.7222 156.946 56.2272 158.509 57.5737 159.182C58.8721 159.831 60.3389 159.35 61.1564 157.956C61.3488 157.619 61.5171 157.234 61.7094 156.898C68.9229 142.855 77.4829 129.679 87.5337 117.512C106.818 94.1884 129.901 75.5295 156.855 61.7277C160.438 59.8762 164.141 58.2412 167.796 56.5099C168.95 55.9809 169.84 55.2836 169.84 53.865ZM344.238 443.946C344.213 446.014 346.257 447.24 348.253 446.254C350.97 444.908 353.687 443.537 356.356 442.071C393.361 421.801 421.999 393.139 442.221 356.11C443.639 353.513 444.938 350.844 446.26 348.199C447.054 346.612 446.573 345.097 445.178 344.4C443.784 343.703 442.341 344.28 441.499 345.867C441.355 346.155 441.211 346.444 441.067 346.732C422.263 384.435 394.66 413.866 358.184 434.929C354.264 437.19 350.225 439.185 346.209 441.301C345.103 441.926 344.238 442.6 344.238 443.946ZM340.535 437.55C340.655 437.526 340.919 437.574 341.136 437.478C341.977 437.117 342.819 436.733 343.636 436.324C383.359 416.631 413.511 387.152 434.166 347.911C435.488 345.41 436.714 342.837 437.917 340.264C438.614 338.774 438.085 337.235 436.714 336.585C435.344 335.936 433.901 336.489 433.108 337.98C432.963 338.269 432.819 338.557 432.699 338.846C424.331 356.591 413.583 372.773 400.334 387.272C383.238 406.003 363.281 420.911 340.438 431.924C339.909 432.188 339.356 432.429 338.876 432.789C337.89 433.487 337.577 434.496 337.89 435.651C338.226 436.829 339.26 437.55 340.535 437.55ZM342.578 420.19C342.578 421.921 344.189 423.195 345.849 422.714C346.45 422.546 347.003 422.21 347.556 421.897C384.32 401.194 411.491 371.667 428.996 333.267C430.174 330.694 431.232 328.049 432.266 325.405C432.819 323.986 432.194 322.663 430.944 322.086C429.693 321.509 428.323 321.918 427.529 323.192C427.265 323.625 427.12 324.13 426.904 324.611C412.886 358.947 390.644 386.671 360.179 407.783C355.13 411.293 349.72 414.299 344.478 417.497C343.468 418.17 342.578 418.843 342.578 420.19ZM167.651 68.292C167.676 66.0558 165.608 64.8054 163.708 65.6951C162.987 66.0317 162.265 66.4165 161.568 66.7771C123.818 85.9169 94.2663 113.761 72.8663 150.285C72.2411 151.343 71.616 152.425 71.0389 153.531C70.3175 154.95 70.7503 156.465 72.0247 157.186C73.2991 157.907 74.7658 157.499 75.6555 156.128C75.9921 155.623 76.2566 155.094 76.5452 154.565C95.3002 121.72 121.052 95.8475 153.826 76.9962C157.697 74.76 161.712 72.7643 165.68 70.6964C166.786 70.1194 167.627 69.4221 167.651 68.292ZM79.8874 160.432C79.9115 161.995 80.4885 162.861 81.5946 163.27C82.7247 163.678 83.7587 163.438 84.504 162.5C84.9849 161.923 85.3216 161.226 85.6822 160.552C101.023 133.454 121.605 111.212 147.43 93.8036C155.677 88.2493 164.309 83.3922 173.302 79.1603C175.081 78.3187 175.682 76.8279 174.937 75.3612C174.24 73.9666 172.701 73.5578 171.018 74.3513C158.659 80.1461 147.021 87.1191 136.08 95.3185C113.069 112.559 94.5789 133.766 80.5607 158.869C80.2481 159.47 80.0317 160.096 79.8874 160.432ZM420.292 326.559C420.268 325.068 419.546 324.106 418.392 323.77C417.214 323.433 416.228 323.794 415.531 324.755C415.17 325.26 414.93 325.885 414.665 326.463C407.187 343.222 397.353 358.442 385.042 372.076C370.951 387.705 354.601 400.377 335.942 410.115C335.485 410.355 335.004 410.596 334.596 410.884C333.538 411.654 333.225 412.952 333.754 414.082C334.283 415.26 335.581 415.91 336.832 415.501C337.625 415.261 338.347 414.828 339.092 414.443C375.809 394.726 402.739 365.896 419.835 327.857C420.099 327.352 420.22 326.799 420.292 326.559ZM90.0584 172.671C91.5733 172.623 92.2465 171.589 92.8957 170.411C110.833 136.7 136.682 110.852 170.393 92.8899C170.849 92.6495 171.33 92.409 171.715 92.0724C172.701 91.303 172.965 90.0526 172.436 88.9466C171.907 87.8164 170.681 87.1432 169.455 87.5039C168.661 87.7443 167.94 88.1771 167.195 88.5618C133.676 106.596 107.78 132.3 89.3852 165.602C88.784 166.684 88.1589 167.766 87.6539 168.896C86.8845 170.699 88.1589 172.647 90.0584 172.671ZM98.8829 170.699C98.9791 172.19 99.5321 173.056 100.686 173.465C101.84 173.897 102.826 173.561 103.596 172.647C104.053 172.094 104.365 171.445 104.726 170.82C119.97 144.01 140.817 122.634 167.291 106.812C171.619 104.239 176.139 102.003 180.564 99.6225C182.127 98.7809 182.656 97.3142 181.934 95.9196C181.237 94.5971 179.626 94.1403 178.207 94.8376C167.339 100.176 157.048 106.475 147.43 113.857C127.689 128.981 111.771 147.424 99.6043 169.136C99.2436 169.665 99.0272 170.315 98.8829 170.699ZM343.156 398.79C343.805 398.501 344.478 398.261 345.055 397.9C375.304 378.592 397.401 352.383 411.155 319.201C411.611 318.095 412.092 316.989 412.429 315.835C412.814 314.512 412.189 313.286 411.01 312.733C409.832 312.18 408.486 312.516 407.74 313.647C407.355 314.224 407.115 314.921 406.851 315.594C394.251 346.997 373.861 372.124 345.8 391.047C344.406 391.985 342.963 392.851 341.593 393.812C340.559 394.534 340.198 395.664 340.535 396.77C340.943 397.9 341.905 398.621 343.156 398.79ZM107.154 187.651C108.549 187.627 109.246 186.737 109.823 185.583C124.371 155.84 145.915 132.564 174.432 115.757C174.769 115.564 175.129 115.348 175.418 115.083C176.404 114.242 176.644 112.799 175.995 111.717C175.322 110.611 173.999 110.154 172.773 110.635C172.364 110.803 171.98 111.02 171.595 111.236C144.977 126.938 124.154 148.289 109.126 175.292C107.587 178.057 106.169 180.894 104.798 183.732C103.884 185.679 105.135 187.651 107.154 187.651ZM188.354 120.902C188.33 118.522 186.19 117.488 184.05 118.618C157.841 132.54 137.187 152.281 122.062 177.817C121.822 178.225 121.557 178.634 121.389 179.091C120.884 180.365 121.365 181.76 122.519 182.409C123.649 183.058 124.996 182.794 125.861 181.736C126.15 181.375 126.39 180.943 126.631 180.534C138.581 160.192 154.403 143.529 174.168 130.616C178.159 128.02 182.343 125.759 186.479 123.379C187.537 122.754 188.378 122.056 188.354 120.902ZM334.018 389.773C334.403 389.605 335.125 389.34 335.75 388.955C358.208 375.346 376.145 357.24 389.586 334.686C390.957 332.378 392.231 330.021 393.482 327.665C394.251 326.198 393.77 324.635 392.448 323.938C391.125 323.241 389.634 323.721 388.793 325.188C388.6 325.501 388.456 325.813 388.288 326.15C375.256 350.459 356.957 369.792 333.441 384.194C332.936 384.507 332.383 384.796 331.951 385.18C331.061 385.974 330.796 387.008 331.253 388.114C331.686 389.172 332.504 389.701 334.018 389.773ZM137.956 183.323C139.182 183.323 139.904 182.65 140.553 181.664C152.96 162.524 169.094 147.328 188.979 136.147C191.312 134.824 193.74 133.67 196.097 132.396C197.515 131.626 197.996 130.28 197.443 128.957C196.866 127.635 195.399 127.01 193.909 127.539C193.428 127.707 192.995 128.02 192.538 128.26C171.186 138.984 153.585 154.06 139.687 173.489C138.365 175.34 137.066 177.24 135.864 179.163C134.662 181.087 135.816 183.323 137.956 183.323ZM321.347 382.632C321.659 382.511 322.236 382.319 322.765 382.054C342.771 371.354 359.362 356.759 372.49 338.245C374.366 335.6 376.097 332.858 377.852 330.141C378.526 329.107 378.526 328.025 377.78 326.992C377.083 326.054 376.025 325.669 375.015 326.102C374.222 326.463 373.452 327.208 372.971 327.977C359.843 349.017 342.386 365.439 320.529 377.221C320.072 377.462 319.591 377.702 319.231 378.063C318.413 378.856 318.125 379.818 318.558 380.9C319.014 382.054 319.88 382.583 321.347 382.632ZM364.652 306.625C364.604 306.361 364.604 306.241 364.58 306.121C364.363 304.942 363.714 304.149 362.512 303.908C361.213 303.644 360.179 304.197 359.482 305.519C357.751 308.717 356.164 312.012 354.288 315.113C344.526 331.32 331.518 344.328 315.36 354.186C313.652 355.22 313.147 356.687 313.965 358.082C314.807 359.524 316.393 359.765 318.125 358.707C338.347 346.276 353.711 329.396 364.147 308.068C364.387 307.563 364.531 307.01 364.652 306.625ZM153.225 202.751C154.162 202.727 154.86 201.814 155.461 200.707C163.347 186.377 173.831 174.234 186.936 164.448C191.432 161.081 196.361 158.268 201.122 155.238C202.637 154.277 203.166 152.858 202.42 151.487C201.699 150.141 200.04 149.708 198.573 150.526C178.4 161.707 162.602 177.288 151.229 197.365C150.868 197.99 150.483 198.616 150.243 199.289C149.642 200.996 150.94 202.775 153.225 202.751ZM298.672 343.414C298.961 343.318 299.49 343.222 299.947 342.981C321.082 331.993 336.423 315.594 345.873 293.689C346.041 293.281 346.185 292.872 346.257 292.439C346.45 291.165 345.849 290.107 344.694 289.626C343.588 289.169 342.29 289.457 341.593 290.491C341.16 291.116 340.895 291.838 340.607 292.535C331.782 312.468 317.74 327.521 298.504 337.764C297.903 338.076 297.278 338.365 296.749 338.798C295.835 339.567 295.522 340.553 295.979 341.707C296.388 342.837 297.254 343.39 298.672 343.414ZM368.836 313.743C367.417 313.767 366.744 314.705 366.142 315.811C355.755 334.758 341.448 350.051 323.294 361.76C322.886 362.025 322.477 362.289 322.14 362.602C321.227 363.468 321.082 364.862 321.755 365.896C322.453 367.002 323.775 367.411 325.002 366.882C325.362 366.738 325.699 366.497 326.036 366.305C341.472 356.398 354.36 343.871 364.556 328.627C366.888 325.14 368.956 321.485 371.072 317.854C372.226 315.883 370.976 313.719 368.836 313.743ZM164.838 205.637C165.992 205.637 166.642 205.132 167.555 203.593C178.616 185.174 193.909 171.469 213.385 162.452C213.818 162.26 214.251 162.043 214.659 161.779C215.741 161.057 216.102 159.903 215.717 158.749C215.333 157.595 214.275 156.849 213 157.042C212.231 157.138 211.485 157.499 210.764 157.811C190.422 167.333 174.48 181.736 162.915 200.996C162.698 201.381 162.458 201.765 162.338 202.174C161.736 203.905 163.011 205.661 164.838 205.637ZM197.636 143.312C197.66 141.365 195.399 140.114 193.476 141.244C189.797 143.432 186.07 145.572 182.535 147.953C167.892 157.883 155.821 170.315 146.179 185.15C144.953 187.05 145.073 188.613 146.564 189.551C148.007 190.44 149.449 189.911 150.628 188.084C159.356 174.571 170.248 163.101 183.377 153.844C187.368 151.031 191.6 148.602 195.76 146.053C196.794 145.428 197.563 144.731 197.636 143.312ZM352.317 304.606C352.317 303.163 351.595 302.129 350.537 301.816C349.407 301.48 348.373 301.696 347.628 302.682C347.243 303.187 346.955 303.764 346.666 304.341C342.795 311.579 338.154 318.263 332.696 324.371C325.507 332.402 317.307 339.158 308.026 344.641C306.343 345.626 305.862 347.165 306.751 348.56C307.593 349.906 309.132 350.171 310.743 349.209C328.464 338.653 342.17 324.25 351.812 306C352.052 305.471 352.22 304.894 352.317 304.606ZM215.044 172.166C215.044 169.665 212.904 168.511 210.908 169.569C196.457 177.24 184.555 187.747 175.37 201.309C173.254 204.41 171.451 207.729 169.575 210.975C168.709 212.49 169.166 214.052 170.513 214.798C171.883 215.519 173.35 215.014 174.24 213.451C174.528 212.922 174.817 212.393 175.105 211.864C181.934 199.361 191.167 188.974 202.829 180.798C206.147 178.466 209.754 176.494 213.241 174.378C214.251 173.777 215.068 173.08 215.044 172.166Z" fill="#603913"/>
<path d="M255.969 264.546C251.232 264.546 247.433 260.747 247.433 256.01C247.433 251.249 251.28 247.402 256.065 247.426C260.778 247.45 264.553 251.273 264.529 256.034C264.505 260.771 260.706 264.57 255.969 264.546Z" fill="#603913"/>
</g>
<defs>
<clipPath id="clip0">
<rect width="480" height="480" fill="white" transform="translate(16 16)"/>
</clipPath>
</defs>
</svg>
