<svg width="412" height="196" viewBox="0 0 412 196" fill="none" xmlns="http://www.w3.org/2000/svg">
<path d="M99.5842 44.4173H108.099V40.3262H86.5971V44.4173H95.1124V76.1952H99.5842V44.4173ZM127.892 39.565C125.355 39.565 122.944 40.0566 120.661 41.0398C118.378 41.9912 116.364 43.339 114.619 45.0833C112.907 46.7959 111.559 48.7939 110.576 51.0774C109.593 53.3608 109.101 55.7552 109.101 58.2607C109.101 60.8613 109.577 63.3191 110.528 65.6343C111.511 67.9177 112.859 69.9157 114.572 71.6283C116.316 73.3092 118.33 74.6253 120.613 75.5768C122.897 76.4965 125.323 76.9563 127.892 76.9563C130.461 76.9563 132.887 76.4965 135.17 75.5768C137.454 74.6253 139.452 73.3092 141.164 71.6283C142.909 69.9157 144.257 67.9177 145.208 65.6343C146.191 63.3191 146.683 60.8613 146.683 58.2607C146.683 55.7552 146.191 53.3608 145.208 51.0774C144.225 48.7939 142.861 46.7959 141.117 45.0833C139.404 43.339 137.406 41.9912 135.123 41.0398C132.839 40.0566 130.429 39.565 127.892 39.565ZM127.892 72.77C125.957 72.77 124.118 72.4053 122.374 71.6759C120.661 70.9465 119.139 69.9157 117.807 68.5837C116.475 67.2517 115.428 65.6977 114.667 63.9217C113.938 62.1457 113.573 60.2587 113.573 58.2607C113.573 56.2944 113.922 54.4391 114.619 52.6948C115.317 50.9188 116.3 49.3648 117.569 48.0328C118.869 46.6691 120.391 45.6225 122.136 44.8931C123.912 44.1319 125.83 43.7513 127.892 43.7513C129.953 43.7513 131.856 44.1319 133.6 44.8931C135.376 45.6225 136.899 46.6691 138.167 48.0328C139.468 49.3648 140.467 50.9188 141.164 52.6948C141.862 54.4391 142.211 56.2944 142.211 58.2607C142.211 60.2587 141.83 62.1457 141.069 63.9217C140.34 65.6977 139.309 67.2517 137.977 68.5837C136.645 69.9157 135.107 70.9465 133.363 71.6759C131.65 72.4053 129.826 72.77 127.892 72.77ZM150.589 76.1952H155.061V49.4599L181.987 77.6699V40.3262H177.515V66.8236L150.589 38.6136V76.1952ZM188.369 76.1952H207.635V72.104H192.841V58.5461H207.207V54.455H192.841V44.4173H207.635V40.3262H188.369V76.1952ZM248.478 67.2042L252.569 76.1952H257.374L240.248 38.8039L223.122 76.1952H227.927L232.018 67.2042H248.478ZM246.623 63.113H233.873L240.248 48.6036L246.623 63.113ZM271.366 60.5917C273.935 60.2745 276.012 59.1804 277.598 57.3093C279.183 55.4064 279.976 53.1547 279.976 50.5541C279.976 48.8098 279.548 47.1606 278.692 45.6066C277.867 44.0526 276.725 42.8475 275.267 41.9912C273.998 41.2618 272.618 40.8019 271.128 40.6116C269.669 40.4213 267.893 40.3262 265.8 40.3262H260.377V76.1952H264.848V61.0198H266.704L277.265 76.1952H282.688L271.366 60.5917ZM264.848 44.3222H266.038C267.306 44.3222 268.496 44.4015 269.606 44.5601C270.716 44.7186 271.73 45.0199 272.65 45.4639C273.602 45.9079 274.363 46.5739 274.934 47.4619C275.504 48.3182 275.79 49.4124 275.79 50.7444C275.79 52.1081 275.52 53.2339 274.981 54.122C274.474 54.9782 273.76 55.6442 272.84 56.12C271.952 56.564 270.969 56.8811 269.891 57.0714C268.813 57.23 267.608 57.3093 266.276 57.3093H264.848V44.3222ZM303.047 76.9563L313.798 52.5045H313.893L318.08 76.1952H322.694L315.368 38.8039L303.047 67.0614L290.726 38.8039L283.4 76.1952H288.014L292.201 52.5045H292.296L303.047 76.9563ZM334.662 60.5917V76.1952H339.134V60.5917L350.837 40.3262H345.699L336.898 55.6442L328.097 40.3262H322.96L334.662 60.5917Z" fill="#603913"/>
<path d="M103.733 92.8228C103.839 91.1842 103.786 89.9685 105.742 89.9685C108.808 89.9685 109.442 92.6113 109.442 95.2013C109.442 98.4785 108.332 100.381 104.896 100.381C103.152 100.381 103.416 99.2185 103.522 97.8442L103.733 92.8228ZM91.2591 110.583C91.2591 117.454 87.2948 115.551 87.2948 118.3C87.2948 122.159 94.8006 122.159 97.3377 122.159C105.901 122.159 107.222 120.731 107.222 118.829C107.222 116.291 104.526 117.031 104.103 114.6C103.839 113.12 103.733 111.006 103.733 109.473C103.733 106.143 104.156 105.984 105.319 105.984C108.226 105.984 109.125 108.363 109.706 110.794C111.345 117.771 112.402 122.634 120.859 122.634C126.832 122.634 129.264 120.52 129.264 118.511C129.264 115.287 125.828 118.247 125.194 113.331C124.454 107.623 122.815 105.191 119.115 103.817C118.481 103.553 117.793 103.341 117.793 102.549C117.793 101.914 118.163 101.756 118.639 101.491C121.599 100.064 123.132 96.9985 123.132 93.8271C123.132 86.797 116.208 84.1542 110.235 84.1542C108.543 84.1542 106.799 84.2599 105.108 84.3127C103.363 84.4184 101.672 84.5242 99.9806 84.5242C98.9234 84.5242 97.8134 84.4184 96.7563 84.3127C95.6463 84.2599 94.5891 84.1542 93.4791 84.1542C91.3648 84.1542 87.242 84.5242 87.242 87.4313C87.242 90.7085 91.2591 87.3256 91.2591 95.5185V110.583ZM137.002 84.5242C134.835 84.5242 130.395 83.9956 130.395 87.2199C130.395 90.9728 134.412 86.797 134.782 94.8842C135.311 104.451 135.258 103.5 134.624 113.12C134.254 118.723 130.659 116.397 130.659 119.304C130.659 119.991 130.712 121.577 134.201 121.577H155.925C157.722 121.577 159.202 121.736 160.365 121.841C161.475 122 162.321 122.159 162.691 122.159C164.805 122.159 167.659 115.71 167.659 112.116C167.659 110.636 166.814 108.733 165.122 108.733C160.788 108.733 163.854 116.186 153.018 116.186C147.468 116.186 146.939 116.556 146.939 108.839C146.939 107.147 146.886 105.139 149.107 105.139C154.445 105.139 151.168 110.689 154.445 110.689C157.617 110.689 157.987 104.346 157.987 102.179C157.987 100.117 157.775 94.1442 154.709 94.1442C150.957 94.1442 153.969 100.011 149.952 100.011C146.728 100.011 146.569 99.9056 146.569 96.8399C146.569 90.7613 145.988 89.7042 151.855 89.7042C161.898 89.7042 158.515 94.7785 162.691 94.7785C164.752 94.7785 165.439 92.717 165.439 90.9728C165.439 88.647 164.171 83.467 161.158 83.467C160.312 83.467 159.308 84.5242 152.225 84.5242H137.002ZM169.276 102.919C169.276 113.543 178.368 122.317 189.468 122.317C195.705 122.317 199.405 119.251 201.202 119.251C203.845 119.251 206.276 114.389 206.276 112.063C206.276 110.741 205.536 108.944 204.003 108.944C202.365 108.944 201.361 112.591 194.648 112.591C187.248 112.591 183.072 105.931 183.072 98.1085C183.072 95.2013 184.763 91.3956 188.833 91.3956C198.242 91.3956 196.868 100.751 202.312 100.751C205.431 100.751 207.228 98.2142 207.228 95.2013C207.228 89.3342 204.373 86.0042 202.153 86.0042C201.255 86.0042 200.938 86.3742 199.775 86.3742C198.401 86.3742 195.07 83.7842 189.89 83.7842C179.478 83.7842 169.276 92.0828 169.276 102.919ZM229.05 122.317C239.833 122.317 249.876 114.811 249.876 103.447C249.876 96.6285 244.273 83.7842 229.685 83.7842C218.162 83.7842 209.229 91.7128 209.229 102.919C209.229 114.177 217.897 122.317 229.05 122.317ZM236.292 108.786C236.292 111.64 234.917 114.441 231.693 114.441C225.985 114.441 222.813 101.809 222.813 97.3156C222.813 94.7256 224.293 91.6599 227.253 91.6599C233.437 91.6599 236.292 103.976 236.292 108.786ZM268.448 92.8228C268.554 91.1842 268.501 89.9685 270.457 89.9685C273.522 89.9685 274.157 92.6113 274.157 95.2013C274.157 98.4785 273.047 100.381 269.611 100.381C267.867 100.381 268.131 99.2185 268.237 97.8442L268.448 92.8228ZM255.974 110.583C255.974 117.454 252.009 115.551 252.009 118.3C252.009 122.159 259.515 122.159 262.052 122.159C270.615 122.159 271.937 120.731 271.937 118.829C271.937 116.291 269.241 117.031 268.818 114.6C268.554 113.12 268.448 111.006 268.448 109.473C268.448 106.143 268.871 105.984 270.034 105.984C272.941 105.984 273.839 108.363 274.421 110.794C276.059 117.771 277.117 122.634 285.574 122.634C291.547 122.634 293.978 120.52 293.978 118.511C293.978 115.287 290.542 118.247 289.908 113.331C289.168 107.623 287.53 105.191 283.83 103.817C283.195 103.553 282.508 103.341 282.508 102.549C282.508 101.914 282.878 101.756 283.354 101.491C286.314 100.064 287.847 96.9985 287.847 93.8271C287.847 86.797 280.922 84.1542 274.949 84.1542C273.258 84.1542 271.514 84.2599 269.822 84.3127C268.078 84.4184 266.387 84.5242 264.695 84.5242C263.638 84.5242 262.528 84.4184 261.471 84.3127C260.361 84.2599 259.304 84.1542 258.194 84.1542C256.079 84.1542 251.957 84.5242 251.957 87.4313C251.957 90.7085 255.974 87.3256 255.974 95.5185V110.583ZM299.444 111.534C299.285 119.251 295.11 115.023 295.11 118.829C295.11 120.943 297.382 121.841 299.18 121.841C300.712 121.841 302.192 121.789 303.672 121.683C305.152 121.63 306.685 121.577 308.165 121.577C309.645 121.577 311.072 121.63 312.711 121.683C314.35 121.789 316.253 121.841 318.525 121.841C331.898 121.841 337.66 112.591 337.66 102.76C337.66 93.2456 332.85 84.1542 318.155 84.1542H300.924C299.074 84.1542 296.008 84.5242 296.008 86.9556C296.008 90.3913 299.972 87.7485 299.867 93.1928L299.444 111.534ZM312.553 92.8228C312.553 90.8142 312.711 89.9156 314.931 89.9156C319.001 89.9156 323.653 91.8713 323.653 104.24C323.653 109.526 322.49 116.344 315.83 116.344C312.975 116.344 312.553 115.234 312.553 112.539V92.8228ZM346.052 105.456C351.919 110.16 359.161 109.209 359.161 113.014C359.161 115.023 356.254 115.604 355.091 115.604C345.365 115.604 345.999 107.2 342.246 107.2C340.661 107.2 340.026 108.627 340.026 110.054C340.026 112.75 341.242 118.353 343.779 119.78C346.792 121.419 352.765 122.317 356.254 122.317C368.569 122.317 373.644 115.34 373.644 109.156C373.644 105.191 372.005 102.549 368.728 100.381C362.596 96.3113 355.355 97.4213 355.355 93.2456C355.355 91.3428 357.099 90.6028 358.738 90.6028C364.235 90.6028 366.296 96.6285 369.838 96.6285C371.794 96.6285 372.956 94.8313 372.956 93.0342C372.956 88.5942 368.939 84.6827 367.142 84.6827C366.032 84.6827 365.292 85.317 364.552 85.317C363.759 85.317 359.954 83.7842 356.571 83.7842C346.316 83.7842 341.031 90.6028 341.031 96.0999C341.031 99.9056 343.145 103.13 346.052 105.456Z" fill="#F15A29"/>
<path d="M244.577 168.531V143.338H219.384V168.531H244.577Z" fill="#FFC72A"/>
<path d="M219.381 149.445V162.747L211.218 156.197L219.381 149.445Z" fill="#F15A29"/>
<path d="M79.1059 1.2092C79.1059 1.2092 70.3387 22.5728 64.2923 45.7504C59.0522 65.7032 56.4322 86.7647 56.4322 98.2527C56.4322 109.237 57.0368 129.492 61.9747 148.639C68.2225 173.026 79.2066 195.901 79.2066 195.901L64.0909 195.397C64.0909 195.397 54.6183 174.235 48.3704 150.251C43.3318 130.903 41.3164 109.438 41.3164 98.3533C41.3164 86.7645 43.8357 65.1993 49.0758 45.1456C55.1221 21.8673 64.0909 0.805969 64.0909 0.805969L79.1059 1.2092Z" fill="#603913"/>
<path d="M58.6494 0.402929C58.6494 0.402929 49.8822 21.7665 43.8359 44.9441C38.5958 64.8969 35.9757 85.9584 35.9757 97.4464C35.9757 108.431 36.5803 128.686 41.5181 147.832C47.766 172.219 58.7501 195.094 58.7501 195.094L43.6343 194.59C43.6343 194.59 34.1618 173.428 27.9139 149.445C22.8753 130.096 20.8599 108.632 20.8599 97.547C20.8599 85.9582 23.3791 64.3932 28.6193 44.3396C34.6656 21.0613 43.6343 -6.10352e-05 43.6343 -6.10352e-05L58.6494 0.402929Z" fill="#F15A29"/>
<path d="M37.7895 0.40299C37.7895 0.40299 29.0223 21.7666 22.9759 44.9442C17.7358 64.897 15.1158 85.9585 15.1158 97.4465C15.1158 108.431 15.7204 128.686 20.6583 147.832C26.9061 172.219 37.8902 195.094 37.8902 195.094L22.7744 194.591C22.7744 194.591 13.3019 173.428 7.05404 149.445C2.01544 130.096 0 108.632 0 97.5471C0 85.9583 2.51925 64.3933 7.75939 44.3397C13.8057 21.0613 22.7744 0 22.7744 0L37.7895 0.40299Z" fill="#FFC628"/>
<path d="M389.473 161.491V150.305L244.261 150.305V161.491L389.473 161.491Z" fill="#603913"/>
<path d="M378.311 151.036H389.497V43.4121H378.311V151.036Z" fill="#603913"/>
<path d="M400.713 172.312V161.127L255.5 161.127V172.312L400.713 172.312Z" fill="#F15A29"/>
<path d="M389.511 161.811H400.697V54.1863H389.511V161.811Z" fill="#F15A29"/>
<path d="M412 182.415V171.23L266.787 171.23V182.415L412 182.415Z" fill="#FFC72A"/>
<path d="M400.773 171.915H411.958V64.2906H400.773V171.915Z" fill="#FFC72A"/>
</svg>
