<svg width="64" height="64" viewBox="0 0 64 64" fill="none" xmlns="http://www.w3.org/2000/svg">
<path d="M63.5265 19.1323C63.3728 15.7692 62.8386 13.4726 62.0576 11.4632C61.2646 9.35507 60.0208 7.44552 58.4135 5.86717C56.8357 4.25989 54.9256 3.01562 52.8175 2.22211C50.8076 1.44161 48.5114 0.907937 45.1484 0.755116C41.7791 0.600848 40.7026 0.564209 32.1224 0.564209C23.5422 0.564209 22.4657 0.600848 19.0964 0.754151C15.7334 0.907937 13.4372 1.44209 11.4274 2.22307C9.31919 3.01611 7.40964 4.25989 5.83128 5.86717C4.224 7.44504 2.97973 9.35459 2.18622 11.4628C1.40572 13.4726 0.872049 15.7692 0.719227 19.1318C0.564959 22.5016 0.52832 23.5776 0.52832 32.1578C0.52832 40.7385 0.564959 41.815 0.719227 45.1843C0.872531 48.5469 1.40668 50.8435 2.18767 52.8533C2.9807 54.961 4.22448 56.8711 5.83176 58.4489C7.40964 60.0562 9.31967 61.3 11.4278 62.093C13.4372 62.8745 15.7338 63.4082 19.0969 63.5619C22.4667 63.7157 23.5427 63.7519 32.1229 63.7519C40.7031 63.7519 41.7796 63.7157 45.1489 63.5619C48.5119 63.4082 50.8081 62.8745 52.8179 62.093C57.0618 60.452 60.4166 57.0972 62.0576 52.8533C62.8391 50.8435 63.3728 48.5469 63.5265 45.1843C63.6798 41.8145 63.7165 40.7385 63.7165 32.1583C63.7165 23.5776 63.6798 22.5016 63.5265 19.1323ZM57.8394 44.9254C57.6991 48.006 57.1842 49.6788 56.7518 50.7919C55.6888 53.5475 53.5112 55.7251 50.7556 56.7881C49.6424 57.2206 47.9696 57.7354 44.889 57.8757C41.5583 58.0281 40.5589 58.0599 32.1224 58.0599C23.6854 58.0599 22.6865 58.0281 19.3553 57.8757C16.2752 57.7354 14.6024 57.2206 13.4888 56.7881C12.1167 56.2815 10.8754 55.474 9.85623 54.4245C8.80673 53.4053 7.99923 52.1644 7.49256 50.7919C7.06012 49.6788 6.54525 48.006 6.40497 44.9254C6.25311 41.5942 6.22081 40.5948 6.22081 32.1588C6.22081 23.7222 6.25311 22.7234 6.40497 19.3917C6.54574 16.3111 7.06012 14.6383 7.49256 13.5251C7.99923 12.1526 8.80721 10.9113 9.85623 9.89212C10.8754 8.84261 12.1167 8.03512 13.4892 7.52893C14.6024 7.09601 16.2752 6.58162 19.3558 6.44085C22.687 6.289 23.6864 6.2567 32.1224 6.2567H32.1219C40.558 6.2567 41.5573 6.289 44.889 6.44134C47.9696 6.58162 49.6419 7.09649 50.7556 7.52893C52.1276 8.0356 53.369 8.8431 54.3881 9.89212C55.4376 10.9113 56.2451 12.1526 56.7513 13.5251C57.1842 14.6383 57.6991 16.3111 57.8394 19.3917C57.9912 22.7229 58.0235 23.7222 58.0235 32.1583C58.0235 40.5948 57.9917 41.5937 57.8394 44.9254Z" fill="url(#paint0_linear)"/>
<path d="M32.1219 15.9338C23.1618 15.9338 15.8982 23.1979 15.8982 32.158C15.8982 41.1181 23.1618 48.3817 32.1219 48.3817C41.0824 48.3817 48.3461 41.1181 48.3461 32.158C48.3461 23.1979 41.0824 15.9338 32.1219 15.9338ZM32.1219 42.6892C26.306 42.6887 21.5907 37.9739 21.5912 32.1575C21.5912 26.3416 26.306 21.6263 32.1224 21.6263C37.9387 21.6268 42.6536 26.3416 42.6536 32.1575C42.6536 37.9739 37.9383 42.6892 32.1219 42.6892Z" fill="url(#paint1_linear)"/>
<path d="M52.7783 15.2931C52.7783 17.3868 51.0809 19.0842 48.9872 19.0842C46.893 19.0842 45.1956 17.3868 45.1956 15.2931C45.1956 13.1989 46.893 11.5015 48.9872 11.5015C51.0809 11.5015 52.7783 13.1989 52.7783 15.2931Z" fill="url(#paint2_linear)"/>
<defs>
<linearGradient id="paint0_linear" x1="5.83096" y1="58.4492" x2="58.4138" y2="5.86634" gradientUnits="userSpaceOnUse">
<stop stop-color="#FFD600"/>
<stop offset="0.5" stop-color="#FF0100"/>
<stop offset="1" stop-color="#D800B9"/>
</linearGradient>
<linearGradient id="paint1_linear" x1="20.6501" y1="43.6298" x2="43.5942" y2="20.6858" gradientUnits="userSpaceOnUse">
<stop stop-color="#FF6400"/>
<stop offset="0.5" stop-color="#FF0100"/>
<stop offset="1" stop-color="#FD0056"/>
</linearGradient>
<linearGradient id="paint2_linear" x1="46.3062" y1="17.9736" x2="51.6678" y2="12.6121" gradientUnits="userSpaceOnUse">
<stop stop-color="#F30072"/>
<stop offset="1" stop-color="#E50097"/>
</linearGradient>
</defs>
</svg>
