<svg width="64" height="64" viewBox="0 0 64 64" fill="none" xmlns="http://www.w3.org/2000/svg">
<path d="M54.8515 0.564209H8.69344C3.99098 0.564209 0.178711 4.37632 0.178711 9.07894V55.2373C0.178711 59.9399 3.99082 63.7521 8.69344 63.7521H31.4584L31.4972 41.1721H25.6309C24.8686 41.1721 24.2498 40.5557 24.2469 39.7933L24.2187 32.5149C24.2158 31.7484 24.8364 31.1254 25.603 31.1254H31.4585V24.0926C31.4585 15.9311 36.4431 11.4871 43.7237 11.4871H49.698C50.4624 11.4871 51.0822 12.1067 51.0822 12.8713V19.0085C51.0822 19.7727 50.4628 20.3922 49.6988 20.3927L46.0324 20.3944C42.073 20.3944 41.3063 22.2759 41.3063 25.037V31.1256H50.0065C50.8355 31.1256 51.4787 31.8494 51.381 32.6727L50.5183 39.9512C50.4358 40.6477 49.8452 41.1724 49.1439 41.1724H41.3451L41.3063 63.7524H54.8518C59.5543 63.7524 63.3664 59.9403 63.3664 55.2378V9.07894C63.3662 4.37632 59.5541 0.564209 54.8515 0.564209Z" fill="#475993"/>
</svg>
