<svg width="64" height="51" viewBox="0 0 64 51" fill="none" xmlns="http://www.w3.org/2000/svg">
<path d="M63.8351 6.64038C61.4854 7.63333 58.9815 8.29149 56.3711 8.61106C59.0566 7.06647 61.1062 4.63926 62.0698 1.71368C59.566 3.15174 56.8016 4.16752 53.8554 4.73437C51.478 2.29575 48.0896 0.7854 44.3931 0.7854C37.2213 0.7854 31.4475 6.39309 31.4475 13.2677C31.4475 14.2568 31.5344 15.2079 31.7476 16.1133C20.9781 15.6074 11.4486 10.635 5.0469 3.06044C3.92927 4.9284 3.2737 7.06647 3.2737 9.36814C3.2737 13.6899 5.584 17.521 9.02773 19.7389C6.94648 19.7009 4.90473 19.1188 3.17497 18.202C3.17497 18.24 3.17497 18.2895 3.17497 18.3389C3.17497 24.4032 7.66524 29.4402 13.5535 30.6005C12.4991 30.8782 11.3499 31.0114 10.1572 31.0114C9.32787 31.0114 8.49063 30.9657 7.70474 30.7984C9.38316 35.7403 14.1459 39.3735 19.8091 39.4914C15.4018 42.8127 9.80573 44.8138 3.74761 44.8138C2.68526 44.8138 1.66636 44.7681 0.647461 44.6426C6.38569 48.2073 13.1863 50.2427 20.52 50.2427C44.3575 50.2427 57.39 31.2206 57.39 14.7324C57.39 14.1807 57.3703 13.6481 57.3426 13.1193C59.9136 11.3616 62.0738 9.16651 63.8351 6.64038Z" fill="#03A9F4"/>
</svg>
