<svg xmlns="http://www.w3.org/2000/svg" viewBox="0 0 467.79 222.48"><defs><style>.cls-1{fill:#603913;}.cls-2{fill:#f15a29;}.cls-3{fill:#ffc72a;}.cls-4{fill:#ffc628;}</style></defs><title>Asset 1</title><g id="Layer_2" data-name="Layer 2"><g id="Layer_1-2" data-name="Layer 1"><path class="cls-1" d="M114.44,66v34.94h-6.15V66H98.93V60.22h24.84V66Z"/><path class="cls-1" d="M124,80.39a20,20,0,0,1,6.3-14.77,20.79,20.79,0,0,1,15.09-6.17A21.31,21.31,0,0,1,166.6,80.63a20,20,0,0,1-6.28,14.89,21.5,21.5,0,0,1-29.37.69A20,20,0,0,1,124,80.39Zm6.2.08a14.72,14.72,0,0,0,4.53,11.1A15,15,0,0,0,156,91.49a15.8,15.8,0,0,0,.05-21.83,15.17,15.17,0,0,0-21.43,0A14.68,14.68,0,0,0,130.24,80.47Z"/><path class="cls-1" d="M172.44,100.93V57.45l29.68,31.06V60.22h6.15v43.19l-29.69-31v28.5Z"/><path class="cls-1" d="M238.6,66H222.28v9.78h15.84v5.78H222.28v13.6H238.6v5.78H216.13V60.22H238.6Z"/><path class="cls-1" d="M283.47,91H266l-4.54,9.89h-6.62L275,57.66l19.43,43.27h-6.72ZM281,85.27l-6-13.85-6.33,13.85Z"/><path class="cls-1" d="M311.45,83.58l12.6,17.35h-7.51L304.91,84.26H303.8v16.67h-6.14V60.22h7.2q8.07,0,11.65,3a11.13,11.13,0,0,1,4,8.91A11.59,11.59,0,0,1,318,79.6,11.05,11.05,0,0,1,311.45,83.58Zm-7.65-4.67h2q8.72,0,8.72-6.67Q314.48,66,306,66H303.8Z"/><path class="cls-1" d="M326.86,100.93l8.57-43.77,14,31.64,14.48-31.64,7.7,43.77h-6.31l-3.92-24.58L349.3,102.8,337.59,76.33l-4.38,24.6Z"/><path class="cls-1" d="M386.54,83.34,373.25,60.22h7.06l9.31,16.27L399,60.22H406L392.68,83.34v17.59h-6.14Z"/><path class="cls-2" d="M103.73,120.92c0-9.3-4.56-5.46-4.56-9.18,0-3.3,4.68-3.72,7.08-3.72,1.26,0,2.46.12,3.72.18s2.46.24,3.66.24c1.92,0,3.84-.12,5.82-.24s3.9-.18,5.82-.18c6.78,0,14.64,3,14.64,11a9.42,9.42,0,0,1-5.1,8.7c-.54.3-1,.48-1,1.2,0,.9.78,1.14,1.5,1.44,4.2,1.56,6.06,4.32,6.9,10.8.72,5.58,4.62,2.22,4.62,5.88,0,2.28-2.76,4.68-9.54,4.68-9.6,0-10.8-5.52-12.66-13.44-.66-2.76-1.68-5.46-5-5.46-1.32,0-1.8.18-1.8,4a37.45,37.45,0,0,0,.42,5.82c.48,2.76,3.54,1.92,3.54,4.8,0,2.16-1.5,3.78-11.22,3.78-2.88,0-11.4,0-11.4-4.38,0-3.12,4.5-1,4.5-8.76Zm13.92,2.64c-.12,1.56-.42,2.88,1.56,2.88,3.9,0,5.16-2.16,5.16-5.88,0-2.94-.72-5.94-4.2-5.94-2.22,0-2.16,1.38-2.28,3.24Z"/><path class="cls-2" d="M170,108.44c8,0,9.17-1.2,10.13-1.2,3.42,0,4.86,5.88,4.86,8.52,0,2-.77,4.32-3.11,4.32-4.74,0-.9-5.76-12.3-5.76-6.66,0-6,1.2-6,8.1,0,3.48.18,3.6,3.84,3.6,4.56,0,1.14-6.66,5.4-6.66,3.48,0,3.72,6.78,3.72,9.12s-.42,9.66-4,9.66,0-6.3-6.06-6.3c-2.52,0-2.46,2.28-2.46,4.2,0,8.76.6,8.34,6.9,8.34,12.29,0,8.82-8.46,13.73-8.46,1.92,0,2.88,2.16,2.88,3.84,0,4.08-3.23,11.4-5.63,11.4-.42,0-1.38-.18-2.64-.36s-3-.3-5-.3H149.57c-4,0-4-1.8-4-2.58,0-3.3,4.08-.66,4.5-7,.72-10.92.78-9.84.18-20.7-.42-9.18-5-4.44-5-8.7,0-3.66,5-3.06,7.5-3.06Z"/><path class="cls-2" d="M209.93,107.6c5.88,0,9.66,2.94,11.22,2.94,1.32,0,1.68-.42,2.7-.42,2.52,0,5.75,3.78,5.75,10.44,0,3.42-2,6.3-5.57,6.3-6.18,0-4.62-10.62-15.3-10.62-4.62,0-6.54,4.32-6.54,7.62,0,8.88,4.74,16.44,13.14,16.44,7.62,0,8.76-4.14,10.62-4.14s2.58,2,2.58,3.54c0,2.64-2.76,8.16-5.76,8.16-2,0-6.24,3.48-13.32,3.48-12.6,0-22.92-10-22.92-22C186.53,117,198.11,107.6,209.93,107.6Z"/><path class="cls-2" d="M229,129.32c0-12.72,10.14-21.72,23.22-21.72,16.56,0,22.91,14.58,22.91,22.32,0,12.9-11.39,21.42-23.63,21.42C238.85,151.34,229,142.1,229,129.32Zm20.46-12.78c-3.36,0-5,3.48-5,6.42,0,5.1,3.6,19.44,10.08,19.44,3.65,0,5.22-3.18,5.22-6.42C259.73,130.52,256.49,116.54,249.47,116.54Z"/><path class="cls-2" d="M279.17,120.92c0-9.3-4.56-5.46-4.56-9.18,0-3.3,4.68-3.72,7.08-3.72,1.26,0,2.46.12,3.72.18s2.46.24,3.66.24c1.92,0,3.84-.12,5.82-.24s3.9-.18,5.81-.18c6.79,0,14.64,3,14.64,11a9.43,9.43,0,0,1-5.09,8.7c-.55.3-1,.48-1,1.2,0,.9.78,1.14,1.5,1.44,4.2,1.56,6,4.32,6.89,10.8.73,5.58,4.62,2.22,4.62,5.88,0,2.28-2.76,4.68-9.54,4.68-9.6,0-10.79-5.52-12.65-13.44-.66-2.76-1.68-5.46-5-5.46-1.32,0-1.8.18-1.8,4a37.45,37.45,0,0,0,.42,5.82c.48,2.76,3.54,1.92,3.54,4.8,0,2.16-1.5,3.78-11.22,3.78-2.88,0-11.4,0-11.4-4.38,0-3.12,4.5-1,4.5-8.76Zm13.92,2.64c-.12,1.56-.42,2.88,1.56,2.88,3.9,0,5.16-2.16,5.16-5.88,0-2.94-.72-5.94-4.2-5.94-2.22,0-2.16,1.38-2.28,3.24Z"/><path class="cls-2" d="M326.08,118.28c.12-6.18-4.37-3.18-4.37-7.08,0-2.76,3.48-3.18,5.58-3.18h19.55c16.68,0,22.14,10.32,22.14,21.12,0,11.16-6.54,21.66-21.72,21.66-2.58,0-4.74-.06-6.6-.18s-3.48-.12-5.16-.12-3.42.06-5.09.12-3.36.18-5.1.18c-2,0-4.62-1-4.62-3.42,0-4.32,4.74.48,4.92-8.28Zm14.41,22c0,3.06.47,4.32,3.71,4.32,7.56,0,8.88-7.74,8.88-13.74,0-14-5.28-16.26-9.9-16.26-2.52,0-2.69,1-2.69,3.3Z"/><path class="cls-2" d="M369.94,121.58c0-6.24,6-14,17.64-14,3.84,0,8.16,1.74,9.06,1.74s1.68-.72,2.94-.72c2,0,6.6,4.44,6.6,9.48,0,2-1.32,4.08-3.54,4.08-4,0-6.36-6.84-12.6-6.84-1.86,0-3.84.84-3.84,3,0,4.74,8.22,3.48,15.18,8.1,3.72,2.46,5.58,5.46,5.58,10,0,7-5.76,14.94-19.74,14.94-4,0-10.74-1-14.16-2.88-2.88-1.62-4.26-8-4.26-11,0-1.62.72-3.24,2.53-3.24,4.25,0,3.53,9.54,14.57,9.54,1.32,0,4.62-.66,4.62-2.94,0-4.32-8.22-3.24-14.88-8.58C372.34,129.56,369.94,125.9,369.94,121.58Z"/><rect class="cls-3" x="249.16" y="162.87" width="28.57" height="28.57" transform="translate(440.59 -86.29) rotate(90)"/><polygon class="cls-2" points="249.16 169.82 249.16 184.89 239.86 177.52 249.16 169.82"/><path class="cls-1" d="M89.94,1.53A455.15,455.15,0,0,0,73.08,52.11c-5.93,22.6-8.94,46.54-8.94,59.6,0,12.48.69,35.4,6.28,57.17,7.13,27.74,19.52,53.6,19.52,53.6l-17.2-.6A366.38,366.38,0,0,1,54.9,170.67c-5.7-21.95-8-46.34-8-59,0-13.16,2.83-37.62,8.78-60.4A420.89,420.89,0,0,1,72.74.93Z"/><path class="cls-2" d="M66.67.6A457.56,457.56,0,0,0,49.81,51.18c-5.92,22.6-8.93,46.54-8.94,59.6,0,12.48.7,35.4,6.29,57.17,7.12,27.74,19.51,53.6,19.51,53.6l-17.2-.6a365.61,365.61,0,0,1-17.83-51.21c-5.7-22-8-46.34-8-59,0-13.16,2.84-37.62,8.78-60.4A420.89,420.89,0,0,1,49.47,0Z"/><path class="cls-4" d="M43,.6A457.56,457.56,0,0,0,26.14,51.18c-5.92,22.6-8.93,46.54-8.94,59.6,0,12.48.7,35.4,6.29,57.17C30.61,195.69,43,221.55,43,221.55L25.8,221A365.61,365.61,0,0,1,8,169.74c-5.7-22-8-46.34-8-59,0-13.16,2.83-37.62,8.78-60.4A420.89,420.89,0,0,1,25.8,0Z"/><polygon class="cls-1" points="429.54 49.38 429.54 170.78 277.42 170.78 277.42 183.53 442.28 183.53 442.28 171.59 442.28 170.78 442.28 49.38 429.54 49.38"/><polygon class="cls-2" points="442.24 61.67 442.24 183.07 290.13 183.07 290.13 195.82 454.99 195.82 454.99 183.88 454.99 183.07 454.99 61.67 442.24 61.67"/><polygon class="cls-3" points="455.04 73.13 455.04 194.52 302.93 194.52 302.93 207.27 467.79 207.27 467.79 195.33 467.79 194.52 467.79 73.13 455.04 73.13"/></g></g></svg>