<svg width="211" height="56" viewBox="0 0 211 56" fill="none" xmlns="http://www.w3.org/2000/svg">
<path d="M28.0881 19.1546C28.5921 20.3306 29.0401 21.0866 30.4401 21.0866C32.0361 21.0866 32.6801 19.6306 33.2681 18.1186L38.0841 5.51863C38.8401 3.55863 40.0161 3.92262 40.0161 2.55062C40.0161 0.982625 37.9161 0.842625 36.7681 0.842625C35.6201 0.842625 32.7641 0.758625 32.7641 2.46662C32.7641 4.00662 34.5841 3.39062 34.5841 4.59463C34.5841 4.98663 33.3801 9.74662 32.4281 9.74662C31.7561 9.74662 31.1401 8.01062 30.9441 7.56262C30.6641 6.94662 29.7121 5.21062 29.7121 4.45463C29.7121 3.75462 30.9721 3.50262 30.9721 2.57862C30.9721 2.10262 31.0841 0.842625 25.6521 0.842625C19.8001 0.842625 20.1921 2.52263 20.1921 2.69062C20.1921 3.39062 20.6681 3.78262 21.2281 4.06263C22.0681 4.53862 22.6561 6.27463 22.6561 6.52663C22.6561 6.72262 22.3761 7.45063 22.2921 7.61862C22.1521 8.03863 21.5641 10.0546 20.8361 10.0546C20.1921 10.0546 19.5761 8.09463 19.4361 7.64663C19.3241 7.31062 18.4561 5.26662 18.4561 4.45463C18.4561 3.58662 19.1001 3.47462 19.1001 2.63463C19.1001 1.48663 18.4001 0.842625 14.3121 0.842625C13.0241 0.842625 9.24414 0.898624 9.24414 2.83062C9.24414 4.53862 10.3641 3.50262 11.1481 5.51863L16.3561 18.8186C16.8601 20.1066 17.2801 21.0866 18.8481 21.0866C20.6681 21.0866 20.9481 20.0506 21.5361 18.5946L23.2441 14.3666C23.9721 12.5746 24.1681 11.8466 24.7001 11.8466C25.1481 11.8466 25.3721 12.7146 25.5121 13.0226L28.0881 19.1546ZM50.9856 14.3386C51.8816 14.3386 52.7216 14.0866 52.7216 12.2386C52.7216 10.1386 50.6216 6.47062 45.8616 6.47062C41.6616 6.47062 37.9936 9.60662 37.9936 13.9186C37.9936 17.5306 40.5976 21.1706 45.6376 21.1706C48.1576 21.1706 52.1056 19.6026 52.1056 17.4466C52.1056 16.9146 51.6016 16.0466 51.0136 16.0466C50.4256 16.0466 49.3896 17.3066 47.2896 17.3066C45.9736 17.3066 44.1536 16.1306 44.1536 14.7306C44.1536 14.2546 44.6016 14.3386 44.9096 14.3386H50.9856ZM45.6936 11.6506C44.9656 11.6506 44.0136 11.8746 44.0136 10.8666C44.0136 9.97063 44.7696 9.01863 45.6936 9.01863C46.7296 9.01863 47.3456 9.80262 47.3456 10.8106C47.3456 11.8186 46.4496 11.6506 45.6936 11.6506ZM80.9755 5.54662C80.9755 3.39062 79.6595 0.954625 74.5355 0.954625C73.8915 0.954625 73.2195 1.01062 72.5755 1.03862C71.9315 1.09463 71.2875 1.15062 70.6155 1.15062C69.5795 1.15062 68.5435 1.09463 67.5075 1.03862C66.4715 1.01062 65.4355 0.954625 64.3995 0.954625C63.5315 0.954625 62.3835 1.45862 62.3835 2.52263C62.3835 4.45463 64.7915 2.52263 64.6235 6.75062L64.3155 14.8146C64.1475 19.4626 62.3275 17.6986 62.3275 19.4346C62.3275 20.4146 63.3075 20.9186 64.1755 20.9186C65.1555 20.9186 66.1075 20.8906 67.0595 20.8346C68.0115 20.8066 68.9915 20.7786 69.9435 20.7786C70.8115 20.7786 71.6515 20.8066 72.4915 20.8346C73.3315 20.8906 74.1995 20.9186 75.1515 20.9186C80.7795 20.9186 82.6555 17.4746 82.6555 14.6746C82.6555 12.3226 80.6675 10.8386 79.5195 10.3906C79.2395 10.2506 78.9315 10.1386 78.9315 9.77463C78.9315 9.41062 79.1835 9.24262 79.4355 9.01863C80.4435 8.20662 80.9755 6.83462 80.9755 5.54662ZM71.2875 5.51863C71.2875 4.70663 71.1755 3.86662 72.2115 3.86662C73.7515 3.86662 74.1715 5.43462 74.1715 6.69462C74.1715 8.23463 73.7795 9.41062 72.0995 9.41062C71.2315 9.41062 71.2875 8.87863 71.2875 7.78663V5.51863ZM71.2875 13.2186C71.3155 12.6306 71.5115 12.1826 72.3795 12.1826C74.3395 12.1826 74.8435 13.6946 74.8435 15.4026C74.8435 16.8586 74.2835 17.9506 72.6875 17.9506C71.8195 17.9506 71.2875 17.8666 71.2875 14.6186V13.2186ZM91.4729 7.61862C91.4729 6.91862 91.3889 6.55463 90.6049 6.55463C90.3809 6.55463 83.3249 6.63863 83.3249 8.43063C83.3249 10.2786 85.2569 8.40262 85.2569 12.6866C85.2569 16.8866 84.8089 21.0866 90.1289 21.0866C91.3609 21.0866 92.2569 20.6666 92.9289 20.2466C93.6009 19.8266 94.0489 19.4066 94.3569 19.4066C95.4769 19.4066 94.0489 21.0866 96.2049 21.0866C97.7449 21.0866 102.701 20.5546 102.701 18.6506C102.701 17.3066 101.161 18.0906 101.161 16.4106V10.7826C101.161 9.88662 101.217 9.01863 101.217 8.12262C101.217 7.14262 100.797 6.55463 99.7889 6.55463C98.7249 6.55463 93.0969 6.83462 93.0969 8.48663C93.0969 9.66263 94.4689 9.18662 94.6929 10.5866C94.8329 11.4826 94.8049 12.6866 94.8049 13.6106C94.8049 14.9546 95.0849 17.5866 93.0689 17.5866C91.5569 17.5866 91.4729 15.8506 91.4729 14.7306V7.61862ZM117.091 13.8626C117.483 12.7706 117.931 11.5386 118.547 10.5586C119.527 8.90662 121.207 9.63462 121.207 7.98263C121.207 6.69462 119.135 6.55463 118.211 6.55463C117.203 6.55463 114.571 6.72262 114.571 8.20662C114.571 9.15862 115.467 9.07463 115.467 10.3346C115.467 11.0066 114.879 12.9386 114.039 12.9386C113.563 12.9386 112.331 10.9786 112.331 9.91463C112.331 9.24262 112.975 9.01863 112.975 8.26262C112.975 6.66663 110.455 6.55463 109.391 6.55463C103.483 6.55463 102.979 7.78663 102.979 8.62663C102.979 9.91463 104.575 9.57863 105.107 10.6986L109.027 18.9026C109.363 19.6026 109.923 20.6666 109.923 21.4506C109.923 22.0946 109.587 22.8226 108.831 22.8226C107.683 22.8226 108.411 19.8546 105.807 19.8546C104.379 19.8546 103.315 21.0306 103.315 22.4306C103.315 24.7546 105.695 25.7906 107.711 25.7906C112.275 25.7906 114.067 22.1506 115.439 18.4266L117.091 13.8626ZM149.565 4.76262C150.965 3.25062 152.981 4.28662 152.981 2.49462C152.981 1.26262 152.057 0.842625 148.557 0.842625C147.493 0.842625 144.245 0.842625 144.245 2.49462C144.245 3.55863 145.057 3.61462 145.057 4.39862C145.057 5.04262 143.881 6.52663 143.153 6.52663C142.453 6.52663 141.333 4.76262 141.333 4.14662C141.333 3.55863 142.117 3.27863 142.117 2.55062C142.117 1.93462 142.173 0.842625 136.349 0.842625C129.825 0.842625 130.021 2.10262 130.021 2.74662C130.021 4.11862 131.841 3.67063 133.213 5.26662L136.377 8.93463C137.357 10.1946 137.609 10.7266 137.609 12.3226C137.609 15.0386 137.441 16.3266 137.161 16.9706C136.657 18.1186 135.061 17.5586 135.061 19.0706C135.061 19.8266 135.789 21.0866 141.277 21.0866C142.649 21.0866 147.073 21.0866 147.073 19.0706C147.073 17.7546 145.589 17.9226 145.197 17.1106C144.945 16.5786 144.805 15.4586 144.805 12.8826C144.805 10.9226 144.889 10.0826 146.121 8.54263L149.565 4.76262ZM157.557 21.1706C161.673 21.1706 166.601 18.3706 166.601 13.7786C166.601 10.3066 163.801 6.47062 158.901 6.47062C154.281 6.47062 149.885 9.29862 149.885 14.3106C149.885 18.7346 153.413 21.1706 157.557 21.1706ZM160.161 15.9066C160.161 16.8026 159.937 17.6986 158.873 17.6426C156.941 17.5306 156.437 13.2186 156.325 11.4546C156.269 10.6426 156.773 9.77463 157.697 9.77463C159.601 9.77463 160.161 14.6466 160.161 15.9066ZM175.528 7.61862C175.528 6.91862 175.444 6.55463 174.66 6.55463C174.436 6.55463 167.38 6.63863 167.38 8.43063C167.38 10.2786 169.312 8.40262 169.312 12.6866C169.312 16.8866 168.864 21.0866 174.184 21.0866C175.416 21.0866 176.312 20.6666 176.984 20.2466C177.656 19.8266 178.104 19.4066 178.412 19.4066C179.532 19.4066 178.104 21.0866 180.26 21.0866C181.8 21.0866 186.756 20.5546 186.756 18.6506C186.756 17.3066 185.216 18.0906 185.216 16.4106V10.7826C185.216 9.88662 185.272 9.01863 185.272 8.12262C185.272 7.14262 184.852 6.55463 183.844 6.55463C182.78 6.55463 177.152 6.83462 177.152 8.48663C177.152 9.66263 178.524 9.18662 178.748 10.5866C178.888 11.4826 178.86 12.6866 178.86 13.6106C178.86 14.9546 179.14 17.5866 177.124 17.5866C175.612 17.5866 175.528 15.8506 175.528 14.7306V7.61862ZM189.217 13.9746C189.217 14.7586 189.133 16.3546 188.909 17.0546C188.601 18.0346 187.313 18.0346 187.313 19.2106C187.313 21.1426 191.121 21.0866 192.409 21.0866C195.489 21.0866 197.953 20.9466 197.953 19.1826C197.953 17.5026 195.825 18.2586 195.657 17.0266C195.517 15.9626 195.433 14.7866 195.433 13.9466C195.433 13.4426 195.293 11.5666 196.077 11.5666C196.805 11.5666 197.309 13.1626 199.129 13.1626C200.977 13.1626 202.573 11.6786 202.573 9.80262C202.573 7.95462 201.341 6.55463 199.465 6.55463C197.057 6.55463 196.637 8.76662 195.965 8.76662C195.489 8.76662 195.517 8.12262 195.489 7.78663C195.377 6.83462 195.349 6.55463 194.285 6.55463C194.033 6.55463 187.481 7.17062 187.481 9.38263C187.481 11.0906 189.217 9.55062 189.217 12.2946V13.9746ZM17.9694 46.9666C17.9694 47.2746 18.1654 50.9426 13.7414 50.9426C10.7734 50.9426 9.51342 48.8146 9.51342 45.4826V40.3306C9.65342 36.9146 11.6974 38.7906 11.6974 36.7746C11.6974 35.6826 10.7734 34.8426 6.20942 34.8426C0.441422 34.8426 0.749422 36.4106 0.749422 36.8026C0.749422 38.0906 2.65342 38.0906 2.54142 39.8546V46.3226C2.54142 46.6586 1.30942 55.1706 12.3414 55.1706C22.0294 55.1706 22.0014 48.4506 22.0014 47.1906V39.6306C22.0014 37.0826 24.1014 38.0346 24.1014 36.4666C24.1014 34.8426 21.0214 34.8426 19.9574 34.8426C18.8094 34.8426 15.5614 34.7866 15.5614 36.5226C15.5614 38.1466 17.9694 36.9986 17.9694 39.9946V46.9666ZM30.914 40.4706C28.03 40.4706 25.734 42.2346 25.734 45.0346C25.734 49.6546 31.222 49.8506 31.222 51.5026C31.222 52.1186 30.69 52.3986 30.13 52.3986C28.562 52.3986 27.442 49.6266 26.21 49.6266C25.398 49.6266 25.146 50.2146 25.146 50.9426C25.146 52.0066 25.846 53.6026 26.546 54.3866C26.938 54.8346 27.218 54.9186 27.778 54.9186C27.974 54.9186 28.142 54.8906 28.31 54.8626C28.506 54.8346 28.674 54.8066 28.87 54.8066C29.038 54.8066 29.654 54.8906 30.354 54.9746C31.054 55.0866 31.866 55.1706 32.426 55.1706C35.338 55.1706 37.886 53.3506 37.886 50.7186C37.886 46.3786 31.726 46.0426 31.726 44.2506C31.726 43.7186 32.23 43.2986 32.734 43.2986C33.966 43.2986 34.862 45.5106 36.458 45.5106C37.186 45.5106 37.83 44.9506 37.83 44.1946C37.83 43.0466 36.542 40.4706 35.254 40.4706C35.002 40.4706 34.75 40.5546 34.498 40.6386C34.246 40.7506 34.022 40.8346 33.742 40.8346C33.546 40.8346 33.098 40.7506 32.594 40.6386C32.062 40.5546 31.474 40.4706 30.914 40.4706ZM51.9973 48.3386C52.8933 48.3386 53.7333 48.0866 53.7333 46.2386C53.7333 44.1386 51.6333 40.4706 46.8733 40.4706C42.6733 40.4706 39.0053 43.6066 39.0053 47.9186C39.0053 51.5306 41.6093 55.1706 46.6493 55.1706C49.1693 55.1706 53.1173 53.6026 53.1173 51.4466C53.1173 50.9146 52.6133 50.0466 52.0253 50.0466C51.4373 50.0466 50.4013 51.3066 48.3013 51.3066C46.9853 51.3066 45.1653 50.1306 45.1653 48.7306C45.1653 48.2546 45.6133 48.3386 45.9213 48.3386H51.9973ZM46.7053 45.6506C45.9773 45.6506 45.0253 45.8746 45.0253 44.8666C45.0253 43.9706 45.7813 43.0186 46.7053 43.0186C47.7413 43.0186 48.3573 43.8026 48.3573 44.8106C48.3573 45.8186 47.4613 45.6506 46.7053 45.6506ZM65.2872 46.9946C65.2872 48.2266 65.3992 51.6706 63.5232 51.6706C61.7872 51.6706 61.4512 49.3746 61.4512 48.0586C61.4512 46.7426 61.7872 43.5226 63.6632 43.5226C65.2872 43.5226 65.2872 45.9026 65.2872 46.9946ZM71.4752 36.6626C71.4752 35.7386 71.2792 35.1506 70.4392 35.1506C70.3552 35.1506 63.2152 35.6826 63.2152 37.7546C63.2152 39.2666 65.2592 38.3426 65.2592 40.0786C65.2592 40.3866 65.2312 41.3106 64.8112 41.3106C64.5032 41.3106 63.4112 40.4706 61.4792 40.4706C57.6152 40.4706 54.5912 44.1106 54.5912 47.8346C54.5912 51.2786 57.4472 55.1706 61.1152 55.1706C62.3472 55.1706 63.2152 54.7506 63.8592 54.3586C64.5032 53.9386 64.9232 53.5466 65.1752 53.5466C66.0992 53.5466 65.0912 55.0866 66.5192 55.0866C66.8272 55.0866 72.9592 54.9466 72.9592 52.8186C72.9592 51.3626 71.4752 52.0066 71.4752 50.0466V36.6626ZM91.1885 39.5466C91.2445 38.6786 91.2165 38.0346 92.2525 38.0346C93.8765 38.0346 94.2125 39.4346 94.2125 40.8066C94.2125 42.5426 93.6245 43.5506 91.8045 43.5506C90.8805 43.5506 91.0205 42.9346 91.0765 42.2066L91.1885 39.5466ZM84.5805 48.9546C84.5805 52.5946 82.4805 51.5866 82.4805 53.0426C82.4805 55.0866 86.4565 55.0866 87.8005 55.0866C92.3365 55.0866 93.0365 54.3306 93.0365 53.3226C93.0365 51.9786 91.6085 52.3706 91.3845 51.0826C91.2445 50.2986 91.1885 49.1786 91.1885 48.3666C91.1885 46.6026 91.4125 46.5186 92.0285 46.5186C93.5685 46.5186 94.0445 47.7786 94.3525 49.0666C95.2205 52.7626 95.7805 55.3386 100.261 55.3386C103.425 55.3386 104.713 54.2186 104.713 53.1546C104.713 51.4466 102.893 53.0146 102.557 50.4106C102.165 47.3866 101.297 46.0986 99.3365 45.3706C99.0005 45.2306 98.6365 45.1186 98.6365 44.6986C98.6365 44.3626 98.8325 44.2786 99.0845 44.1386C100.653 43.3826 101.465 41.7586 101.465 40.0786C101.465 36.3546 97.7965 34.9546 94.6325 34.9546C93.7365 34.9546 92.8125 35.0106 91.9165 35.0386C90.9925 35.0946 90.0965 35.1506 89.2005 35.1506C88.6405 35.1506 88.0525 35.0946 87.4925 35.0386C86.9045 35.0106 86.3445 34.9546 85.7565 34.9546C84.6365 34.9546 82.4525 35.1506 82.4525 36.6906C82.4525 38.4266 84.5805 36.6346 84.5805 40.9746V48.9546ZM118.388 48.3386C119.284 48.3386 120.124 48.0866 120.124 46.2386C120.124 44.1386 118.024 40.4706 113.264 40.4706C109.064 40.4706 105.396 43.6066 105.396 47.9186C105.396 51.5306 108 55.1706 113.04 55.1706C115.56 55.1706 119.508 53.6026 119.508 51.4466C119.508 50.9146 119.004 50.0466 118.416 50.0466C117.828 50.0466 116.792 51.3066 114.692 51.3066C113.376 51.3066 111.556 50.1306 111.556 48.7306C111.556 48.2546 112.004 48.3386 112.312 48.3386H118.388ZM113.096 45.6506C112.368 45.6506 111.416 45.8746 111.416 44.8666C111.416 43.9706 112.172 43.0186 113.096 43.0186C114.132 43.0186 114.748 43.8026 114.748 44.8106C114.748 45.8186 113.852 45.6506 113.096 45.6506ZM120.982 47.7786C120.982 52.0626 124.398 55.1706 128.626 55.1706C132.546 55.1706 135.066 53.0426 135.066 51.3906C135.066 50.7186 134.562 49.8786 133.806 49.8786C133.218 49.8786 132.63 50.6066 130.866 50.6066C128.654 50.6066 127.114 48.5066 127.114 46.4346C127.114 45.3146 127.786 44.0546 129.018 44.0546C131.23 44.0546 129.83 47.5266 132.854 47.5266C134.422 47.5266 135.598 46.3226 135.598 44.7546C135.598 42.7946 133.386 40.4706 129.186 40.4706C124.482 40.4706 120.982 43.7466 120.982 47.7786ZM144.158 55.1706C148.274 55.1706 153.202 52.3706 153.202 47.7786C153.202 44.3066 150.402 40.4706 145.502 40.4706C140.882 40.4706 136.486 43.2986 136.486 48.3106C136.486 52.7346 140.014 55.1706 144.158 55.1706ZM146.762 49.9066C146.762 50.8026 146.538 51.6986 145.474 51.6426C143.542 51.5306 143.038 47.2186 142.926 45.4546C142.87 44.6426 143.374 43.7746 144.298 43.7746C146.202 43.7746 146.762 48.6466 146.762 49.9066ZM155.885 47.9746C155.885 48.7586 155.801 50.3546 155.577 51.0546C155.269 52.0346 153.981 52.0346 153.981 53.2106C153.981 55.1426 157.789 55.0866 159.077 55.0866C162.157 55.0866 164.621 54.9466 164.621 53.1826C164.621 51.5026 162.493 52.2586 162.325 51.0266C162.185 49.9626 162.101 48.7866 162.101 47.9466C162.101 47.4426 161.961 45.5666 162.745 45.5666C163.473 45.5666 163.977 47.1626 165.797 47.1626C167.645 47.1626 169.241 45.6786 169.241 43.8026C169.241 41.9546 168.009 40.5546 166.133 40.5546C163.725 40.5546 163.305 42.7666 162.633 42.7666C162.157 42.7666 162.185 42.1226 162.157 41.7866C162.045 40.8346 162.017 40.5546 160.953 40.5546C160.701 40.5546 154.149 41.1706 154.149 43.3826C154.149 45.0906 155.885 43.5506 155.885 46.2946V47.9746ZM180.596 46.9946C180.596 48.2266 180.708 51.6706 178.832 51.6706C177.096 51.6706 176.76 49.3746 176.76 48.0586C176.76 46.7426 177.096 43.5226 178.972 43.5226C180.596 43.5226 180.596 45.9026 180.596 46.9946ZM186.784 36.6626C186.784 35.7386 186.588 35.1506 185.748 35.1506C185.664 35.1506 178.524 35.6826 178.524 37.7546C178.524 39.2666 180.568 38.3426 180.568 40.0786C180.568 40.3866 180.54 41.3106 180.12 41.3106C179.812 41.3106 178.72 40.4706 176.788 40.4706C172.924 40.4706 169.9 44.1106 169.9 47.8346C169.9 51.2786 172.756 55.1706 176.424 55.1706C177.656 55.1706 178.524 54.7506 179.168 54.3586C179.812 53.9386 180.232 53.5466 180.484 53.5466C181.408 53.5466 180.4 55.0866 181.828 55.0866C182.136 55.0866 188.268 54.9466 188.268 52.8186C188.268 51.3626 186.784 52.0066 186.784 50.0466V36.6626ZM194.949 40.4706C192.065 40.4706 189.769 42.2346 189.769 45.0346C189.769 49.6546 195.257 49.8506 195.257 51.5026C195.257 52.1186 194.725 52.3986 194.165 52.3986C192.597 52.3986 191.477 49.6266 190.245 49.6266C189.433 49.6266 189.181 50.2146 189.181 50.9426C189.181 52.0066 189.881 53.6026 190.581 54.3866C190.973 54.8346 191.253 54.9186 191.813 54.9186C192.009 54.9186 192.177 54.8906 192.345 54.8626C192.541 54.8346 192.709 54.8066 192.905 54.8066C193.073 54.8066 193.689 54.8906 194.389 54.9746C195.089 55.0866 195.901 55.1706 196.461 55.1706C199.373 55.1706 201.921 53.3506 201.921 50.7186C201.921 46.3786 195.761 46.0426 195.761 44.2506C195.761 43.7186 196.265 43.2986 196.769 43.2986C198.001 43.2986 198.897 45.5106 200.493 45.5106C201.221 45.5106 201.865 44.9506 201.865 44.1946C201.865 43.0466 200.577 40.4706 199.289 40.4706C199.037 40.4706 198.785 40.5546 198.533 40.6386C198.281 40.7506 198.057 40.8346 197.777 40.8346C197.581 40.8346 197.133 40.7506 196.629 40.6386C196.097 40.5546 195.509 40.4706 194.949 40.4706ZM210.208 52.0626C210.208 50.3546 208.808 48.9546 207.1 48.9546C205.392 48.9546 203.992 50.3546 203.992 52.0626C203.992 53.7706 205.392 55.1706 207.1 55.1706C208.808 55.1706 210.208 53.7706 210.208 52.0626ZM210.46 39.0426C210.46 36.9706 209.48 34.7586 207.1 34.7586C204.72 34.7586 203.74 36.9706 203.74 39.0426C203.74 40.7786 204.384 42.8786 205.168 44.4186C205.42 44.9506 206.4 46.7706 207.1 46.7706C207.8 46.7706 208.78 44.9506 209.032 44.4186C209.816 42.8786 210.46 40.7786 210.46 39.0426Z" fill="#F15A29"/>
</svg>
