<svg width="428" height="51" viewBox="0 0 428 51" fill="none" xmlns="http://www.w3.org/2000/svg">
<path d="M6.34166 23.1803C12.4467 28.0753 19.9817 27.0853 19.9817 31.0453C19.9817 33.1353 16.9567 33.7403 15.7467 33.7403C5.62666 33.7403 6.28666 24.9953 2.38166 24.9953C0.731656 24.9953 0.0716566 26.4803 0.0716566 27.9653C0.0716566 30.7703 1.33666 36.6003 3.97666 38.0853C7.11166 39.7903 13.3267 40.7253 16.9567 40.7253C29.7717 40.7253 35.0517 33.4653 35.0517 27.0303C35.0517 22.9053 33.3467 20.1553 29.9367 17.9003C23.5567 13.6653 16.0217 14.8203 16.0217 10.4753C16.0217 8.49532 17.8367 7.72532 19.5417 7.72532C25.2617 7.72532 27.4067 13.9953 31.0917 13.9953C33.1267 13.9953 34.3367 12.1253 34.3367 10.2553C34.3367 5.63532 30.1567 1.56532 28.2867 1.56532C27.1317 1.56532 26.3617 2.22532 25.5917 2.22532C24.7667 2.22532 20.8067 0.63032 17.2867 0.63032C6.61666 0.63032 1.11666 7.72532 1.11666 13.4453C1.11666 17.4053 3.31666 20.7603 6.34166 23.1803ZM60.117 26.9753C60.117 29.6153 59.677 33.3003 56.267 33.3003C54.342 33.3003 53.462 32.6403 53.462 30.8253C53.462 20.8153 54.122 19.9903 56.102 19.9903C59.567 19.9903 60.117 24.3353 60.117 26.9753ZM41.032 32.0903C41.032 38.1953 40.812 39.7903 40.262 40.9453C39.272 43.0903 37.017 42.1553 37.017 44.6303C37.017 47.4353 42.792 50.1303 50.162 50.1303C52.307 50.1303 57.312 49.7453 57.312 46.6653C57.312 43.9703 53.902 45.2903 53.902 41.1103C53.902 40.5053 54.012 39.3503 54.782 39.3503C55.277 39.3503 57.862 40.7253 60.447 40.7253C68.477 40.7253 73.702 32.8603 73.702 25.4903C73.702 19.0553 69.852 11.8503 62.647 11.8503C58.137 11.8503 55.057 14.8203 54.287 14.8203C53.737 14.8203 53.682 14.0503 53.682 13.6653C53.682 12.4553 53.462 12.0153 52.142 12.0153C48.072 12.0153 36.742 14.8753 36.742 18.6153C36.742 21.7503 39.712 21.0353 40.427 21.7503C40.702 22.0253 41.032 23.2903 41.032 29.0653V32.0903ZM91.4241 14.4353C91.4241 13.2803 91.3691 12.0153 89.7191 12.0153C89.1691 12.0153 75.1991 13.6653 75.1991 17.5703C75.1991 20.0453 78.0041 19.4403 78.4991 21.3653C79.1041 23.4003 78.9941 31.3753 78.2791 33.3003C77.6191 35.0053 75.3641 35.1153 75.3641 37.0953C75.3641 38.4153 75.7491 40.5603 85.2091 40.5603C87.6841 40.5603 94.6691 40.5603 94.6691 36.8203C94.6691 33.9053 91.4241 36.2703 91.4241 29.7803V14.4353ZM91.1491 4.86532C91.1491 2.11532 88.0141 1.40032 85.8141 1.40032C83.0091 1.40032 75.7491 2.88532 75.7491 6.51532C75.7491 9.21032 78.2241 10.2553 80.5341 10.2553C83.6691 10.2553 91.1491 9.15532 91.1491 4.86532ZM111.664 26.5353C111.664 24.0603 111.334 20.2653 114.854 20.2653C120.024 20.2653 118.484 29.0653 118.209 32.9703C117.934 36.5453 116.119 35.6103 116.119 37.5903C116.119 40.6703 121.399 40.5603 123.379 40.5603C133.719 40.5603 133.499 38.2503 133.499 37.2603C133.499 34.8953 131.244 35.8853 130.969 31.5403C130.419 23.1803 132.344 12.0153 120.959 12.0153C117.824 12.0153 116.174 13.1703 115.074 14.2703C113.974 15.4253 113.479 16.5803 112.599 16.5803C111.774 16.5803 111.499 15.8103 111.499 15.1503C111.499 14.8203 111.554 14.4903 111.554 14.1603C111.554 13.0603 110.784 12.0153 109.574 12.0153C108.474 12.0153 95.8241 14.7653 95.8241 17.6803C95.8241 20.5953 99.1791 19.2753 99.0691 23.3453L98.8491 31.5953C98.6841 36.9853 96.1541 34.6203 96.1541 37.2603C96.1541 40.5603 101.764 40.5603 103.964 40.5603C106.219 40.5603 113.534 40.6703 113.534 37.2603C113.534 35.1703 111.664 36.1053 111.664 30.7703V26.5353ZM155.967 31.6503C155.747 35.0053 151.897 33.5753 151.897 36.6553C151.897 40.5053 158.992 40.5603 161.632 40.5603C174.007 40.5603 174.117 37.8653 174.117 36.5453C174.117 33.1353 170.212 34.8953 169.222 31.5953C168.837 30.1653 168.672 28.2403 168.672 26.7003C168.672 23.0703 169.222 23.1253 172.467 23.1253C173.237 23.1253 173.842 23.0153 173.897 22.1903L174.172 18.1753C174.282 16.5253 171.147 17.1303 168.837 17.1303C168.287 17.1303 168.232 16.9653 168.067 16.5253C167.077 14.1053 161.357 12.9503 161.357 9.48532C161.357 8.38532 162.127 7.50532 163.227 7.50532C166.362 7.50532 166.967 12.4553 171.752 12.4553C174.062 12.4553 175.932 10.5303 175.932 8.22032C175.932 5.85532 173.842 1.12532 164.877 1.12532C159.377 1.12532 152.612 3.32532 152.612 9.87032C152.612 13.3353 154.702 15.3703 154.702 16.4153C154.702 17.3503 153.822 17.4053 153.162 17.4603C151.512 17.5703 151.842 18.0653 151.842 22.4103C151.842 23.4003 153.547 23.1253 154.207 23.1253C155.967 23.1253 156.517 24.0053 156.407 25.7103L155.967 31.6503ZM192.008 40.7253C200.093 40.7253 209.773 35.2253 209.773 26.2053C209.773 19.3853 204.273 11.8503 194.648 11.8503C185.573 11.8503 176.938 17.4053 176.938 27.2503C176.938 35.9403 183.868 40.7253 192.008 40.7253ZM197.123 30.3853C197.123 32.1453 196.683 33.9053 194.593 33.7953C190.798 33.5753 189.808 25.1053 189.588 21.6403C189.478 20.0453 190.468 18.3403 192.283 18.3403C196.023 18.3403 197.123 27.9103 197.123 30.3853ZM215.043 26.5903C215.043 28.1303 214.878 31.2653 214.438 32.6403C213.833 34.5653 211.303 34.5653 211.303 36.8753C211.303 40.6703 218.783 40.5603 221.313 40.5603C227.363 40.5603 232.203 40.2853 232.203 36.8203C232.203 33.5203 228.023 35.0053 227.693 32.5853C227.418 30.4953 227.253 28.1853 227.253 26.5353C227.253 25.5453 226.978 21.8603 228.518 21.8603C229.948 21.8603 230.938 24.9953 234.513 24.9953C238.143 24.9953 241.278 22.0803 241.278 18.3953C241.278 14.7653 238.858 12.0153 235.173 12.0153C230.443 12.0153 229.618 16.3603 228.298 16.3603C227.363 16.3603 227.418 15.0953 227.363 14.4353C227.143 12.5653 227.088 12.0153 224.998 12.0153C224.503 12.0153 211.633 13.2253 211.633 17.5703C211.633 20.9253 215.043 17.9003 215.043 23.2903V26.5903ZM277.465 31.6503C280.765 39.0753 281.205 38.9653 282.085 39.0753C283.845 39.2953 285.825 33.0253 287.035 30.4953C288.355 27.6903 290.115 22.8503 291.82 22.8503C293.745 22.8503 292.645 32.3103 292.425 33.2453C292.04 35.0053 289.565 35.3353 289.565 37.2603C289.565 40.7803 297.1 40.5603 299.355 40.5603C301.775 40.5603 309.31 40.7253 309.31 37.0403C309.31 34.5653 306.01 35.4453 305.845 31.4303C305.625 26.3153 305.295 20.2653 305.295 19.4403C305.295 16.9653 305.68 10.4753 306.12 8.93532C306.67 7.06532 309.145 6.62532 309.145 4.42532C309.145 0.960319 303.645 0.795322 301.225 0.795322C293.965 0.795322 293.91 2.44532 291.105 7.61532C289.125 11.2453 286.87 17.9003 285.165 17.5153C282.745 16.9653 279.335 7.94532 277.41 4.70032C275.76 1.89532 275.87 0.795322 269.435 0.795322C265.035 0.795322 259.92 1.56532 259.92 4.70032C259.92 6.95532 263.055 7.34032 263.605 8.49532C264.21 9.76032 264.43 11.4653 264.43 14.7653C264.43 22.7403 263.935 27.8553 263.495 32.4753C263.055 36.9853 259.755 34.4003 259.755 37.5353C259.755 40.3953 264.76 40.5603 266.685 40.5603C268.83 40.5603 274.715 40.4503 274.715 37.3153C274.715 34.3453 271.195 37.0953 271.195 31.2103C271.195 29.3953 270.645 22.1353 272.35 22.1353C273.34 22.1353 273.945 23.7853 274.275 24.5003L277.465 31.6503ZM326.619 14.1053C326.619 12.7303 326.454 12.0153 324.914 12.0153C324.474 12.0153 310.614 12.1803 310.614 15.7003C310.614 19.3303 314.409 15.6453 314.409 24.0603C314.409 32.3103 313.529 40.5603 323.979 40.5603C326.399 40.5603 328.159 39.7353 329.479 38.9103C330.799 38.0853 331.679 37.2603 332.284 37.2603C334.484 37.2603 331.679 40.5603 335.914 40.5603C338.939 40.5603 348.674 39.5153 348.674 35.7753C348.674 33.1353 345.649 34.6753 345.649 31.3753V20.3203C345.649 18.5603 345.759 16.8553 345.759 15.0953C345.759 13.1703 344.934 12.0153 342.954 12.0153C340.864 12.0153 329.809 12.5653 329.809 15.8103C329.809 18.1203 332.504 17.1853 332.944 19.9353C333.219 21.6953 333.164 24.0603 333.164 25.8753C333.164 28.5153 333.714 33.6853 329.754 33.6853C326.784 33.6853 326.619 30.2753 326.619 28.0753V14.1053ZM361.814 11.8503C356.149 11.8503 351.639 15.3153 351.639 20.8153C351.639 29.8903 362.419 30.2753 362.419 33.5203C362.419 34.7303 361.374 35.2803 360.274 35.2803C357.194 35.2803 354.994 29.8353 352.574 29.8353C350.979 29.8353 350.484 30.9903 350.484 32.4203C350.484 34.5103 351.859 37.6453 353.234 39.1853C354.004 40.0653 354.554 40.2303 355.654 40.2303C356.039 40.2303 356.369 40.1753 356.699 40.1203C357.084 40.0653 357.414 40.0103 357.799 40.0103C358.129 40.0103 359.339 40.1753 360.714 40.3403C362.089 40.5603 363.684 40.7253 364.784 40.7253C370.504 40.7253 375.509 37.1503 375.509 31.9803C375.509 23.4553 363.409 22.7953 363.409 19.2753C363.409 18.2303 364.399 17.4053 365.389 17.4053C367.809 17.4053 369.569 21.7503 372.704 21.7503C374.134 21.7503 375.399 20.6503 375.399 19.1653C375.399 16.9103 372.869 11.8503 370.339 11.8503C369.844 11.8503 369.349 12.0153 368.854 12.1803C368.359 12.4003 367.919 12.5653 367.369 12.5653C366.984 12.5653 366.104 12.4003 365.114 12.1803C364.069 12.0153 362.914 11.8503 361.814 11.8503ZM393.548 14.4353C393.548 13.2803 393.493 12.0153 391.843 12.0153C391.293 12.0153 377.323 13.6653 377.323 17.5703C377.323 20.0453 380.128 19.4403 380.623 21.3653C381.228 23.4003 381.118 31.3753 380.403 33.3003C379.743 35.0053 377.488 35.1153 377.488 37.0953C377.488 38.4153 377.873 40.5603 387.333 40.5603C389.808 40.5603 396.793 40.5603 396.793 36.8203C396.793 33.9053 393.548 36.2703 393.548 29.7803V14.4353ZM393.273 4.86532C393.273 2.11532 390.138 1.40032 387.938 1.40032C385.133 1.40032 377.873 2.88532 377.873 6.51532C377.873 9.21032 380.348 10.2553 382.658 10.2553C385.793 10.2553 393.273 9.15532 393.273 4.86532ZM398.333 26.2053C398.333 34.6203 405.043 40.7253 413.348 40.7253C421.048 40.7253 425.998 36.5453 425.998 33.3003C425.998 31.9803 425.008 30.3303 423.523 30.3303C422.368 30.3303 421.213 31.7603 417.748 31.7603C413.403 31.7603 410.378 27.6353 410.378 23.5653C410.378 21.3653 411.698 18.8903 414.118 18.8903C418.463 18.8903 415.713 25.7103 421.653 25.7103C424.733 25.7103 427.043 23.3453 427.043 20.2653C427.043 16.4153 422.698 11.8503 414.448 11.8503C405.208 11.8503 398.333 18.2853 398.333 26.2053Z" fill="#F15A29"/>
</svg>
