<svg width="212" height="27" viewBox="0 0 212 27" fill="none" xmlns="http://www.w3.org/2000/svg">
<path d="M0.744859 13.5459C0.744859 20.7819 6.93686 26.7579 14.4969 26.7579C18.7449 26.7579 21.2649 24.6699 22.4889 24.6699C24.2889 24.6699 25.9449 21.3579 25.9449 19.7739C25.9449 18.8739 25.4409 17.6499 24.3969 17.6499C23.2809 17.6499 22.5969 20.1339 18.0249 20.1339C12.9849 20.1339 10.1409 15.5979 10.1409 10.2699C10.1409 8.28991 11.2929 5.6979 14.0649 5.6979C20.4729 5.6979 19.5369 12.0699 23.2449 12.0699C25.3689 12.0699 26.5929 10.3419 26.5929 8.28991C26.5929 4.29391 24.6489 2.0259 23.1369 2.0259C22.5249 2.0259 22.3089 2.27791 21.5169 2.27791C20.5809 2.27791 18.3129 0.513905 14.7849 0.513905C7.69286 0.513905 0.744859 6.16591 0.744859 13.5459ZM37.6038 26.7579C42.8958 26.7579 49.2318 23.1579 49.2318 17.2539C49.2318 12.7899 45.6318 7.8579 39.3318 7.8579C33.3918 7.8579 27.7398 11.4939 27.7398 17.9379C27.7398 23.6259 32.2758 26.7579 37.6038 26.7579ZM40.9518 19.9899C40.9518 21.1419 40.6638 22.2939 39.2958 22.2219C36.8118 22.0779 36.1638 16.5339 36.0198 14.2659C35.9478 13.2219 36.5958 12.1059 37.7838 12.1059C40.2318 12.1059 40.9518 18.3699 40.9518 19.9899ZM60.601 17.4699C60.601 15.8499 60.385 13.3659 62.689 13.3659C66.073 13.3659 65.065 19.1259 64.885 21.6819C64.705 24.0219 63.517 23.4099 63.517 24.7059C63.517 26.7219 66.973 26.6499 68.269 26.6499C75.037 26.6499 74.893 25.1379 74.893 24.4899C74.893 22.9419 73.417 23.5899 73.237 20.7459C72.877 15.2739 74.137 7.96591 66.685 7.96591C64.633 7.96591 63.553 8.72191 62.833 9.44191C62.113 10.1979 61.789 10.9539 61.213 10.9539C60.673 10.9539 60.493 10.4499 60.493 10.0179C60.493 9.80191 60.529 9.58591 60.529 9.36991C60.529 8.64991 60.025 7.96591 59.233 7.96591C58.513 7.96591 50.233 9.76591 50.233 11.6739C50.233 13.5819 52.429 12.7179 52.357 15.3819L52.213 20.7819C52.105 24.3099 50.449 22.7619 50.449 24.4899C50.449 26.6499 54.121 26.6499 55.561 26.6499C57.037 26.6499 61.825 26.7219 61.825 24.4899C61.825 23.1219 60.601 23.7339 60.601 20.2419V17.4699ZM86.9199 13.1139C86.9199 11.8179 86.9919 11.7819 88.2519 11.7819H90.7359C92.1399 11.7819 92.3919 11.6379 92.3919 9.58591C92.3919 7.96591 92.3919 7.8579 90.8439 7.8579H88.3239C87.3879 7.8579 87.1359 7.8579 87.0279 7.5699C86.8479 7.13791 86.9199 6.0219 86.9199 4.9059C86.9199 3.2499 86.8479 3.3939 85.4079 3.3939C84.3279 3.3939 84.3639 3.28591 83.5359 3.78991L75.3279 9.00991C74.8959 9.29791 75.0039 9.69391 75.0039 10.1979C75.0039 11.0259 74.9319 11.3859 75.1839 11.6379C75.3639 11.8179 75.8319 11.7819 76.7679 11.7819C77.5959 11.7819 77.9919 11.7099 78.1719 11.8179C78.3519 11.9259 78.3519 12.1779 78.3519 12.8259V20.2419C78.3519 25.9659 82.9599 26.7579 84.7959 26.7579C88.4319 26.7579 92.5359 24.6699 92.5359 22.2939C92.5359 21.6459 92.0319 20.6379 91.3119 20.6379C90.6639 20.6379 90.0159 21.4659 88.8999 21.4659C87.9279 21.4659 86.9199 20.8899 86.9199 18.4779V13.1139ZM102.843 18.5139C103.851 18.5139 103.815 19.4139 103.815 20.2059C103.815 21.2859 103.707 22.7619 102.339 22.7619C101.295 22.7619 100.791 21.7539 100.791 20.8179C100.791 19.6659 101.619 18.5139 102.843 18.5139ZM111.591 14.0499C111.591 8.64991 105.975 7.8579 103.923 7.8579C100.503 7.8579 94.4188 9.83791 94.4188 12.8979C94.4188 14.0499 95.2828 14.8779 96.4348 14.8779C99.6388 14.8779 99.8548 10.9899 102.015 10.9899C103.671 10.9899 103.707 13.4739 103.707 14.6619C103.707 15.9579 103.203 15.8859 102.087 15.8859C95.7508 15.8859 93.3028 19.0539 93.3028 21.6099C93.3028 25.1739 96.2908 26.7579 99.2788 26.7579C100.935 26.7579 102.015 26.2899 102.807 25.8219C103.599 25.3899 104.067 24.9219 104.499 24.9219C105.399 24.9219 105.471 26.7579 108.315 26.7579C110.943 26.7579 113.751 24.5259 113.751 22.4739C113.751 20.5299 111.591 23.9859 111.591 17.6499V14.0499ZM114.856 17.2539C114.856 22.7619 119.248 26.7579 124.684 26.7579C129.724 26.7579 132.964 24.0219 132.964 21.8979C132.964 21.0339 132.316 19.9539 131.344 19.9539C130.588 19.9539 129.832 20.8899 127.564 20.8899C124.72 20.8899 122.74 18.1899 122.74 15.5259C122.74 14.0859 123.604 12.4659 125.188 12.4659C128.032 12.4659 126.232 16.9299 130.12 16.9299C132.136 16.9299 133.648 15.3819 133.648 13.3659C133.648 10.8459 130.804 7.8579 125.404 7.8579C119.356 7.8579 114.856 12.0699 114.856 17.2539ZM145.807 13.1139C145.807 11.8179 145.879 11.7819 147.139 11.7819H149.623C151.027 11.7819 151.279 11.6379 151.279 9.58591C151.279 7.96591 151.279 7.8579 149.731 7.8579H147.211C146.275 7.8579 146.023 7.8579 145.915 7.5699C145.735 7.13791 145.807 6.0219 145.807 4.9059C145.807 3.2499 145.735 3.3939 144.295 3.3939C143.215 3.3939 143.251 3.28591 142.423 3.78991L134.215 9.00991C133.783 9.29791 133.891 9.69391 133.891 10.1979C133.891 11.0259 133.819 11.3859 134.071 11.6379C134.251 11.8179 134.719 11.7819 135.655 11.7819C136.483 11.7819 136.879 11.7099 137.059 11.8179C137.239 11.9259 137.239 12.1779 137.239 12.8259V20.2419C137.239 25.9659 141.847 26.7579 143.683 26.7579C147.319 26.7579 151.423 24.6699 151.423 22.2939C151.423 21.6459 150.919 20.6379 150.199 20.6379C149.551 20.6379 148.903 21.4659 147.787 21.4659C146.815 21.4659 145.807 20.8899 145.807 18.4779V13.1139ZM185.685 16.2099C185.685 16.6059 185.937 21.3219 180.249 21.3219C176.433 21.3219 174.813 18.5859 174.813 14.3019V7.67791C174.993 3.28591 177.621 5.6979 177.621 3.10591C177.621 1.7019 176.433 0.621906 170.565 0.621906C163.149 0.621906 163.545 2.63791 163.545 3.14191C163.545 4.79791 165.993 4.79791 165.849 7.0659V15.3819C165.849 15.8139 164.265 26.7579 178.449 26.7579C190.905 26.7579 190.869 18.1179 190.869 16.4979V6.77791C190.869 3.50191 193.569 4.7259 193.569 2.7099C193.569 0.621906 189.609 0.621906 188.241 0.621906C186.765 0.621906 182.589 0.549905 182.589 2.78191C182.589 4.8699 185.685 3.3939 185.685 7.24591V16.2099ZM202.328 7.8579C198.62 7.8579 195.668 10.1259 195.668 13.7259C195.668 19.6659 202.724 19.9179 202.724 22.0419C202.724 22.8339 202.04 23.1939 201.32 23.1939C199.304 23.1939 197.864 19.6299 196.28 19.6299C195.236 19.6299 194.912 20.3859 194.912 21.3219C194.912 22.6899 195.812 24.7419 196.712 25.7499C197.216 26.3259 197.576 26.4339 198.296 26.4339C198.548 26.4339 198.764 26.3979 198.98 26.3619C199.232 26.3259 199.448 26.2899 199.7 26.2899C199.916 26.2899 200.708 26.3979 201.608 26.5059C202.508 26.6499 203.552 26.7579 204.272 26.7579C208.016 26.7579 211.292 24.4179 211.292 21.0339C211.292 15.4539 203.372 15.0219 203.372 12.7179C203.372 12.0339 204.02 11.4939 204.668 11.4939C206.252 11.4939 207.404 14.3379 209.456 14.3379C210.392 14.3379 211.22 13.6179 211.22 12.6459C211.22 11.1699 209.564 7.8579 207.908 7.8579C207.584 7.8579 207.26 7.96591 206.936 8.07391C206.612 8.2179 206.324 8.32591 205.964 8.32591C205.712 8.32591 205.136 8.2179 204.488 8.07391C203.804 7.96591 203.048 7.8579 202.328 7.8579Z" fill="#603913"/>
</svg>
