<svg width="152" height="25" viewBox="0 0 152 25" fill="none" xmlns="http://www.w3.org/2000/svg">
<path d="M0.697016 12.2607C0.697016 18.7925 6.28642 24.1869 13.1107 24.1869C16.9453 24.1869 19.22 22.3021 20.3249 22.3021C21.9497 22.3021 23.4446 19.3124 23.4446 17.8826C23.4446 17.0701 22.9896 15.9653 22.0472 15.9653C21.0398 15.9653 20.4224 18.2075 16.2953 18.2075C11.7458 18.2075 9.17861 14.113 9.17861 9.30348C9.17861 7.51617 10.2185 5.17642 12.7207 5.17642C18.5051 5.17642 17.6602 10.9283 21.0073 10.9283C22.9246 10.9283 24.0295 9.36847 24.0295 7.51617C24.0295 3.90905 22.2747 1.86177 20.9099 1.86177C20.3574 1.86177 20.1624 2.08925 19.4475 2.08925C18.6026 2.08925 16.5553 0.496917 13.3707 0.496917C6.96885 0.496917 0.697016 5.59887 0.697016 12.2607ZM33.9689 24.1869C38.7459 24.1869 44.4653 20.9372 44.4653 15.6078C44.4653 11.5782 41.2156 7.12621 35.5287 7.12621C30.1668 7.12621 25.0648 10.4084 25.0648 16.2252C25.0648 21.3597 29.1594 24.1869 33.9689 24.1869ZM36.9911 18.0775C36.9911 19.1174 36.7311 20.1573 35.4962 20.0923C33.254 19.9623 32.669 14.9579 32.539 12.9106C32.474 11.9682 33.059 10.9608 34.1314 10.9608C36.3411 10.9608 36.9911 16.6152 36.9911 18.0775ZM54.7281 15.8028C54.7281 14.3404 54.5331 12.0982 56.6129 12.0982C59.6675 12.0982 58.7576 17.2976 58.5952 19.6049C58.4327 21.7171 57.3603 21.1647 57.3603 22.3346C57.3603 24.1544 60.48 24.0894 61.6498 24.0894C67.7592 24.0894 67.6292 22.7245 67.6292 22.1396C67.6292 20.7423 66.2968 21.3272 66.1344 18.76C65.8094 13.8205 66.9468 7.2237 60.22 7.2237C58.3677 7.2237 57.3928 7.90613 56.7429 8.55606C56.0929 9.23848 55.8005 9.92091 55.2805 9.92091C54.7931 9.92091 54.6306 9.46596 54.6306 9.076C54.6306 8.88102 54.6631 8.68604 54.6631 8.49106C54.6631 7.84113 54.2081 7.2237 53.4932 7.2237C52.8433 7.2237 45.3691 8.84852 45.3691 10.5708C45.3691 12.2932 47.3514 11.5132 47.2864 13.918L47.1564 18.7925C47.0589 21.9771 45.5641 20.5798 45.5641 22.1396C45.5641 24.0894 48.8787 24.0894 50.1786 24.0894C51.5109 24.0894 55.833 24.1544 55.833 22.1396C55.833 20.9047 54.7281 21.4572 54.7281 18.305V15.8028ZM77.6407 15.8028C77.6407 14.3404 77.4457 12.0982 79.5255 12.0982C82.5801 12.0982 81.6702 17.2976 81.5077 19.6049C81.3453 21.7171 80.2729 21.1647 80.2729 22.3346C80.2729 24.1544 83.3925 24.0894 84.5624 24.0894C90.6718 24.0894 90.5418 22.7245 90.5418 22.1396C90.5418 20.7423 89.2094 21.3272 89.0469 18.76C88.722 13.8205 89.8594 7.2237 83.1326 7.2237C81.2803 7.2237 80.3054 7.90613 79.6554 8.55606C79.0055 9.23848 78.713 9.92091 78.1931 9.92091C77.7057 9.92091 77.5432 9.46596 77.5432 9.076C77.5432 8.88102 77.5757 8.68604 77.5757 8.49106C77.5757 7.84113 77.1207 7.2237 76.4058 7.2237C75.7559 7.2237 68.2817 8.84852 68.2817 10.5708C68.2817 12.2932 70.2639 11.5132 70.199 13.918L70.069 18.7925C69.9715 21.9771 68.4766 20.5798 68.4766 22.1396C68.4766 24.0894 71.7913 24.0894 73.0911 24.0894C74.4235 24.0894 78.7455 24.1544 78.7455 22.1396C78.7455 20.9047 77.6407 21.4572 77.6407 18.305V15.8028ZM106.5 16.2577C107.54 16.2577 108.515 15.9653 108.515 13.8205C108.515 11.3833 106.078 7.12621 100.553 7.12621C95.6788 7.12621 91.4217 10.7658 91.4217 15.7703C91.4217 19.9623 94.4439 24.1869 100.293 24.1869C103.218 24.1869 107.8 22.3671 107.8 19.8648C107.8 19.2474 107.215 18.24 106.533 18.24C105.85 18.24 104.648 19.7024 102.211 19.7024C100.683 19.7024 98.571 18.3375 98.571 16.7127C98.571 16.1602 99.0909 16.2577 99.4484 16.2577H106.5ZM100.358 13.1381C99.5134 13.1381 98.4085 13.398 98.4085 12.2282C98.4085 11.1883 99.2859 10.0834 100.358 10.0834C101.561 10.0834 102.276 10.9933 102.276 12.1632C102.276 13.333 101.236 13.1381 100.358 13.1381ZM109.511 15.6078C109.511 20.5798 113.475 24.1869 118.382 24.1869C122.932 24.1869 125.856 21.7171 125.856 19.7999C125.856 19.0199 125.271 18.045 124.394 18.045C123.712 18.045 123.029 18.89 120.982 18.89C118.415 18.89 116.627 16.4527 116.627 14.048C116.627 12.7481 117.407 11.2858 118.837 11.2858C121.404 11.2858 119.78 15.3153 123.289 15.3153C125.109 15.3153 126.474 13.918 126.474 12.0982C126.474 9.82342 123.907 7.12621 119.032 7.12621C113.573 7.12621 109.511 10.9283 109.511 15.6078ZM137.449 11.8707C137.449 10.7008 137.514 10.6683 138.651 10.6683H140.894C142.161 10.6683 142.388 10.5383 142.388 8.68604C142.388 7.2237 142.388 7.12621 140.991 7.12621H138.716C137.871 7.12621 137.644 7.12621 137.546 6.86624C137.384 6.47628 137.449 5.46889 137.449 4.46149C137.449 2.96665 137.384 3.09664 136.084 3.09664C135.109 3.09664 135.142 2.99915 134.394 3.4541L126.985 8.1661C126.595 8.42607 126.693 8.78353 126.693 9.23848C126.693 9.9859 126.628 10.3109 126.855 10.5383C127.018 10.7008 127.44 10.6683 128.285 10.6683C129.032 10.6683 129.39 10.6033 129.552 10.7008C129.715 10.7983 129.715 11.0258 129.715 11.6107V18.305C129.715 23.472 133.874 24.1869 135.532 24.1869C138.814 24.1869 142.518 22.3021 142.518 20.1573C142.518 19.5724 142.064 18.6625 141.414 18.6625C140.829 18.6625 140.244 19.4099 139.236 19.4099C138.359 19.4099 137.449 18.89 137.449 16.7127V11.8707ZM151.79 10.6033C151.79 8.42607 150.035 6.67126 147.858 6.67126C145.681 6.67126 143.926 8.42607 143.926 10.6033C143.926 12.7806 145.681 14.5354 147.858 14.5354C150.035 14.5354 151.79 12.7806 151.79 10.6033ZM151.79 20.2548C151.79 18.0775 150.035 16.3227 147.858 16.3227C145.681 16.3227 143.926 18.0775 143.926 20.2548C143.926 22.4321 145.681 24.1869 147.858 24.1869C150.035 24.1869 151.79 22.4321 151.79 20.2548Z" fill="#603913"/>
</svg>
