<svg width="447" height="188" viewBox="0 0 447 188" fill="none" xmlns="http://www.w3.org/2000/svg">
<path d="M132.095 28.6945C132.875 30.5143 133.568 31.6841 135.735 31.6841C138.205 31.6841 139.201 29.431 140.111 27.0913L147.564 7.59338C148.733 4.56037 150.553 5.12364 150.553 3.00053C150.553 0.574127 147.304 0.357484 145.527 0.357484C143.751 0.357484 139.331 0.227497 139.331 2.87055C139.331 5.25363 142.147 4.30039 142.147 6.16353C142.147 6.77013 140.284 14.136 138.811 14.136C137.771 14.136 136.818 11.4496 136.515 10.7564C136.081 9.80314 134.608 7.11676 134.608 5.94689C134.608 4.86367 136.558 4.47371 136.558 3.04386C136.558 2.30727 136.731 0.357484 128.326 0.357484C119.27 0.357484 119.877 2.95721 119.877 3.21718C119.877 4.30039 120.613 4.907 121.48 5.34028C122.78 6.07687 123.689 8.76325 123.689 9.15321C123.689 9.45651 123.256 10.5831 123.126 10.843C122.91 11.493 122 14.6126 120.873 14.6126C119.877 14.6126 118.923 11.5796 118.707 10.8864C118.533 10.3664 117.19 7.20342 117.19 5.94689C117.19 4.6037 118.187 4.43038 118.187 3.13052C118.187 1.35404 117.103 0.357484 110.778 0.357484C108.784 0.357484 102.935 0.44414 102.935 3.43382C102.935 6.07687 104.668 4.47371 105.881 7.59338L113.94 28.1745C114.72 30.1676 115.37 31.6841 117.797 31.6841C120.613 31.6841 121.046 30.081 121.956 27.8279L124.599 21.2852C125.726 18.5122 126.029 17.3857 126.852 17.3857C127.546 17.3857 127.892 18.7289 128.109 19.2055L132.095 28.6945ZM158.776 21.8918C159.989 21.8918 159.945 22.9751 159.945 23.9283C159.945 25.2282 159.815 27.0046 158.169 27.0046C156.912 27.0046 156.306 25.7914 156.306 24.6649C156.306 23.2784 157.302 21.8918 158.776 21.8918ZM169.304 16.5191C169.304 10.0198 162.545 9.06655 160.075 9.06655C155.959 9.06655 148.637 11.4496 148.637 15.1326C148.637 16.5191 149.677 17.5156 151.063 17.5156C154.919 17.5156 155.179 12.8361 157.779 12.8361C159.772 12.8361 159.815 15.8258 159.815 17.2557C159.815 18.8155 159.209 18.7289 157.866 18.7289C150.24 18.7289 147.293 22.5418 147.293 25.6181C147.293 29.9077 150.89 31.8141 154.486 31.8141C156.479 31.8141 157.779 31.2508 158.732 30.6876C159.685 30.1676 160.249 29.6044 160.769 29.6044C161.852 29.6044 161.939 31.8141 165.361 31.8141C168.524 31.8141 171.904 29.1277 171.904 26.658C171.904 24.3183 169.304 28.4778 169.304 20.852V16.5191ZM186.536 15.3925C186.536 13.8327 186.623 13.7894 188.14 13.7894H191.129C192.819 13.7894 193.122 13.6161 193.122 11.1463C193.122 9.19654 193.122 9.06655 191.259 9.06655H188.226C187.1 9.06655 186.796 9.06655 186.666 8.71992C186.45 8.19998 186.536 6.85679 186.536 5.5136C186.536 3.52048 186.45 3.69379 184.717 3.69379C183.417 3.69379 183.46 3.56381 182.463 4.17041L172.585 10.4531C172.065 10.7997 172.195 11.2763 172.195 11.8829C172.195 12.8795 172.108 13.3128 172.411 13.6161C172.628 13.8327 173.191 13.7894 174.318 13.7894C175.314 13.7894 175.791 13.7027 176.008 13.8327C176.224 13.9627 176.224 14.266 176.224 15.0459V23.9716C176.224 30.8609 181.77 31.8141 183.98 31.8141C188.356 31.8141 193.296 29.3011 193.296 26.4414C193.296 25.6614 192.689 24.4482 191.822 24.4482C191.043 24.4482 190.263 25.4448 188.919 25.4448C187.75 25.4448 186.536 24.7515 186.536 21.8485V15.3925ZM194.349 20.3753C194.349 27.0046 199.635 31.8141 206.177 31.8141C212.243 31.8141 216.143 28.5211 216.143 25.9647C216.143 24.9249 215.363 23.625 214.193 23.625C213.283 23.625 212.373 24.7515 209.644 24.7515C206.221 24.7515 203.838 21.5019 203.838 18.2956C203.838 16.5624 204.878 14.6126 206.784 14.6126C210.207 14.6126 208.041 19.9854 212.72 19.9854C215.147 19.9854 216.966 18.1223 216.966 15.6958C216.966 12.6628 213.543 9.06655 207.044 9.06655C199.765 9.06655 194.349 14.136 194.349 20.3753ZM245.725 17.7756C245.682 16.5624 246.245 9.06655 238.273 9.06655C233.42 9.06655 232.856 12.9228 231.557 12.9228C230.43 12.9228 230.473 11.5363 230.517 10.713L230.777 2.48059C230.777 1.22406 230.69 0.834099 229.39 0.834099C229.347 0.834099 218.081 1.744 218.081 5.2103C218.081 7.24675 220.681 6.16353 220.768 9.23987C220.811 11.1897 220.941 13.1828 220.941 15.1326C220.941 17.5156 220.941 23.235 220.421 25.2715C219.685 28.0879 217.995 27.3079 217.995 29.0411C217.995 30.3843 219.425 31.6841 225.621 31.6841C227.267 31.6841 232.207 31.6408 232.207 29.1277C232.207 27.5679 230.473 28.3045 230.473 24.7082V19.6821C230.473 17.7323 230.387 15.4792 233.03 15.4792C236.106 15.4792 236.149 19.5521 236.149 21.7185C236.149 23.1484 236.106 24.6649 235.846 26.0514C235.5 28.2612 234.286 28.2178 234.286 29.4744C234.286 31.6841 239.529 31.6841 240.872 31.6841C242.475 31.6841 248.022 31.7275 248.022 29.2144C248.022 27.5246 245.898 28.4345 245.898 24.7515L245.725 17.7756ZM274.769 31.8141C281.139 31.8141 288.764 27.4813 288.764 20.3753C288.764 15.0026 284.432 9.06655 276.849 9.06655C269.7 9.06655 262.897 13.4428 262.897 21.1986C262.897 28.0445 268.357 31.8141 274.769 31.8141ZM278.799 23.6683C278.799 25.0548 278.452 26.4414 276.806 26.3547C273.816 26.1814 273.036 19.5088 272.863 16.7791C272.776 15.5225 273.556 14.1793 274.986 14.1793C277.932 14.1793 278.799 21.7185 278.799 23.6683ZM302.578 10.843C302.578 9.75981 302.448 9.19654 301.235 9.19654C300.888 9.19654 289.969 9.32653 289.969 12.0996C289.969 14.9593 292.959 12.0562 292.959 18.6855C292.959 25.1848 292.266 31.6841 300.498 31.6841C302.405 31.6841 303.791 31.0342 304.831 30.3843C305.871 29.7343 306.564 29.0844 307.041 29.0844C308.774 29.0844 306.564 31.6841 309.901 31.6841C312.284 31.6841 319.953 30.8609 319.953 27.9145C319.953 25.8348 317.57 27.048 317.57 24.4482V15.7392C317.57 14.3527 317.656 13.0095 317.656 11.6229C317.656 10.1064 317.007 9.19654 315.447 9.19654C313.8 9.19654 305.091 9.62983 305.091 12.1862C305.091 14.006 307.214 13.2694 307.561 15.4359C307.778 16.8224 307.734 18.6855 307.734 20.1154C307.734 22.1951 308.167 26.268 305.048 26.268C302.708 26.268 302.578 23.5817 302.578 21.8485V10.843ZM323.762 20.6786C323.762 21.8918 323.632 24.3616 323.285 25.4448C322.809 26.9613 320.816 26.9613 320.816 28.7811C320.816 31.7708 326.708 31.6841 328.702 31.6841C333.468 31.6841 337.281 31.4675 337.281 28.7378C337.281 26.1381 333.988 27.3079 333.728 25.4015C333.511 23.755 333.381 21.9352 333.381 20.6353C333.381 19.8554 333.164 16.9524 334.378 16.9524C335.504 16.9524 336.284 19.4221 339.1 19.4221C341.96 19.4221 344.43 17.1257 344.43 14.2227C344.43 11.363 342.523 9.19654 339.62 9.19654C335.894 9.19654 335.244 12.6195 334.204 12.6195C333.468 12.6195 333.511 11.6229 333.468 11.103C333.294 9.62983 333.251 9.19654 331.605 9.19654C331.215 9.19654 321.076 10.1498 321.076 13.5727C321.076 16.2158 323.762 13.8327 323.762 18.0789V20.6786ZM13.5196 63.103C13.5196 62.1931 13.4763 61.1965 12.1764 61.1965C11.7432 61.1965 0.737669 62.4964 0.737669 65.5727C0.737669 67.5225 2.94743 67.0459 3.33739 68.5624C3.81401 70.1656 3.72735 76.4482 3.16408 77.9647C2.64413 79.3079 0.867655 79.3946 0.867655 80.9544C0.867655 81.9943 1.17096 83.6841 8.62349 83.6841C10.5733 83.6841 16.076 83.6841 16.076 80.7378C16.076 78.4414 13.5196 80.3045 13.5196 75.1917V63.103ZM13.303 55.5638C13.303 53.3974 10.8333 52.8341 9.10011 52.8341C6.89035 52.8341 1.17096 54.004 1.17096 56.8637C1.17096 58.9868 3.12075 59.81 4.94055 59.81C7.41029 59.81 13.303 58.9434 13.303 55.5638ZM29.4646 72.6353C29.4646 70.6855 29.2046 67.6958 31.9777 67.6958C36.0506 67.6958 34.8374 74.6284 34.6207 77.7048C34.4041 80.5211 32.9742 79.7846 32.9742 81.3444C32.9742 83.7708 37.1338 83.6841 38.6936 83.6841C46.8394 83.6841 46.6661 81.8643 46.6661 81.0844C46.6661 79.2213 44.8896 80.0012 44.673 76.5782C44.2397 69.9923 45.7562 61.1965 36.7871 61.1965C34.3174 61.1965 33.0176 62.1064 32.151 62.973C31.2844 63.8829 30.8944 64.7928 30.2012 64.7928C29.5513 64.7928 29.3346 64.1862 29.3346 63.6663C29.3346 63.4063 29.3779 63.1463 29.3779 62.8864C29.3779 62.0198 28.7713 61.1965 27.8181 61.1965C26.9515 61.1965 16.9859 63.363 16.9859 65.6594C16.9859 67.9558 19.629 66.9159 19.5423 70.1223L19.369 76.6216C19.239 80.8678 17.2459 79.0046 17.2459 81.0844C17.2459 83.6841 21.6654 83.6841 23.3986 83.6841C25.1751 83.6841 30.9378 83.7708 30.9378 81.0844C30.9378 79.4379 29.4646 80.1745 29.4646 75.9716V72.6353ZM57.025 61.0666C52.5622 61.0666 49.0092 63.7963 49.0092 68.1291C49.0092 75.2784 57.5017 75.5817 57.5017 78.1381C57.5017 79.0913 56.6784 79.5246 55.8118 79.5246C53.3854 79.5246 51.6523 75.235 49.7458 75.235C48.4893 75.235 48.0993 76.1449 48.0993 77.2715C48.0993 78.918 49.1825 81.3877 50.2658 82.6009C50.8724 83.2942 51.3056 83.4242 52.1722 83.4242C52.4755 83.4242 52.7355 83.3808 52.9955 83.3375C53.2988 83.2942 53.5587 83.2508 53.862 83.2508C54.122 83.2508 55.0752 83.3808 56.1585 83.5108C57.2417 83.6841 58.4982 83.8141 59.3648 83.8141C63.871 83.8141 67.8139 80.9978 67.8139 76.9249C67.8139 70.2089 58.2816 69.689 58.2816 66.9159C58.2816 66.0927 59.0615 65.4428 59.8414 65.4428C61.7479 65.4428 63.1344 68.8657 65.6041 68.8657C66.7307 68.8657 67.7272 67.9991 67.7272 66.8293C67.7272 65.0528 65.7341 61.0666 63.741 61.0666C63.351 61.0666 62.9611 61.1965 62.5711 61.3265C62.1812 61.4998 61.8345 61.6298 61.4012 61.6298C61.0979 61.6298 60.4047 61.4998 59.6248 61.3265C58.8015 61.1965 57.8916 61.0666 57.025 61.0666ZM82.8479 67.3925C82.8479 65.8327 82.9346 65.7894 84.4511 65.7894H87.4408C89.1306 65.7894 89.4339 65.6161 89.4339 63.1463C89.4339 61.1965 89.4339 61.0666 87.5708 61.0666H84.5377C83.4112 61.0666 83.1079 61.0666 82.9779 60.7199C82.7613 60.2 82.8479 58.8568 82.8479 57.5136C82.8479 55.5205 82.7613 55.6938 81.0281 55.6938C79.7283 55.6938 79.7716 55.5638 78.775 56.1704L68.8961 62.4531C68.3761 62.7997 68.5061 63.2763 68.5061 63.8829C68.5061 64.8795 68.4195 65.3128 68.7228 65.6161C68.9394 65.8327 69.5027 65.7894 70.6292 65.7894C71.6258 65.7894 72.1024 65.7027 72.3191 65.8327C72.5357 65.9627 72.5357 66.266 72.5357 67.0459V75.9716C72.5357 82.8609 78.0818 83.8141 80.2915 83.8141C84.6677 83.8141 89.6072 81.3011 89.6072 78.4414C89.6072 77.6614 89.0006 76.4482 88.134 76.4482C87.3541 76.4482 86.5742 77.4448 85.231 77.4448C84.0611 77.4448 82.8479 76.7515 82.8479 73.8485V67.3925ZM93.3033 72.6786C93.3033 73.8918 93.1734 76.3616 92.8267 77.4448C92.3501 78.9613 90.357 78.9613 90.357 80.7811C90.357 83.7708 96.2497 83.6841 98.2428 83.6841C103.009 83.6841 106.822 83.4675 106.822 80.7378C106.822 78.1381 103.529 79.3079 103.269 77.4015C103.052 75.755 102.922 73.9352 102.922 72.6353C102.922 71.8554 102.706 68.9524 103.919 68.9524C105.045 68.9524 105.825 71.4221 108.642 71.4221C111.501 71.4221 113.971 69.1257 113.971 66.2227C113.971 63.363 112.065 61.1965 109.162 61.1965C105.435 61.1965 104.785 64.6195 103.746 64.6195C103.009 64.6195 103.052 63.6229 103.009 63.103C102.836 61.6298 102.792 61.1965 101.146 61.1965C100.756 61.1965 90.617 62.1498 90.617 65.5727C90.617 68.2158 93.3033 65.8327 93.3033 70.0789V72.6786ZM128.227 62.843C128.227 61.7598 128.097 61.1965 126.883 61.1965C126.537 61.1965 115.618 61.3265 115.618 64.0996C115.618 66.9593 118.608 64.0562 118.608 70.6855C118.608 77.1848 117.914 83.6841 126.147 83.6841C128.053 83.6841 129.44 83.0342 130.48 82.3843C131.52 81.7343 132.213 81.0844 132.689 81.0844C134.423 81.0844 132.213 83.6841 135.549 83.6841C137.932 83.6841 145.601 82.8609 145.601 79.9145C145.601 77.8348 143.218 79.048 143.218 76.4482V67.7392C143.218 66.3527 143.305 65.0095 143.305 63.6229C143.305 62.1064 142.655 61.1965 141.095 61.1965C139.449 61.1965 130.74 61.6298 130.74 64.1862C130.74 66.006 132.863 65.2694 133.209 67.4359C133.426 68.8224 133.383 70.6855 133.383 72.1154C133.383 74.1951 133.816 78.268 130.696 78.268C128.357 78.268 128.227 75.5817 128.227 73.8485V62.843ZM146.768 72.3753C146.768 79.0046 152.054 83.8141 158.596 83.8141C164.662 83.8141 168.562 80.5211 168.562 77.9647C168.562 76.9249 167.782 75.625 166.612 75.625C165.702 75.625 164.792 76.7515 162.063 76.7515C158.64 76.7515 156.257 73.5019 156.257 70.2956C156.257 68.5624 157.296 66.6126 159.203 66.6126C162.626 66.6126 160.459 71.9854 165.139 71.9854C167.565 71.9854 169.385 70.1223 169.385 67.6958C169.385 64.6628 165.962 61.0666 159.463 61.0666C152.184 61.0666 146.768 66.136 146.768 72.3753ZM184.019 67.3925C184.019 65.8327 184.105 65.7894 185.622 65.7894H188.612C190.301 65.7894 190.605 65.6161 190.605 63.1463C190.605 61.1965 190.605 61.0666 188.742 61.0666H185.709C184.582 61.0666 184.279 61.0666 184.149 60.7199C183.932 60.2 184.019 58.8568 184.019 57.5136C184.019 55.5205 183.932 55.6938 182.199 55.6938C180.899 55.6938 180.942 55.5638 179.946 56.1704L170.067 62.4531C169.547 62.7997 169.677 63.2763 169.677 63.8829C169.677 64.8795 169.59 65.3128 169.894 65.6161C170.11 65.8327 170.674 65.7894 171.8 65.7894C172.797 65.7894 173.273 65.7027 173.49 65.8327C173.707 65.9627 173.707 66.266 173.707 67.0459V75.9716C173.707 82.8609 179.253 83.8141 181.462 83.8141C185.839 83.8141 190.778 81.3011 190.778 78.4414C190.778 77.6614 190.171 76.4482 189.305 76.4482C188.525 76.4482 187.745 77.4448 186.402 77.4448C185.232 77.4448 184.019 76.7515 184.019 73.8485V67.3925ZM204.31 63.103C204.31 62.1931 204.266 61.1965 202.967 61.1965C202.533 61.1965 191.528 62.4964 191.528 65.5727C191.528 67.5225 193.738 67.0459 194.128 68.5624C194.604 70.1656 194.517 76.4482 193.954 77.9647C193.434 79.3079 191.658 79.3946 191.658 80.9544C191.658 81.9943 191.961 83.6841 199.414 83.6841C201.363 83.6841 206.866 83.6841 206.866 80.7378C206.866 78.4414 204.31 80.3045 204.31 75.1917V63.103ZM204.093 55.5638C204.093 53.3974 201.623 52.8341 199.89 52.8341C197.68 52.8341 191.961 54.004 191.961 56.8637C191.961 58.9868 193.911 59.81 195.731 59.81C198.2 59.81 204.093 58.9434 204.093 55.5638ZM219.995 83.8141C226.364 83.8141 233.99 79.4813 233.99 72.3753C233.99 67.0026 229.657 61.0666 222.075 61.0666C214.925 61.0666 208.123 65.4428 208.123 73.1986C208.123 80.0445 213.582 83.8141 219.995 83.8141ZM224.024 75.6683C224.024 77.0548 223.678 78.4414 222.031 78.3547C219.042 78.1814 218.262 71.5088 218.088 68.7791C218.002 67.5225 218.782 66.1793 220.211 66.1793C223.158 66.1793 224.024 73.7185 224.024 75.6683ZM247.674 72.6353C247.674 70.6855 247.414 67.6958 250.187 67.6958C254.26 67.6958 253.046 74.6284 252.83 77.7048C252.613 80.5211 251.183 79.7846 251.183 81.3444C251.183 83.7708 255.343 83.6841 256.903 83.6841C265.048 83.6841 264.875 81.8643 264.875 81.0844C264.875 79.2213 263.099 80.0012 262.882 76.5782C262.449 69.9923 263.965 61.1965 254.996 61.1965C252.527 61.1965 251.227 62.1064 250.36 62.973C249.493 63.8829 249.104 64.7928 248.41 64.7928C247.76 64.7928 247.544 64.1862 247.544 63.6663C247.544 63.4063 247.587 63.1463 247.587 62.8864C247.587 62.0198 246.98 61.1965 246.027 61.1965C245.161 61.1965 235.195 63.363 235.195 65.6594C235.195 67.9558 237.838 66.9159 237.751 70.1223L237.578 76.6216C237.448 80.8678 235.455 79.0046 235.455 81.0844C235.455 83.6841 239.875 83.6841 241.608 83.6841C243.384 83.6841 249.147 83.7708 249.147 81.0844C249.147 79.4379 247.674 80.1745 247.674 75.9716V72.6353ZM277.401 73.8918C278.614 73.8918 278.57 74.9751 278.57 75.9283C278.57 77.2282 278.44 79.0046 276.794 79.0046C275.537 79.0046 274.931 77.7914 274.931 76.6649C274.931 75.2784 275.927 73.8918 277.401 73.8918ZM287.929 68.5191C287.929 62.0198 281.17 61.0666 278.7 61.0666C274.584 61.0666 267.262 63.4496 267.262 67.1326C267.262 68.5191 268.302 69.5156 269.688 69.5156C273.544 69.5156 273.804 64.8361 276.404 64.8361C278.397 64.8361 278.44 67.8258 278.44 69.2557C278.44 70.8155 277.834 70.7289 276.491 70.7289C268.865 70.7289 265.918 74.5418 265.918 77.6181C265.918 81.9077 269.515 83.8141 273.111 83.8141C275.104 83.8141 276.404 83.2508 277.357 82.6876C278.31 82.1676 278.874 81.6044 279.394 81.6044C280.477 81.6044 280.564 83.8141 283.987 83.8141C287.15 83.8141 290.529 81.1277 290.529 78.658C290.529 76.3183 287.929 80.4778 287.929 72.852V68.5191ZM304.685 67.0459C304.685 60.8499 305.248 56.0838 305.248 55.0872C305.248 53.7873 304.901 52.8341 303.428 52.8341C302.822 52.8341 291.556 53.744 291.556 57.5136C291.556 59.9833 294.113 58.8568 294.763 62.0631C295.152 64.0129 295.066 67.2626 295.066 68.9524C295.066 71.0755 295.066 76.4916 294.503 78.268C293.983 79.8712 292.119 79.3079 292.119 80.8244C292.119 83.9008 298.185 83.6841 300.135 83.6841C301.998 83.6841 307.285 83.9008 307.285 80.9978C307.285 79.178 305.335 79.9145 304.858 78.3547C304.641 77.6614 304.685 76.2316 304.685 75.4517V67.0459ZM332.035 80.6511C332.728 81.951 333.811 83.8141 335.501 83.8141C336.498 83.8141 337.667 83.2075 339.097 80.4778L346.203 66.656C347.46 64.2295 350.276 65.1828 350.276 63.103C350.276 61.1965 347.026 61.1965 345.77 61.1965C344.47 61.1965 339.704 61.0232 339.704 63.1897C339.704 64.4462 341.177 64.8795 341.177 65.9627C341.177 66.8293 339.661 70.5122 338.187 70.5122C337.104 70.5122 335.501 67.2626 335.501 66.266C335.501 65.1395 337.147 64.8361 337.147 63.4063C337.147 61.1099 331.341 61.1965 329.825 61.1965C321.679 61.1965 321.116 62.713 321.116 63.7963C321.116 66.136 323.542 64.7928 324.799 67.1759L332.035 80.6511ZM363.196 63.103C363.196 62.1931 363.152 61.1965 361.853 61.1965C361.419 61.1965 350.414 62.4964 350.414 65.5727C350.414 67.5225 352.624 67.0459 353.014 68.5624C353.49 70.1656 353.403 76.4482 352.84 77.9647C352.32 79.3079 350.544 79.3946 350.544 80.9544C350.544 81.9943 350.847 83.6841 358.3 83.6841C360.249 83.6841 365.752 83.6841 365.752 80.7378C365.752 78.4414 363.196 80.3045 363.196 75.1917V63.103ZM362.979 55.5638C362.979 53.3974 360.509 52.8341 358.776 52.8341C356.566 52.8341 350.847 54.004 350.847 56.8637C350.847 58.9868 352.797 59.81 354.617 59.81C357.086 59.81 362.979 58.9434 362.979 55.5638ZM383.517 71.1621C383.517 73.0686 383.69 78.398 380.787 78.398C378.101 78.398 377.581 74.8451 377.581 72.8086C377.581 70.7722 378.101 65.7894 381.004 65.7894C383.517 65.7894 383.517 69.4723 383.517 71.1621ZM393.093 55.1738C393.093 53.744 392.789 52.8341 391.489 52.8341C391.359 52.8341 380.311 53.6573 380.311 56.8637C380.311 59.2034 383.474 57.7736 383.474 60.4599C383.474 60.9366 383.43 62.3664 382.78 62.3664C382.304 62.3664 380.614 61.0666 377.624 61.0666C371.645 61.0666 366.965 66.6993 366.965 72.462C366.965 77.7914 371.385 83.8141 377.061 83.8141C378.967 83.8141 380.311 83.1642 381.307 82.5576C382.304 81.9077 382.954 81.3011 383.344 81.3011C384.773 81.3011 383.214 83.6841 385.423 83.6841C385.9 83.6841 395.389 83.4675 395.389 80.1745C395.389 77.9214 393.093 78.918 393.093 75.885V55.1738ZM416.647 73.2419C418.033 73.2419 419.333 72.852 419.333 69.9923C419.333 66.7426 416.084 61.0666 408.718 61.0666C402.218 61.0666 396.542 65.9194 396.542 72.592C396.542 78.1814 400.572 83.8141 408.371 83.8141C412.271 83.8141 418.38 81.3877 418.38 78.0514C418.38 77.2282 417.6 75.885 416.69 75.885C415.78 75.885 414.177 77.8348 410.927 77.8348C408.891 77.8348 406.075 76.015 406.075 73.8485C406.075 73.1119 406.768 73.2419 407.245 73.2419H416.647ZM408.458 69.0824C407.331 69.0824 405.858 69.429 405.858 67.8692C405.858 66.4826 407.028 65.0095 408.458 65.0095C410.061 65.0095 411.014 66.2227 411.014 67.7825C411.014 69.3423 409.628 69.0824 408.458 69.0824ZM432.576 83.8141C438.946 83.8141 446.571 79.4813 446.571 72.3753C446.571 67.0026 442.239 61.0666 434.656 61.0666C427.507 61.0666 420.704 65.4428 420.704 73.1986C420.704 80.0445 426.164 83.8141 432.576 83.8141ZM436.606 75.6683C436.606 77.0548 436.259 78.4414 434.613 78.3547C431.623 78.1814 430.843 71.5088 430.67 68.7791C430.583 67.5225 431.363 66.1793 432.793 66.1793C435.739 66.1793 436.606 73.7185 436.606 75.6683ZM51.4608 113.067C46.998 113.067 43.445 115.796 43.445 120.129C43.445 127.278 51.9375 127.582 51.9375 130.138C51.9375 131.091 51.1142 131.525 50.2476 131.525C47.8212 131.525 46.0881 127.235 44.1816 127.235C42.9251 127.235 42.5351 128.145 42.5351 129.271C42.5351 130.918 43.6184 133.388 44.7016 134.601C45.3082 135.294 45.7415 135.424 46.608 135.424C46.9113 135.424 47.1713 135.381 47.4313 135.338C47.7346 135.294 47.9946 135.251 48.2979 135.251C48.5578 135.251 49.5111 135.381 50.5943 135.511C51.6775 135.684 52.934 135.814 53.8006 135.814C58.3068 135.814 62.2497 132.998 62.2497 128.925C62.2497 122.209 52.7174 121.689 52.7174 118.916C52.7174 118.093 53.4973 117.443 54.2772 117.443C56.1837 117.443 57.5702 120.866 60.0399 120.866C61.1665 120.866 62.163 119.999 62.163 118.829C62.163 117.053 60.1699 113.067 58.1768 113.067C57.7868 113.067 57.3969 113.197 57.0069 113.327C56.617 113.5 56.2703 113.63 55.837 113.63C55.5337 113.63 54.8405 113.5 54.0606 113.327C53.2373 113.197 52.3274 113.067 51.4608 113.067ZM84.0863 125.242C85.4729 125.242 86.7727 124.852 86.7727 121.992C86.7727 118.743 83.5231 113.067 76.1572 113.067C69.6579 113.067 63.9818 117.919 63.9818 124.592C63.9818 130.181 68.0114 135.814 75.8106 135.814C79.7101 135.814 85.8195 133.388 85.8195 130.051C85.8195 129.228 85.0396 127.885 84.1297 127.885C83.2198 127.885 81.6166 129.835 78.367 129.835C76.3305 129.835 73.5141 128.015 73.5141 125.849C73.5141 125.112 74.2074 125.242 74.684 125.242H84.0863ZM75.8972 121.082C74.7707 121.082 73.2975 121.429 73.2975 119.869C73.2975 118.483 74.4674 117.009 75.8972 117.009C77.5004 117.009 78.4536 118.223 78.4536 119.783C78.4536 121.342 77.0671 121.082 75.8972 121.082ZM90.7434 124.679C90.7434 125.892 90.6134 128.362 90.2668 129.445C89.7902 130.961 87.797 130.961 87.797 132.781C87.797 135.771 93.6897 135.684 95.6829 135.684C100.449 135.684 104.262 135.467 104.262 132.738C104.262 130.138 100.969 131.308 100.709 129.401C100.492 127.755 100.362 125.935 100.362 124.635C100.362 123.855 100.146 120.952 101.359 120.952C102.485 120.952 103.265 123.422 106.082 123.422C108.941 123.422 111.411 121.126 111.411 118.223C111.411 115.363 109.505 113.197 106.602 113.197C102.875 113.197 102.225 116.62 101.186 116.62C100.449 116.62 100.492 115.623 100.449 115.103C100.276 113.63 100.232 113.197 98.5859 113.197C98.1959 113.197 88.057 114.15 88.057 117.573C88.057 120.216 90.7434 117.833 90.7434 122.079V124.679ZM124.909 115.103C124.909 114.193 124.866 113.197 123.566 113.197C123.133 113.197 112.127 114.496 112.127 117.573C112.127 119.523 114.337 119.046 114.727 120.562C115.203 122.166 115.117 128.448 114.554 129.965C114.034 131.308 112.257 131.395 112.257 132.954C112.257 133.994 112.56 135.684 120.013 135.684C121.963 135.684 127.465 135.684 127.465 132.738C127.465 130.441 124.909 132.304 124.909 127.192V115.103ZM124.692 107.564C124.692 105.397 122.223 104.834 120.49 104.834C118.28 104.834 112.56 106.004 112.56 108.864C112.56 110.987 114.51 111.81 116.33 111.81C118.8 111.81 124.692 110.943 124.692 107.564ZM148.783 125.242C150.17 125.242 151.47 124.852 151.47 121.992C151.47 118.743 148.22 113.067 140.854 113.067C134.355 113.067 128.679 117.919 128.679 124.592C128.679 130.181 132.708 135.814 140.507 135.814C144.407 135.814 150.516 133.388 150.516 130.051C150.516 129.228 149.736 127.885 148.827 127.885C147.917 127.885 146.313 129.835 143.064 129.835C141.027 129.835 138.211 128.015 138.211 125.849C138.211 125.112 138.904 125.242 139.381 125.242H148.783ZM140.594 121.082C139.468 121.082 137.994 121.429 137.994 119.869C137.994 118.483 139.164 117.009 140.594 117.009C142.197 117.009 143.15 118.223 143.15 119.783C143.15 121.342 141.764 121.082 140.594 121.082ZM161.983 113.067C157.52 113.067 153.967 115.796 153.967 120.129C153.967 127.278 162.459 127.582 162.459 130.138C162.459 131.091 161.636 131.525 160.77 131.525C158.343 131.525 156.61 127.235 154.704 127.235C153.447 127.235 153.057 128.145 153.057 129.271C153.057 130.918 154.14 133.388 155.224 134.601C155.83 135.294 156.263 135.424 157.13 135.424C157.433 135.424 157.693 135.381 157.953 135.338C158.257 135.294 158.517 135.251 158.82 135.251C159.08 135.251 160.033 135.381 161.116 135.511C162.2 135.684 163.456 135.814 164.323 135.814C168.829 135.814 172.772 132.998 172.772 128.925C172.772 122.209 163.239 121.689 163.239 118.916C163.239 118.093 164.019 117.443 164.799 117.443C166.706 117.443 168.092 120.866 170.562 120.866C171.689 120.866 172.685 119.999 172.685 118.829C172.685 117.053 170.692 113.067 168.699 113.067C168.309 113.067 167.919 113.197 167.529 113.327C167.139 113.5 166.792 113.63 166.359 113.63C166.056 113.63 165.363 113.5 164.583 113.327C163.759 113.197 162.849 113.067 161.983 113.067ZM191.031 128.665C190.857 131.308 187.824 130.181 187.824 132.608C187.824 135.641 193.414 135.684 195.494 135.684C205.243 135.684 205.329 133.561 205.329 132.521C205.329 129.835 202.253 131.221 201.473 128.622C201.17 127.495 201.04 125.979 201.04 124.765C201.04 121.906 201.473 121.949 204.029 121.949C204.636 121.949 205.113 121.862 205.156 121.212L205.373 118.049C205.459 116.749 202.989 117.226 201.17 117.226C200.736 117.226 200.693 117.096 200.563 116.749C199.783 114.843 195.277 113.933 195.277 111.203C195.277 110.337 195.884 109.644 196.75 109.644C199.22 109.644 199.696 113.543 203.466 113.543C205.286 113.543 206.759 112.027 206.759 110.207C206.759 108.344 205.113 104.617 198.05 104.617C193.717 104.617 188.388 106.351 188.388 111.507C188.388 114.236 190.034 115.84 190.034 116.663C190.034 117.399 189.341 117.443 188.821 117.486C187.521 117.573 187.781 117.963 187.781 121.386C187.781 122.166 189.124 121.949 189.644 121.949C191.031 121.949 191.464 122.642 191.377 123.985L191.031 128.665ZM227.613 125.242C228.999 125.242 230.299 124.852 230.299 121.992C230.299 118.743 227.049 113.067 219.684 113.067C213.184 113.067 207.508 117.919 207.508 124.592C207.508 130.181 211.538 135.814 219.337 135.814C223.236 135.814 229.346 133.388 229.346 130.051C229.346 129.228 228.566 127.885 227.656 127.885C226.746 127.885 225.143 129.835 221.893 129.835C219.857 129.835 217.04 128.015 217.04 125.849C217.04 125.112 217.734 125.242 218.21 125.242H227.613ZM219.424 121.082C218.297 121.082 216.824 121.429 216.824 119.869C216.824 118.483 217.994 117.009 219.424 117.009C221.027 117.009 221.98 118.223 221.98 119.783C221.98 121.342 220.593 121.082 219.424 121.082ZM242.979 125.892C244.192 125.892 244.149 126.975 244.149 127.928C244.149 129.228 244.019 131.005 242.372 131.005C241.116 131.005 240.509 129.791 240.509 128.665C240.509 127.278 241.506 125.892 242.979 125.892ZM253.508 120.519C253.508 114.02 246.748 113.067 244.279 113.067C240.162 113.067 232.84 115.45 232.84 119.133C232.84 120.519 233.88 121.516 235.266 121.516C239.123 121.516 239.383 116.836 241.982 116.836C243.975 116.836 244.019 119.826 244.019 121.256C244.019 122.816 243.412 122.729 242.069 122.729C234.443 122.729 231.497 126.542 231.497 129.618C231.497 133.908 235.093 135.814 238.689 135.814C240.682 135.814 241.982 135.251 242.935 134.688C243.889 134.168 244.452 133.604 244.972 133.604C246.055 133.604 246.142 135.814 249.565 135.814C252.728 135.814 256.107 133.128 256.107 130.658C256.107 128.318 253.508 132.478 253.508 124.852V120.519ZM270.74 119.393C270.74 117.833 270.826 117.789 272.343 117.789H275.332C277.022 117.789 277.326 117.616 277.326 115.146C277.326 113.197 277.326 113.067 275.462 113.067H272.429C271.303 113.067 271 113.067 270.87 112.72C270.653 112.2 270.74 110.857 270.74 109.514C270.74 107.52 270.653 107.694 268.92 107.694C267.62 107.694 267.663 107.564 266.667 108.17L256.788 114.453C256.268 114.8 256.398 115.276 256.398 115.883C256.398 116.879 256.311 117.313 256.614 117.616C256.831 117.833 257.394 117.789 258.521 117.789C259.517 117.789 259.994 117.703 260.211 117.833C260.427 117.963 260.427 118.266 260.427 119.046V127.972C260.427 134.861 265.973 135.814 268.183 135.814C272.559 135.814 277.499 133.301 277.499 130.441C277.499 129.661 276.892 128.448 276.026 128.448C275.246 128.448 274.466 129.445 273.123 129.445C271.953 129.445 270.74 128.752 270.74 125.849V119.393ZM290.857 114.843C290.857 113.76 290.727 113.197 289.514 113.197C289.168 113.197 278.249 113.327 278.249 116.1C278.249 118.959 281.238 116.056 281.238 122.686C281.238 129.185 280.545 135.684 288.778 135.684C290.684 135.684 292.071 135.034 293.11 134.384C294.15 133.734 294.844 133.084 295.32 133.084C297.053 133.084 294.844 135.684 298.18 135.684C300.563 135.684 308.232 134.861 308.232 131.915C308.232 129.835 305.849 131.048 305.849 128.448V119.739C305.849 118.353 305.936 117.009 305.936 115.623C305.936 114.106 305.286 113.197 303.726 113.197C302.079 113.197 293.37 113.63 293.37 116.186C293.37 118.006 295.494 117.269 295.84 119.436C296.057 120.822 296.013 122.686 296.013 124.115C296.013 126.195 296.447 130.268 293.327 130.268C290.987 130.268 290.857 127.582 290.857 125.849V114.843ZM312.041 124.679C312.041 125.892 311.911 128.362 311.565 129.445C311.088 130.961 309.095 130.961 309.095 132.781C309.095 135.771 314.988 135.684 316.981 135.684C321.747 135.684 325.56 135.467 325.56 132.738C325.56 130.138 322.267 131.308 322.007 129.401C321.79 127.755 321.66 125.935 321.66 124.635C321.66 123.855 321.444 120.952 322.657 120.952C323.783 120.952 324.563 123.422 327.38 123.422C330.239 123.422 332.709 121.126 332.709 118.223C332.709 115.363 330.803 113.197 327.9 113.197C324.173 113.197 323.523 116.62 322.484 116.62C321.747 116.62 321.79 115.623 321.747 115.103C321.574 113.63 321.53 113.197 319.884 113.197C319.494 113.197 309.355 114.15 309.355 117.573C309.355 120.216 312.041 117.833 312.041 122.079V124.679ZM346.207 115.103C346.207 114.193 346.164 113.197 344.864 113.197C344.431 113.197 333.425 114.496 333.425 117.573C333.425 119.523 335.635 119.046 336.025 120.562C336.501 122.166 336.415 128.448 335.851 129.965C335.332 131.308 333.555 131.395 333.555 132.954C333.555 133.994 333.858 135.684 341.311 135.684C343.261 135.684 348.763 135.684 348.763 132.738C348.763 130.441 346.207 132.304 346.207 127.192V115.103ZM345.99 107.564C345.99 105.397 343.521 104.834 341.788 104.834C339.578 104.834 333.858 106.004 333.858 108.864C333.858 110.987 335.808 111.81 337.628 111.81C340.098 111.81 345.99 110.943 345.99 107.564ZM362.152 124.635C362.152 122.686 361.892 119.696 364.665 119.696C368.738 119.696 367.525 126.628 367.308 129.705C367.091 132.521 365.662 131.785 365.662 133.344C365.662 135.771 369.821 135.684 371.381 135.684C379.527 135.684 379.354 133.864 379.354 133.084C379.354 131.221 377.577 132.001 377.36 128.578C376.927 121.992 378.444 113.197 369.475 113.197C367.005 113.197 365.705 114.106 364.838 114.973C363.972 115.883 363.582 116.793 362.889 116.793C362.239 116.793 362.022 116.186 362.022 115.666C362.022 115.406 362.065 115.146 362.065 114.886C362.065 114.02 361.459 113.197 360.506 113.197C359.639 113.197 349.673 115.363 349.673 117.659C349.673 119.956 352.316 118.916 352.23 122.122L352.056 128.622C351.926 132.868 349.933 131.005 349.933 133.084C349.933 135.684 354.353 135.684 356.086 135.684C357.862 135.684 363.625 135.771 363.625 133.084C363.625 131.438 362.152 132.175 362.152 127.972V124.635ZM394.955 121.472C394.955 123.162 394.305 124.852 392.355 124.852C390.146 124.852 389.712 121.256 389.712 119.609C389.712 118.093 390.449 116.49 392.139 116.49C394.565 116.49 394.955 119.696 394.955 121.472ZM386.809 137.374C386.809 137.071 386.939 136.681 387.329 136.681C387.806 136.681 390.146 137.027 391.142 137.027C392.529 137.027 394.219 136.767 394.869 136.767C395.692 136.767 396.558 137.157 396.558 138.067C396.558 140.06 393.309 140.277 391.879 140.277C390.189 140.277 386.809 139.67 386.809 137.374ZM405.787 134.861C405.787 132.261 403.881 129.705 399.375 129.705C397.642 129.705 392.615 130.441 391.272 130.441C390.276 130.441 388.369 130.181 388.369 128.838C388.369 128.145 388.803 127.668 389.539 127.668C390.319 127.668 391.056 127.798 391.792 127.798C396.558 127.798 403.361 125.805 403.361 119.956C403.361 119.523 403.231 119.046 403.231 118.613C403.231 118.136 405.657 116.403 405.657 113.976C405.657 113.153 405.224 111.853 404.228 111.853C403.578 111.853 401.931 114.15 398.638 114.15C397.122 114.15 394.132 113.327 391.922 113.327C387.546 113.327 381.003 115.753 381.003 120.996C381.003 124.202 383.95 126.195 383.95 126.715C383.95 127.322 380.44 128.232 380.44 131.308C380.44 133.214 382.78 134.428 382.78 134.991C382.78 135.641 380.397 135.684 380.397 138.197C380.397 140.97 383.43 144.003 391.446 144.003C402.061 144.003 405.787 138.76 405.787 134.861ZM61.9225 173.992C66.732 177.849 72.668 177.069 72.668 180.188C72.668 181.835 70.285 182.311 69.3317 182.311C61.3593 182.311 61.8792 175.422 58.8029 175.422C57.503 175.422 56.9831 176.592 56.9831 177.762C56.9831 179.972 57.9796 184.564 60.0594 185.734C62.5291 187.078 67.4253 187.814 70.285 187.814C80.3806 187.814 84.5401 182.095 84.5401 177.025C84.5401 173.776 83.1969 171.609 80.5105 169.833C75.4844 166.496 69.5484 167.406 69.5484 163.983C69.5484 162.424 70.9782 161.817 72.3214 161.817C76.8276 161.817 78.5174 166.756 81.4204 166.756C83.0236 166.756 83.9768 165.283 83.9768 163.81C83.9768 160.17 80.6839 156.964 79.2107 156.964C78.3008 156.964 77.6942 157.484 77.0876 157.484C76.4376 157.484 73.318 156.227 70.5449 156.227C62.1392 156.227 57.8063 161.817 57.8063 166.323C57.8063 169.443 59.5394 172.086 61.9225 173.992ZM99.477 171.393C99.477 169.833 99.5637 169.789 101.08 169.789H104.07C105.76 169.789 106.063 169.616 106.063 167.146C106.063 165.197 106.063 165.067 104.2 165.067H101.167C100.04 165.067 99.737 165.067 99.607 164.72C99.3903 164.2 99.477 162.857 99.477 161.514C99.477 159.52 99.3903 159.694 97.6572 159.694C96.3573 159.694 96.4007 159.564 95.4041 160.17L85.5252 166.453C85.0052 166.8 85.1352 167.276 85.1352 167.883C85.1352 168.879 85.0485 169.313 85.3518 169.616C85.5685 169.833 86.1318 169.789 87.2583 169.789C88.2549 169.789 88.7315 169.703 88.9481 169.833C89.1648 169.963 89.1648 170.266 89.1648 171.046V179.972C89.1648 186.861 94.7108 187.814 96.9206 187.814C101.297 187.814 106.236 185.301 106.236 182.441C106.236 181.661 105.63 180.448 104.763 180.448C103.983 180.448 103.203 181.445 101.86 181.445C100.69 181.445 99.477 180.752 99.477 177.849V171.393ZM127.394 177.242C128.78 177.242 130.08 176.852 130.08 173.992C130.08 170.743 126.831 165.067 119.465 165.067C112.965 165.067 107.289 169.919 107.289 176.592C107.289 182.181 111.319 187.814 119.118 187.814C123.018 187.814 129.127 185.388 129.127 182.051C129.127 181.228 128.347 179.885 127.437 179.885C126.527 179.885 124.924 181.835 121.674 181.835C119.638 181.835 116.822 180.015 116.822 177.849C116.822 177.112 117.515 177.242 117.992 177.242H127.394ZM119.205 173.082C118.078 173.082 116.605 173.429 116.605 171.869C116.605 170.483 117.775 169.009 119.205 169.009C120.808 169.009 121.761 170.223 121.761 171.783C121.761 173.342 120.375 173.082 119.205 173.082ZM141.287 184.651C141.98 185.951 143.063 187.814 144.753 187.814C145.75 187.814 146.92 187.208 148.349 184.478L155.455 170.656C156.712 168.23 159.528 169.183 159.528 167.103C159.528 165.197 156.279 165.197 155.022 165.197C153.722 165.197 148.956 165.023 148.956 167.19C148.956 168.446 150.429 168.879 150.429 169.963C150.429 170.829 148.913 174.512 147.44 174.512C146.356 174.512 144.753 171.263 144.753 170.266C144.753 169.139 146.4 168.836 146.4 167.406C146.4 165.11 140.594 165.197 139.077 165.197C130.931 165.197 130.368 166.713 130.368 167.796C130.368 170.136 132.794 168.793 134.051 171.176L141.287 184.651ZM180.074 177.242C181.46 177.242 182.76 176.852 182.76 173.992C182.76 170.743 179.511 165.067 172.145 165.067C165.645 165.067 159.969 169.919 159.969 176.592C159.969 182.181 163.999 187.814 171.798 187.814C175.698 187.814 181.807 185.388 181.807 182.051C181.807 181.228 181.027 179.885 180.117 179.885C179.207 179.885 177.604 181.835 174.354 181.835C172.318 181.835 169.502 180.015 169.502 177.849C169.502 177.112 170.195 177.242 170.671 177.242H180.074ZM171.885 173.082C170.758 173.082 169.285 173.429 169.285 171.869C169.285 170.483 170.455 169.009 171.885 169.009C173.488 169.009 174.441 170.223 174.441 171.783C174.441 173.342 173.055 173.082 171.885 173.082ZM211.707 174.686C211.23 174.686 210.147 174.816 210.147 174.079C210.147 173.559 210.884 171.869 211.057 171.393C211.23 170.916 211.967 168.316 213.007 168.316C213.96 168.316 214.696 169.919 215.086 170.613C215.433 171.219 216.69 173.472 216.69 174.122C216.69 174.772 215.39 174.686 214.956 174.686H211.707ZM203.128 177.502C202.478 178.888 201.568 180.968 200.615 182.138C199.358 183.698 197.018 183.091 197.018 185.128C197.018 186.514 197.582 187.684 203.778 187.684C205.511 187.684 210.19 187.641 210.19 185.041C210.19 182.788 207.417 183.915 207.417 182.225C207.417 180.102 208.76 180.015 211.014 180.015C217.989 180.015 219.073 180.188 219.073 182.138C219.073 183.655 216.43 182.875 216.43 184.954C216.43 187.641 220.156 187.684 226.352 187.684C228.518 187.684 234.671 187.814 234.671 184.651C234.671 182.181 232.331 184.175 230.901 180.882C229.342 177.329 222.799 164.07 222.062 162.813C220.373 159.954 217.989 156.098 214.22 156.098C210.364 156.098 208.977 158.351 208.977 161.34C208.977 164.763 207.201 168.576 205.857 171.566L203.128 177.502ZM248.239 171.046C248.239 164.85 248.802 160.084 248.802 159.087C248.802 157.787 248.456 156.834 246.982 156.834C246.376 156.834 235.11 157.744 235.11 161.514C235.11 163.983 237.667 162.857 238.317 166.063C238.707 168.013 238.62 171.263 238.62 172.952C238.62 175.075 238.62 180.492 238.057 182.268C237.537 183.871 235.674 183.308 235.674 184.824C235.674 187.901 241.74 187.684 243.689 187.684C245.553 187.684 250.839 187.901 250.839 184.998C250.839 183.178 248.889 183.915 248.412 182.355C248.196 181.661 248.239 180.232 248.239 179.452V171.046ZM261.922 184.651C262.615 185.951 263.698 187.814 265.388 187.814C266.385 187.814 267.554 187.208 268.984 184.478L276.09 170.656C277.347 168.23 280.163 169.183 280.163 167.103C280.163 165.197 276.913 165.197 275.657 165.197C274.357 165.197 269.591 165.023 269.591 167.19C269.591 168.446 271.064 168.879 271.064 169.963C271.064 170.829 269.548 174.512 268.074 174.512C266.991 174.512 265.388 171.263 265.388 170.266C265.388 169.139 267.035 168.836 267.035 167.406C267.035 165.11 261.228 165.197 259.712 165.197C251.566 165.197 251.003 166.713 251.003 167.796C251.003 170.136 253.429 168.793 254.686 171.176L261.922 184.651ZM291.956 177.892C293.169 177.892 293.126 178.975 293.126 179.928C293.126 181.228 292.996 183.005 291.35 183.005C290.093 183.005 289.487 181.791 289.487 180.665C289.487 179.278 290.483 177.892 291.956 177.892ZM302.485 172.519C302.485 166.02 295.726 165.067 293.256 165.067C289.14 165.067 281.817 167.45 281.817 171.133C281.817 172.519 282.857 173.516 284.244 173.516C288.1 173.516 288.36 168.836 290.96 168.836C292.953 168.836 292.996 171.826 292.996 173.256C292.996 174.816 292.39 174.729 291.046 174.729C283.421 174.729 280.474 178.542 280.474 181.618C280.474 185.908 284.07 187.814 287.667 187.814C289.66 187.814 290.96 187.251 291.913 186.688C292.866 186.168 293.429 185.604 293.949 185.604C295.033 185.604 295.119 187.814 298.542 187.814C301.705 187.814 305.085 185.128 305.085 182.658C305.085 180.318 302.485 184.478 302.485 176.852V172.519ZM309.058 176.679C309.058 177.892 308.928 180.362 308.582 181.445C308.105 182.961 306.112 182.961 306.112 184.781C306.112 187.771 312.005 187.684 313.998 187.684C318.764 187.684 322.577 187.467 322.577 184.738C322.577 182.138 319.284 183.308 319.024 181.401C318.807 179.755 318.677 177.935 318.677 176.635C318.677 175.855 318.461 172.952 319.674 172.952C320.8 172.952 321.58 175.422 324.397 175.422C327.256 175.422 329.726 173.126 329.726 170.223C329.726 167.363 327.82 165.197 324.917 165.197C321.19 165.197 320.54 168.62 319.5 168.62C318.764 168.62 318.807 167.623 318.764 167.103C318.591 165.63 318.547 165.197 316.901 165.197C316.511 165.197 306.372 166.15 306.372 169.573C306.372 172.216 309.058 169.833 309.058 174.079V176.679ZM350.85 177.242C352.236 177.242 353.536 176.852 353.536 173.992C353.536 170.743 350.287 165.067 342.921 165.067C336.421 165.067 330.745 169.919 330.745 176.592C330.745 182.181 334.775 187.814 342.574 187.814C346.474 187.814 352.583 185.388 352.583 182.051C352.583 181.228 351.803 179.885 350.893 179.885C349.983 179.885 348.38 181.835 345.13 181.835C343.094 181.835 340.278 180.015 340.278 177.849C340.278 177.112 340.971 177.242 341.447 177.242H350.85ZM342.661 173.082C341.534 173.082 340.061 173.429 340.061 171.869C340.061 170.483 341.231 169.009 342.661 169.009C344.264 169.009 345.217 170.223 345.217 171.783C345.217 173.342 343.831 173.082 342.661 173.082ZM375.055 169.659C375.445 168.966 376.095 167.883 376.095 167.06C376.095 166.54 375.835 166.063 375.358 165.803C374.882 165.543 372.325 165.63 371.675 165.673H366.866C359.673 165.673 359.413 164.85 358.243 164.85C356.9 164.85 354.431 168.273 354.431 171.263C354.431 172.432 355.037 173.732 356.38 173.732C358.677 173.732 358.157 170.093 361.276 170.093C361.926 170.093 363.183 170.093 363.183 171.003C363.183 171.696 361.84 173.732 361.493 174.296L356.25 182.745C355.774 183.525 354.864 184.608 354.864 185.561C354.864 187.208 357.29 187.208 358.373 187.208H368.946C372.022 187.208 372.022 187.901 372.889 187.901C374.275 187.901 377.221 185.041 377.221 181.661C377.221 180.275 376.615 178.802 375.055 178.802C373.149 178.802 373.842 182.528 370.289 182.528C369.552 182.528 368.729 182.355 368.729 181.445C368.729 180.882 369.422 179.712 369.682 179.192L375.055 169.659ZM389.355 183.005C389.355 180.362 387.189 178.195 384.546 178.195C381.903 178.195 379.736 180.362 379.736 183.005C379.736 185.648 381.903 187.814 384.546 187.814C387.189 187.814 389.355 185.648 389.355 183.005ZM389.745 162.857C389.745 159.65 388.229 156.227 384.546 156.227C380.863 156.227 379.346 159.65 379.346 162.857C379.346 165.543 380.343 168.793 381.556 171.176C381.946 171.999 383.462 174.816 384.546 174.816C385.629 174.816 387.145 171.999 387.535 171.176C388.749 168.793 389.745 165.543 389.745 162.857Z" fill="#F15A29"/>
</svg>
