<svg width="448" height="51" viewBox="0 0 448 51" fill="none" xmlns="http://www.w3.org/2000/svg">
<path d="M6.33091 23.1803C12.4359 28.0753 19.9709 27.0853 19.9709 31.0453C19.9709 33.1353 16.9459 33.7403 15.7359 33.7403C5.61591 33.7403 6.27591 24.9953 2.37091 24.9953C0.720914 24.9953 0.0609144 26.4803 0.0609144 27.9653C0.0609144 30.7703 1.32591 36.6003 3.96591 38.0853C7.10091 39.7903 13.3159 40.7253 16.9459 40.7253C29.7609 40.7253 35.0409 33.4653 35.0409 27.0303C35.0409 22.9053 33.3359 20.1553 29.9259 17.9003C23.5459 13.6653 16.0109 14.8203 16.0109 10.4753C16.0109 8.49532 17.8259 7.72532 19.5309 7.72532C25.2509 7.72532 27.3959 13.9953 31.0809 13.9953C33.1159 13.9953 34.3259 12.1253 34.3259 10.2553C34.3259 5.63532 30.1459 1.56532 28.2759 1.56532C27.1209 1.56532 26.3509 2.22532 25.5809 2.22532C24.7559 2.22532 20.7959 0.63032 17.2759 0.63032C6.60591 0.63032 1.10591 7.72532 1.10591 13.4453C1.10591 17.4053 3.30591 20.7603 6.33091 23.1803ZM60.1063 26.9753C60.1063 29.6153 59.6663 33.3003 56.2563 33.3003C54.3313 33.3003 53.4513 32.6403 53.4513 30.8253C53.4513 20.8153 54.1113 19.9903 56.0913 19.9903C59.5563 19.9903 60.1063 24.3353 60.1063 26.9753ZM41.0213 32.0903C41.0213 38.1953 40.8013 39.7903 40.2513 40.9453C39.2613 43.0903 37.0063 42.1553 37.0063 44.6303C37.0063 47.4353 42.7813 50.1303 50.1513 50.1303C52.2963 50.1303 57.3013 49.7453 57.3013 46.6653C57.3013 43.9703 53.8913 45.2903 53.8913 41.1103C53.8913 40.5053 54.0013 39.3503 54.7713 39.3503C55.2663 39.3503 57.8513 40.7253 60.4363 40.7253C68.4663 40.7253 73.6913 32.8603 73.6913 25.4903C73.6913 19.0553 69.8413 11.8503 62.6363 11.8503C58.1263 11.8503 55.0463 14.8203 54.2763 14.8203C53.7263 14.8203 53.6713 14.0503 53.6713 13.6653C53.6713 12.4553 53.4513 12.0153 52.1313 12.0153C48.0613 12.0153 36.7313 14.8753 36.7313 18.6153C36.7313 21.7503 39.7013 21.0353 40.4163 21.7503C40.6913 22.0253 41.0213 23.2903 41.0213 29.0653V32.0903ZM91.4133 14.4353C91.4133 13.2803 91.3583 12.0153 89.7083 12.0153C89.1583 12.0153 75.1883 13.6653 75.1883 17.5703C75.1883 20.0453 77.9933 19.4403 78.4883 21.3653C79.0933 23.4003 78.9833 31.3753 78.2683 33.3003C77.6083 35.0053 75.3533 35.1153 75.3533 37.0953C75.3533 38.4153 75.7383 40.5603 85.1983 40.5603C87.6733 40.5603 94.6583 40.5603 94.6583 36.8203C94.6583 33.9053 91.4133 36.2703 91.4133 29.7803V14.4353ZM91.1383 4.86532C91.1383 2.11532 88.0033 1.40032 85.8033 1.40032C82.9983 1.40032 75.7383 2.88532 75.7383 6.51532C75.7383 9.21032 78.2133 10.2553 80.5233 10.2553C83.6583 10.2553 91.1383 9.15532 91.1383 4.86532ZM111.653 26.5353C111.653 24.0603 111.323 20.2653 114.843 20.2653C120.013 20.2653 118.473 29.0653 118.198 32.9703C117.923 36.5453 116.108 35.6103 116.108 37.5903C116.108 40.6703 121.388 40.5603 123.368 40.5603C133.708 40.5603 133.488 38.2503 133.488 37.2603C133.488 34.8953 131.233 35.8853 130.958 31.5403C130.408 23.1803 132.333 12.0153 120.948 12.0153C117.813 12.0153 116.163 13.1703 115.063 14.2703C113.963 15.4253 113.468 16.5803 112.588 16.5803C111.763 16.5803 111.488 15.8103 111.488 15.1503C111.488 14.8203 111.543 14.4903 111.543 14.1603C111.543 13.0603 110.773 12.0153 109.563 12.0153C108.463 12.0153 95.8133 14.7653 95.8133 17.6803C95.8133 20.5953 99.1683 19.2753 99.0583 23.3453L98.8383 31.5953C98.6733 36.9853 96.1433 34.6203 96.1433 37.2603C96.1433 40.5603 101.753 40.5603 103.953 40.5603C106.208 40.5603 113.523 40.6703 113.523 37.2603C113.523 35.1703 111.653 36.1053 111.653 30.7703V26.5353ZM155.956 31.6503C155.736 35.0053 151.886 33.5753 151.886 36.6553C151.886 40.5053 158.981 40.5603 161.621 40.5603C173.996 40.5603 174.106 37.8653 174.106 36.5453C174.106 33.1353 170.201 34.8953 169.211 31.5953C168.826 30.1653 168.661 28.2403 168.661 26.7003C168.661 23.0703 169.211 23.1253 172.456 23.1253C173.226 23.1253 173.831 23.0153 173.886 22.1903L174.161 18.1753C174.271 16.5253 171.136 17.1303 168.826 17.1303C168.276 17.1303 168.221 16.9653 168.056 16.5253C167.066 14.1053 161.346 12.9503 161.346 9.48532C161.346 8.38532 162.116 7.50532 163.216 7.50532C166.351 7.50532 166.956 12.4553 171.741 12.4553C174.051 12.4553 175.921 10.5303 175.921 8.22032C175.921 5.85532 173.831 1.12532 164.866 1.12532C159.366 1.12532 152.601 3.32532 152.601 9.87032C152.601 13.3353 154.691 15.3703 154.691 16.4153C154.691 17.3503 153.811 17.4053 153.151 17.4603C151.501 17.5703 151.831 18.0653 151.831 22.4103C151.831 23.4003 153.536 23.1253 154.196 23.1253C155.956 23.1253 156.506 24.0053 156.396 25.7103L155.956 31.6503ZM191.997 40.7253C200.082 40.7253 209.762 35.2253 209.762 26.2053C209.762 19.3853 204.262 11.8503 194.637 11.8503C185.562 11.8503 176.927 17.4053 176.927 27.2503C176.927 35.9403 183.857 40.7253 191.997 40.7253ZM197.112 30.3853C197.112 32.1453 196.672 33.9053 194.582 33.7953C190.787 33.5753 189.797 25.1053 189.577 21.6403C189.467 20.0453 190.457 18.3403 192.272 18.3403C196.012 18.3403 197.112 27.9103 197.112 30.3853ZM215.032 26.5903C215.032 28.1303 214.867 31.2653 214.427 32.6403C213.822 34.5653 211.292 34.5653 211.292 36.8753C211.292 40.6703 218.772 40.5603 221.302 40.5603C227.352 40.5603 232.192 40.2853 232.192 36.8203C232.192 33.5203 228.012 35.0053 227.682 32.5853C227.407 30.4953 227.242 28.1853 227.242 26.5353C227.242 25.5453 226.967 21.8603 228.507 21.8603C229.937 21.8603 230.927 24.9953 234.502 24.9953C238.132 24.9953 241.267 22.0803 241.267 18.3953C241.267 14.7653 238.847 12.0153 235.162 12.0153C230.432 12.0153 229.607 16.3603 228.287 16.3603C227.352 16.3603 227.407 15.0953 227.352 14.4353C227.132 12.5653 227.077 12.0153 224.987 12.0153C224.492 12.0153 211.622 13.2253 211.622 17.5703C211.622 20.9253 215.032 17.9003 215.032 23.2903V26.5903ZM262.824 29.6703C262.824 36.5453 259.524 35.2253 259.524 37.7003C259.524 40.6153 266.014 40.5603 268.159 40.5603C275.694 40.5603 276.959 38.6353 276.959 37.2053C276.959 35.2253 275.474 35.5553 275.474 30.4953V26.0403C275.474 24.0053 275.199 20.2653 278.279 20.2653C281.414 20.2653 281.139 25.2153 281.139 27.1953V30.3303C281.304 36.8753 278.554 34.5653 278.499 37.4803C278.444 39.0203 278.884 40.5603 287.189 40.5603C289.169 40.5603 295.769 40.5053 295.769 37.0953C295.769 35.0603 293.789 36.2153 293.789 29.4503V26.0403C293.789 24.0053 293.514 20.2653 296.594 20.2653C299.729 20.2653 299.454 24.8853 299.454 27.1953V32.1453C299.454 35.3353 297.529 35.2803 297.529 37.3153C297.529 40.1753 303.909 40.5603 305.724 40.5603C307.869 40.5603 314.139 40.3953 314.139 36.9303C314.139 35.3353 312.104 35.0603 312.104 31.8703V20.2653C312.104 14.8753 308.859 12.0153 303.634 12.0153C300.829 12.0153 298.629 13.2253 296.979 14.4353C295.384 15.7003 294.394 16.9103 293.954 16.9103C292.799 16.9103 292.744 12.0153 286.199 12.0153C282.954 12.0153 280.754 13.2253 279.214 14.4353C277.674 15.7003 276.794 16.9103 276.244 16.9103C275.089 16.9103 275.309 15.0403 275.309 14.3803C275.309 13.2253 275.199 12.0153 273.824 12.0153C273.714 12.0153 260.074 13.5553 260.074 17.6253C260.074 19.0553 260.844 19.0003 261.559 19.6053C262.109 20.1003 262.824 21.0903 262.824 24.6103V29.6703ZM331.281 14.1053C331.281 12.7303 331.116 12.0153 329.576 12.0153C329.136 12.0153 315.276 12.1803 315.276 15.7003C315.276 19.3303 319.071 15.6453 319.071 24.0603C319.071 32.3103 318.191 40.5603 328.641 40.5603C331.061 40.5603 332.821 39.7353 334.141 38.9103C335.461 38.0853 336.341 37.2603 336.946 37.2603C339.146 37.2603 336.341 40.5603 340.576 40.5603C343.601 40.5603 353.336 39.5153 353.336 35.7753C353.336 33.1353 350.311 34.6753 350.311 31.3753V20.3203C350.311 18.5603 350.421 16.8553 350.421 15.0953C350.421 13.1703 349.596 12.0153 347.616 12.0153C345.526 12.0153 334.471 12.5653 334.471 15.8103C334.471 18.1203 337.166 17.1853 337.606 19.9353C337.881 21.6953 337.826 24.0603 337.826 25.8753C337.826 28.5153 338.376 33.6853 334.416 33.6853C331.446 33.6853 331.281 30.2753 331.281 28.0753V14.1053ZM366.477 11.8503C360.812 11.8503 356.302 15.3153 356.302 20.8153C356.302 29.8903 367.082 30.2753 367.082 33.5203C367.082 34.7303 366.037 35.2803 364.937 35.2803C361.857 35.2803 359.657 29.8353 357.237 29.8353C355.642 29.8353 355.147 30.9903 355.147 32.4203C355.147 34.5103 356.522 37.6453 357.897 39.1853C358.667 40.0653 359.217 40.2303 360.317 40.2303C360.702 40.2303 361.032 40.1753 361.362 40.1203C361.747 40.0653 362.077 40.0103 362.462 40.0103C362.792 40.0103 364.002 40.1753 365.377 40.3403C366.752 40.5603 368.347 40.7253 369.447 40.7253C375.167 40.7253 380.172 37.1503 380.172 31.9803C380.172 23.4553 368.072 22.7953 368.072 19.2753C368.072 18.2303 369.062 17.4053 370.052 17.4053C372.472 17.4053 374.232 21.7503 377.367 21.7503C378.797 21.7503 380.062 20.6503 380.062 19.1653C380.062 16.9103 377.532 11.8503 375.002 11.8503C374.507 11.8503 374.012 12.0153 373.517 12.1803C373.022 12.4003 372.582 12.5653 372.032 12.5653C371.647 12.5653 370.767 12.4003 369.777 12.1803C368.732 12.0153 367.577 11.8503 366.477 11.8503ZM398.21 14.4353C398.21 13.2803 398.155 12.0153 396.505 12.0153C395.955 12.0153 381.985 13.6653 381.985 17.5703C381.985 20.0453 384.79 19.4403 385.285 21.3653C385.89 23.4003 385.78 31.3753 385.065 33.3003C384.405 35.0053 382.15 35.1153 382.15 37.0953C382.15 38.4153 382.535 40.5603 391.995 40.5603C394.47 40.5603 401.455 40.5603 401.455 36.8203C401.455 33.9053 398.21 36.2703 398.21 29.7803V14.4353ZM397.935 4.86532C397.935 2.11532 394.8 1.40032 392.6 1.40032C389.795 1.40032 382.535 2.88532 382.535 6.51532C382.535 9.21032 385.01 10.2553 387.32 10.2553C390.455 10.2553 397.935 9.15532 397.935 4.86532ZM402.995 26.2053C402.995 34.6203 409.705 40.7253 418.01 40.7253C425.71 40.7253 430.66 36.5453 430.66 33.3003C430.66 31.9803 429.67 30.3303 428.185 30.3303C427.03 30.3303 425.875 31.7603 422.41 31.7603C418.065 31.7603 415.04 27.6353 415.04 23.5653C415.04 21.3653 416.36 18.8903 418.78 18.8903C423.125 18.8903 420.375 25.7103 426.315 25.7103C429.395 25.7103 431.705 23.3453 431.705 20.2653C431.705 16.4153 427.36 11.8503 419.11 11.8503C409.87 11.8503 402.995 18.2853 402.995 26.2053ZM447.751 34.0703C447.751 30.3853 444.781 27.4153 441.096 27.4153C437.411 27.4153 434.441 30.3853 434.441 34.0703C434.441 37.7553 437.411 40.7253 441.096 40.7253C444.781 40.7253 447.751 37.7553 447.751 34.0703Z" fill="#F15A29"/>
</svg>
