<svg width="418" height="195" viewBox="0 0 418 195" fill="none" xmlns="http://www.w3.org/2000/svg">
<path d="M30.0619 28.4423C30.8418 30.2621 31.5351 31.4319 33.7015 31.4319C36.1712 31.4319 37.1678 29.1788 38.0777 26.8391L45.5302 7.34118C46.7001 4.30817 48.5199 4.87144 48.5199 2.74834C48.5199 0.32193 45.2703 0.105287 43.4938 0.105287C41.7173 0.105287 37.2978 -0.0247004 37.2978 2.61835C37.2978 5.00143 40.1141 4.0482 40.1141 5.91133C40.1141 6.51793 38.251 13.8838 36.7778 13.8838C35.7379 13.8838 34.7847 11.1974 34.4814 10.5042C34.0481 9.55094 32.575 6.86456 32.575 5.69469C32.575 4.61147 34.5247 4.22151 34.5247 2.79167C34.5247 2.05508 34.6981 0.105287 26.2923 0.105287C17.2366 0.105287 17.8432 2.70501 17.8432 2.96498C17.8432 4.0482 18.5798 4.6548 19.4464 5.08809C20.7462 5.82467 21.6561 8.51105 21.6561 8.90101C21.6561 9.20431 21.2228 10.3309 21.0928 10.5908C20.8762 11.2408 19.9663 14.3604 18.8398 14.3604C17.8432 14.3604 16.89 11.3274 16.6733 10.6342C16.5 10.1142 15.1568 6.95122 15.1568 5.69469C15.1568 4.3515 16.1534 4.17818 16.1534 2.87832C16.1534 1.10185 15.0702 0.105287 8.74417 0.105287C6.75105 0.105287 0.901672 0.191943 0.901672 3.18162C0.901672 5.82467 2.63482 4.22151 3.84802 7.34118L11.9072 27.9223C12.6871 29.9154 13.337 31.4319 15.7634 31.4319C18.5798 31.4319 19.0131 29.8288 19.923 27.5757L22.566 21.033C23.6926 18.26 23.9959 17.1335 24.8191 17.1335C25.5124 17.1335 25.859 18.4767 26.0756 18.9533L30.0619 28.4423ZM65.4946 20.9897C66.8811 20.9897 68.181 20.5998 68.181 17.7401C68.181 14.4904 64.9313 8.81435 57.5655 8.81435C51.0662 8.81435 45.3901 13.6672 45.3901 20.3398C45.3901 25.9292 49.4197 31.5619 57.2188 31.5619C61.1184 31.5619 67.2278 29.1355 67.2278 25.7992C67.2278 24.976 66.4478 23.6328 65.5379 23.6328C64.628 23.6328 63.0249 25.5826 59.7752 25.5826C57.7388 25.5826 54.9224 23.7628 54.9224 21.5963C54.9224 20.8597 55.6157 20.9897 56.0923 20.9897H65.4946ZM57.3055 16.8302C56.1789 16.8302 54.7058 17.1768 54.7058 15.617C54.7058 14.2304 55.8756 12.7573 57.3055 12.7573C58.9086 12.7573 59.8619 13.9705 59.8619 15.5303C59.8619 17.0901 58.4754 16.8302 57.3055 16.8302ZM94.5279 21.6397C95.7411 21.6397 95.6978 22.7229 95.6978 23.6761C95.6978 24.976 95.5678 26.7524 93.9213 26.7524C92.6648 26.7524 92.0582 25.5392 92.0582 24.4127C92.0582 23.0262 93.0547 21.6397 94.5279 21.6397ZM105.057 16.2669C105.057 9.76759 98.2975 8.81435 95.8277 8.81435C91.7115 8.81435 84.389 11.1974 84.389 14.8804C84.389 16.2669 85.4289 17.2635 86.8154 17.2635C90.6716 17.2635 90.9316 12.584 93.5313 12.584C95.5244 12.584 95.5678 15.5736 95.5678 17.0035C95.5678 18.5633 94.9612 18.4767 93.618 18.4767C85.9921 18.4767 83.0458 22.2896 83.0458 25.3659C83.0458 29.6555 86.6421 31.5619 90.2383 31.5619C92.2315 31.5619 93.5313 30.9987 94.4846 30.4354C95.4378 29.9154 96.0011 29.3522 96.521 29.3522C97.6042 29.3522 97.6909 31.5619 101.114 31.5619C104.277 31.5619 107.656 28.8755 107.656 26.4058C107.656 24.0661 105.057 28.2256 105.057 20.5998V16.2669ZM111.63 20.4264C111.63 21.6397 111.5 24.1094 111.153 25.1926C110.677 26.7091 108.684 26.7091 108.684 28.5289C108.684 31.5186 114.576 31.4319 116.569 31.4319C121.335 31.4319 125.148 31.2153 125.148 28.4856C125.148 25.8859 121.855 27.0557 121.595 25.1493C121.379 23.5028 121.249 21.683 121.249 20.3831C121.249 19.6032 121.032 16.7002 122.245 16.7002C123.372 16.7002 124.152 19.1699 126.968 19.1699C129.828 19.1699 132.298 16.8735 132.298 13.9705C132.298 11.1108 130.391 8.94434 127.488 8.94434C123.762 8.94434 123.112 12.3673 122.072 12.3673C121.335 12.3673 121.379 11.3707 121.335 10.8508C121.162 9.37763 121.119 8.94434 119.472 8.94434C119.082 8.94434 108.943 9.89757 108.943 13.3205C108.943 15.9636 111.63 13.5805 111.63 17.8267V20.4264ZM153.421 20.9897C154.808 20.9897 156.108 20.5998 156.108 17.7401C156.108 14.4904 152.858 8.81435 145.492 8.81435C138.993 8.81435 133.317 13.6672 133.317 20.3398C133.317 25.9292 137.346 31.5619 145.146 31.5619C149.045 31.5619 155.155 29.1355 155.155 25.7992C155.155 24.976 154.375 23.6328 153.465 23.6328C152.555 23.6328 150.952 25.5826 147.702 25.5826C145.666 25.5826 142.849 23.7628 142.849 21.5963C142.849 20.8597 143.542 20.9897 144.019 20.9897H153.421ZM145.232 16.8302C144.106 16.8302 142.633 17.1768 142.633 15.617C142.633 14.2304 143.802 12.7573 145.232 12.7573C146.835 12.7573 147.789 13.9705 147.789 15.5303C147.789 17.0901 146.402 16.8302 145.232 16.8302ZM183.018 31.5619C189.387 31.5619 197.013 27.2291 197.013 20.1231C197.013 14.7504 192.68 8.81435 185.098 8.81435C177.949 8.81435 171.146 13.1906 171.146 20.9464C171.146 27.7923 176.605 31.5619 183.018 31.5619ZM187.048 23.4161C187.048 24.8026 186.701 26.1892 185.054 26.1025C182.065 25.9292 181.285 19.2566 181.112 16.5269C181.025 15.2703 181.805 13.9271 183.235 13.9271C186.181 13.9271 187.048 21.4663 187.048 23.4161ZM210.697 20.3831C210.697 18.4333 210.437 15.4436 213.21 15.4436C217.283 15.4436 216.07 22.3762 215.853 25.4526C215.636 28.2689 214.206 27.5324 214.206 29.0922C214.206 31.5186 218.366 31.4319 219.926 31.4319C228.072 31.4319 227.898 29.6121 227.898 28.8322C227.898 26.9691 226.122 27.749 225.905 24.326C225.472 17.7401 226.988 8.94434 218.019 8.94434C215.55 8.94434 214.25 9.85424 213.383 10.7208C212.517 11.6307 212.127 12.5406 211.433 12.5406C210.784 12.5406 210.567 11.934 210.567 11.4141C210.567 11.1541 210.61 10.8941 210.61 10.6342C210.61 9.76759 210.004 8.94434 209.05 8.94434C208.184 8.94434 198.218 11.1108 198.218 13.4072C198.218 15.7036 200.861 14.6637 200.775 17.8701L200.601 24.3694C200.471 28.6156 198.478 26.7524 198.478 28.8322C198.478 31.4319 202.898 31.4319 204.631 31.4319C206.407 31.4319 212.17 31.5186 212.17 28.8322C212.17 27.1857 210.697 27.9223 210.697 23.7194V20.3831ZM249.176 20.9897C250.563 20.9897 251.863 20.5998 251.863 17.7401C251.863 14.4904 248.613 8.81435 241.247 8.81435C234.748 8.81435 229.072 13.6672 229.072 20.3398C229.072 25.9292 233.101 31.5619 240.9 31.5619C244.8 31.5619 250.909 29.1355 250.909 25.7992C250.909 24.976 250.129 23.6328 249.219 23.6328C248.31 23.6328 246.706 25.5826 243.457 25.5826C241.42 25.5826 238.604 23.7628 238.604 21.5963C238.604 20.8597 239.297 20.9897 239.774 20.9897H249.176ZM240.987 16.8302C239.86 16.8302 238.387 17.1768 238.387 15.617C238.387 14.2304 239.557 12.7573 240.987 12.7573C242.59 12.7573 243.543 13.9705 243.543 15.5303C243.543 17.0901 242.157 16.8302 240.987 16.8302ZM279.033 20.3831C279.033 18.4333 278.773 15.4436 281.546 15.4436C285.619 15.4436 284.405 22.3762 284.189 25.4526C283.972 28.2689 282.542 27.5324 282.542 29.0922C282.542 31.5186 286.702 31.4319 288.262 31.4319C296.407 31.4319 296.234 29.6121 296.234 28.8322C296.234 26.9691 294.458 27.749 294.241 24.326C293.808 17.7401 295.324 8.94434 286.355 8.94434C283.885 8.94434 282.586 9.85424 281.719 10.7208C280.852 11.6307 280.463 12.5406 279.769 12.5406C279.119 12.5406 278.903 11.934 278.903 11.4141C278.903 11.1541 278.946 10.8941 278.946 10.6342C278.946 9.76759 278.339 8.94434 277.386 8.94434C276.52 8.94434 266.554 11.1108 266.554 13.4072C266.554 15.7036 269.197 14.6637 269.11 17.8701L268.937 24.3694C268.807 28.6156 266.814 26.7524 266.814 28.8322C266.814 31.4319 271.234 31.4319 272.967 31.4319C274.743 31.4319 280.506 31.5186 280.506 28.8322C280.506 27.1857 279.033 27.9223 279.033 23.7194V20.3831ZM308.76 21.6397C309.973 21.6397 309.929 22.7229 309.929 23.6761C309.929 24.976 309.799 26.7524 308.153 26.7524C306.896 26.7524 306.29 25.5392 306.29 24.4127C306.29 23.0262 307.286 21.6397 308.76 21.6397ZM319.288 16.2669C319.288 9.76759 312.529 8.81435 310.059 8.81435C305.943 8.81435 298.621 11.1974 298.621 14.8804C298.621 16.2669 299.661 17.2635 301.047 17.2635C304.903 17.2635 305.163 12.584 307.763 12.584C309.756 12.584 309.799 15.5736 309.799 17.0035C309.799 18.5633 309.193 18.4767 307.85 18.4767C300.224 18.4767 297.277 22.2896 297.277 25.3659C297.277 29.6555 300.874 31.5619 304.47 31.5619C306.463 31.5619 307.763 30.9987 308.716 30.4354C309.669 29.9154 310.233 29.3522 310.753 29.3522C311.836 29.3522 311.923 31.5619 315.346 31.5619C318.509 31.5619 321.888 28.8755 321.888 26.4058C321.888 24.0661 319.288 28.2256 319.288 20.5998V16.2669ZM336.52 15.1403C336.52 13.5805 336.607 13.5372 338.124 13.5372H341.113C342.803 13.5372 343.106 13.3639 343.106 10.8941C343.106 8.94434 343.106 8.81435 341.243 8.81435H338.21C337.084 8.81435 336.78 8.81435 336.65 8.46772C336.434 7.94778 336.52 6.60459 336.52 5.2614C336.52 3.26828 336.434 3.44159 334.701 3.44159C333.401 3.44159 333.444 3.31161 332.447 3.91821L322.569 10.2009C322.049 10.5475 322.179 11.0241 322.179 11.6307C322.179 12.6273 322.092 13.0606 322.395 13.3639C322.612 13.5805 323.175 13.5372 324.302 13.5372C325.298 13.5372 325.775 13.4505 325.991 13.5805C326.208 13.7105 326.208 14.0138 326.208 14.7937V23.7194C326.208 30.6087 331.754 31.5619 333.964 31.5619C338.34 31.5619 343.28 29.0489 343.28 26.1892C343.28 25.4092 342.673 24.196 341.806 24.196C341.027 24.196 340.247 25.1926 338.903 25.1926C337.734 25.1926 336.52 24.4993 336.52 21.5963V15.1403ZM356.811 10.8508C356.811 9.9409 356.768 8.94434 355.468 8.94434C355.035 8.94434 344.029 10.2442 344.029 13.3205C344.029 15.2703 346.239 14.7937 346.629 16.3102C347.106 17.9134 347.019 24.196 346.456 25.7125C345.936 27.0557 344.159 27.1424 344.159 28.7022C344.159 29.7421 344.463 31.4319 351.915 31.4319C353.865 31.4319 359.368 31.4319 359.368 28.4856C359.368 26.1892 356.811 28.0523 356.811 22.9395V10.8508ZM356.595 3.31161C356.595 1.14517 354.125 0.581901 352.392 0.581901C350.182 0.581901 344.463 1.75178 344.463 4.61147C344.463 6.73458 346.413 7.55782 348.232 7.55782C350.702 7.55782 356.595 6.69125 356.595 3.31161ZM372.496 31.5619C378.866 31.5619 386.492 27.2291 386.492 20.1231C386.492 14.7504 382.159 8.81435 374.576 8.81435C367.427 8.81435 360.624 13.1906 360.624 20.9464C360.624 27.7923 366.084 31.5619 372.496 31.5619ZM376.526 23.4161C376.526 24.8026 376.179 26.1892 374.533 26.1025C371.543 25.9292 370.763 19.2566 370.59 16.5269C370.503 15.2703 371.283 13.9271 372.713 13.9271C375.659 13.9271 376.526 21.4663 376.526 23.4161ZM400.175 20.3831C400.175 18.4333 399.915 15.4436 402.688 15.4436C406.761 15.4436 405.548 22.3762 405.331 25.4526C405.115 28.2689 403.685 27.5324 403.685 29.0922C403.685 31.5186 407.845 31.4319 409.404 31.4319C417.55 31.4319 417.377 29.6121 417.377 28.8322C417.377 26.9691 415.6 27.749 415.384 24.326C414.95 17.7401 416.467 8.94434 407.498 8.94434C405.028 8.94434 403.728 9.85424 402.862 10.7208C401.995 11.6307 401.605 12.5406 400.912 12.5406C400.262 12.5406 400.045 11.934 400.045 11.4141C400.045 11.1541 400.089 10.8941 400.089 10.6342C400.089 9.76759 399.482 8.94434 398.529 8.94434C397.662 8.94434 387.697 11.1108 387.697 13.4072C387.697 15.7036 390.34 14.6637 390.253 17.8701L390.08 24.3694C389.95 28.6156 387.957 26.7524 387.957 28.8322C387.957 31.4319 392.376 31.4319 394.109 31.4319C395.886 31.4319 401.648 31.5186 401.648 28.8322C401.648 27.1857 400.175 27.9223 400.175 23.7194V20.3831ZM40.1989 62.5908C40.1989 61.5076 40.069 60.9443 38.8557 60.9443C38.5091 60.9443 27.5903 61.0743 27.5903 63.8474C27.5903 66.7071 30.58 63.804 30.58 70.4333C30.58 76.9326 29.8867 83.4319 38.1192 83.4319C40.0256 83.4319 41.4121 82.782 42.452 82.1321C43.4919 81.4821 44.1852 80.8322 44.6618 80.8322C46.3949 80.8322 44.1852 83.4319 47.5215 83.4319C49.9046 83.4319 57.5737 82.6087 57.5737 79.6623C57.5737 77.5826 55.1907 78.7958 55.1907 76.196V67.487C55.1907 66.1005 55.2773 64.7573 55.2773 63.3707C55.2773 61.8542 54.6274 60.9443 53.0676 60.9443C51.4211 60.9443 42.712 61.3776 42.712 63.934C42.712 65.7538 44.8351 65.0172 45.1817 67.1837C45.3984 68.5702 45.3551 70.4333 45.3551 71.8632C45.3551 73.943 45.7883 78.0159 42.6687 78.0159C40.3289 78.0159 40.1989 75.3295 40.1989 73.5963V62.5908ZM70.9153 72.3831C70.9153 70.4333 70.6553 67.4436 73.4283 67.4436C77.5012 67.4436 76.288 74.3762 76.0714 77.4526C75.8547 80.2689 74.4249 79.5324 74.4249 81.0922C74.4249 83.5186 78.5844 83.4319 80.1443 83.4319C88.2901 83.4319 88.1168 81.6121 88.1168 80.8322C88.1168 78.9691 86.3403 79.749 86.1236 76.326C85.6904 69.7401 87.2069 60.9443 78.2378 60.9443C75.7681 60.9443 74.4682 61.8542 73.6016 62.7208C72.7351 63.6307 72.3451 64.5406 71.6519 64.5406C71.0019 64.5406 70.7853 63.934 70.7853 63.4141C70.7853 63.1541 70.8286 62.8941 70.8286 62.6342C70.8286 61.7676 70.222 60.9443 69.2688 60.9443C68.4022 60.9443 58.4366 63.1108 58.4366 65.4072C58.4366 67.7036 61.0796 66.6637 60.993 69.8701L60.8197 76.3694C60.6897 80.6156 58.6966 78.7524 58.6966 80.8322C58.6966 83.4319 63.1161 83.4319 64.8492 83.4319C66.6257 83.4319 72.3884 83.5186 72.3884 80.8322C72.3884 79.1857 70.9153 79.9223 70.9153 75.7194V72.3831ZM105.842 70.9099C105.842 72.8164 106.015 78.1458 103.112 78.1458C100.426 78.1458 99.9056 74.5929 99.9056 72.5564C99.9056 70.52 100.426 65.5372 103.329 65.5372C105.842 65.5372 105.842 69.2201 105.842 70.9099ZM115.417 54.9217C115.417 53.4918 115.114 52.5819 113.814 52.5819C113.684 52.5819 102.635 53.4051 102.635 56.6115C102.635 58.9512 105.798 57.5214 105.798 60.2078C105.798 60.6844 105.755 62.1142 105.105 62.1142C104.628 62.1142 102.939 60.8144 99.9489 60.8144C93.9695 60.8144 89.29 66.4471 89.29 72.2098C89.29 77.5392 93.7096 83.5619 99.3856 83.5619C101.292 83.5619 102.635 82.912 103.632 82.3054C104.628 81.6555 105.278 81.0489 105.668 81.0489C107.098 81.0489 105.538 83.4319 107.748 83.4319C108.225 83.4319 117.714 83.2153 117.714 79.9223C117.714 77.6692 115.417 78.6658 115.417 75.6328V54.9217ZM138.971 72.9897C140.358 72.9897 141.658 72.5998 141.658 69.7401C141.658 66.4904 138.408 60.8144 131.042 60.8144C124.543 60.8144 118.867 65.6672 118.867 72.3398C118.867 77.9292 122.896 83.5619 130.696 83.5619C134.595 83.5619 140.705 81.1355 140.705 77.7992C140.705 76.976 139.925 75.6328 139.015 75.6328C138.105 75.6328 136.502 77.5826 133.252 77.5826C131.216 77.5826 128.399 75.7628 128.399 73.5963C128.399 72.8597 129.093 72.9897 129.569 72.9897H138.971ZM130.782 68.8302C129.656 68.8302 128.183 69.1768 128.183 67.617C128.183 66.2304 129.352 64.7573 130.782 64.7573C132.385 64.7573 133.339 65.9705 133.339 67.5303C133.339 69.0901 131.952 68.8302 130.782 68.8302ZM145.628 72.4264C145.628 73.6397 145.499 76.1094 145.152 77.1926C144.675 78.7091 142.682 78.7091 142.682 80.5289C142.682 83.5186 148.575 83.4319 150.568 83.4319C155.334 83.4319 159.147 83.2153 159.147 80.4856C159.147 77.8859 155.854 79.0557 155.594 77.1493C155.377 75.5028 155.247 73.683 155.247 72.3831C155.247 71.6032 155.031 68.7002 156.244 68.7002C157.371 68.7002 158.15 71.1699 160.967 71.1699C163.827 71.1699 166.296 68.8735 166.296 65.9705C166.296 63.1108 164.39 60.9443 161.487 60.9443C157.761 60.9443 157.111 64.3673 156.071 64.3673C155.334 64.3673 155.377 63.3707 155.334 62.8508C155.161 61.3776 155.117 60.9443 153.471 60.9443C153.081 60.9443 142.942 61.8976 142.942 65.3205C142.942 67.9636 145.628 65.5805 145.628 69.8267V72.4264ZM192.335 73.6397C193.548 73.6397 193.505 74.7229 193.505 75.6761C193.505 76.976 193.375 78.7524 191.728 78.7524C190.472 78.7524 189.865 77.5392 189.865 76.4127C189.865 75.0262 190.862 73.6397 192.335 73.6397ZM202.864 68.2669C202.864 61.7676 196.104 60.8144 193.635 60.8144C189.518 60.8144 182.196 63.1974 182.196 66.8804C182.196 68.2669 183.236 69.2635 184.622 69.2635C188.479 69.2635 188.739 64.584 191.338 64.584C193.331 64.584 193.375 67.5736 193.375 69.0035C193.375 70.5633 192.768 70.4767 191.425 70.4767C183.799 70.4767 180.853 74.2896 180.853 77.3659C180.853 81.6555 184.449 83.5619 188.045 83.5619C190.038 83.5619 191.338 82.9987 192.291 82.4354C193.245 81.9154 193.808 81.3522 194.328 81.3522C195.411 81.3522 195.498 83.5619 198.921 83.5619C202.084 83.5619 205.463 80.8755 205.463 78.4058C205.463 76.0661 202.864 80.2256 202.864 72.5998V68.2669ZM234.889 69.2201C234.889 70.9099 234.239 72.5998 232.29 72.5998C230.08 72.5998 229.647 69.0035 229.647 67.357C229.647 65.8405 230.383 64.2373 232.073 64.2373C234.499 64.2373 234.889 67.4436 234.889 69.2201ZM226.744 85.1218C226.744 84.8185 226.874 84.4285 227.263 84.4285C227.74 84.4285 230.08 84.7751 231.076 84.7751C232.463 84.7751 234.153 84.5152 234.803 84.5152C235.626 84.5152 236.493 84.9051 236.493 85.815C236.493 87.8081 233.243 88.0248 231.813 88.0248C230.123 88.0248 226.744 87.4182 226.744 85.1218ZM245.722 82.6087C245.722 80.009 243.815 77.4526 239.309 77.4526C237.576 77.4526 232.55 78.1892 231.206 78.1892C230.21 78.1892 228.303 77.9292 228.303 76.586C228.303 75.8927 228.737 75.4161 229.473 75.4161C230.253 75.4161 230.99 75.5461 231.726 75.5461C236.493 75.5461 243.295 73.553 243.295 67.7036C243.295 67.2703 243.165 66.7937 243.165 66.3604C243.165 65.8838 245.592 64.1507 245.592 61.7243C245.592 60.901 245.158 59.6012 244.162 59.6012C243.512 59.6012 241.865 61.8976 238.572 61.8976C237.056 61.8976 234.066 61.0743 231.856 61.0743C227.48 61.0743 220.938 63.5007 220.938 68.7435C220.938 71.9498 223.884 73.943 223.884 74.4629C223.884 75.0695 220.374 75.9794 220.374 79.0557C220.374 80.9622 222.714 82.1754 222.714 82.7387C222.714 83.3886 220.331 83.4319 220.331 85.945C220.331 88.718 223.364 91.751 231.38 91.751C241.995 91.751 245.722 86.5083 245.722 82.6087ZM249.423 72.4264C249.423 73.6397 249.293 76.1094 248.946 77.1926C248.469 78.7091 246.476 78.7091 246.476 80.5289C246.476 83.5186 252.369 83.4319 254.362 83.4319C259.128 83.4319 262.941 83.2153 262.941 80.4856C262.941 77.8859 259.648 79.0557 259.388 77.1493C259.172 75.5028 259.042 73.683 259.042 72.3831C259.042 71.6032 258.825 68.7002 260.038 68.7002C261.165 68.7002 261.945 71.1699 264.761 71.1699C267.621 71.1699 270.091 68.8735 270.091 65.9705C270.091 63.1108 268.184 60.9443 265.281 60.9443C261.555 60.9443 260.905 64.3673 259.865 64.3673C259.128 64.3673 259.172 63.3707 259.128 62.8508C258.955 61.3776 258.912 60.9443 257.265 60.9443C256.875 60.9443 246.736 61.8976 246.736 65.3205C246.736 67.9636 249.423 65.5805 249.423 69.8267V72.4264ZM283.025 83.5619C289.394 83.5619 297.02 79.2291 297.02 72.1231C297.02 66.7504 292.687 60.8144 285.105 60.8144C277.956 60.8144 271.153 65.1906 271.153 72.9464C271.153 79.7923 276.613 83.5619 283.025 83.5619ZM287.055 75.4161C287.055 76.8026 286.708 78.1892 285.062 78.1025C282.072 77.9292 281.292 71.2566 281.119 68.5269C281.032 67.2703 281.812 65.9271 283.242 65.9271C286.188 65.9271 287.055 73.4663 287.055 75.4161ZM310.444 83.5619C316.813 83.5619 324.439 79.2291 324.439 72.1231C324.439 66.7504 320.106 60.8144 312.524 60.8144C305.375 60.8144 298.572 65.1906 298.572 72.9464C298.572 79.7923 304.031 83.5619 310.444 83.5619ZM314.474 75.4161C314.474 76.8026 314.127 78.1892 312.481 78.1025C309.491 77.9292 308.711 71.2566 308.538 68.5269C308.451 67.2703 309.231 65.9271 310.661 65.9271C313.607 65.9271 314.474 73.4663 314.474 75.4161ZM335.827 80.3989C336.52 81.6988 337.603 83.5619 339.293 83.5619C340.289 83.5619 341.459 82.9553 342.889 80.2256L349.995 66.4038C351.252 63.9774 354.068 64.9306 354.068 62.8508C354.068 60.9443 350.818 60.9443 349.562 60.9443C348.262 60.9443 343.496 60.771 343.496 62.9375C343.496 64.194 344.969 64.6273 344.969 65.7105C344.969 66.5771 343.452 70.26 341.979 70.26C340.896 70.26 339.293 67.0104 339.293 66.0138C339.293 64.8873 340.939 64.584 340.939 63.1541C340.939 60.8577 335.133 60.9443 333.617 60.9443C325.471 60.9443 324.908 62.4608 324.908 63.5441C324.908 65.8838 327.334 64.5406 328.591 66.9237L335.827 80.3989ZM374.614 72.9897C376 72.9897 377.3 72.5998 377.3 69.7401C377.3 66.4904 374.05 60.8144 366.684 60.8144C360.185 60.8144 354.509 65.6672 354.509 72.3398C354.509 77.9292 358.539 83.5619 366.338 83.5619C370.237 83.5619 376.347 81.1355 376.347 77.7992C376.347 76.976 375.567 75.6328 374.657 75.6328C373.747 75.6328 372.144 77.5826 368.894 77.5826C366.858 77.5826 364.041 75.7628 364.041 73.5963C364.041 72.8597 364.735 72.9897 365.211 72.9897H374.614ZM366.424 68.8302C365.298 68.8302 363.825 69.1768 363.825 67.617C363.825 66.2304 364.995 64.7573 366.424 64.7573C368.028 64.7573 368.981 65.9705 368.981 67.5303C368.981 69.0901 367.594 68.8302 366.424 68.8302ZM384.044 90.9711C387.467 90.9711 390.11 83.9086 390.11 80.0523C390.11 76.586 388.29 72.7731 384.347 72.7731C381.531 72.7731 379.278 75.2428 379.278 78.0159C379.278 83.2586 384.044 82.3487 384.044 84.2119C384.044 85.945 381.877 88.5447 381.877 89.2813C381.877 90.2779 383.134 90.9711 384.044 90.9711ZM98.2007 112.814C93.7378 112.814 90.1849 115.544 90.1849 119.877C90.1849 127.026 98.6773 127.329 98.6773 129.886C98.6773 130.839 97.854 131.272 96.9875 131.272C94.5611 131.272 92.8279 126.983 90.9214 126.983C89.6649 126.983 89.275 127.893 89.275 129.019C89.275 130.666 90.3582 133.136 91.4414 134.349C92.048 135.042 92.4813 135.172 93.3479 135.172C93.6512 135.172 93.9111 135.129 94.1711 135.085C94.4744 135.042 94.7344 134.999 95.0377 134.999C95.2976 134.999 96.2509 135.129 97.3341 135.259C98.4173 135.432 99.6738 135.562 100.54 135.562C105.047 135.562 108.99 132.746 108.99 128.673C108.99 121.957 99.4572 121.437 99.4572 118.664C99.4572 117.84 100.237 117.191 101.017 117.191C102.923 117.191 104.31 120.614 106.78 120.614C107.906 120.614 108.903 119.747 108.903 118.577C108.903 116.801 106.91 112.814 104.917 112.814C104.527 112.814 104.137 112.944 103.747 113.074C103.357 113.248 103.01 113.378 102.577 113.378C102.274 113.378 101.58 113.248 100.8 113.074C99.9771 112.944 99.0672 112.814 98.2007 112.814ZM122.637 135.562C129.006 135.562 136.632 131.229 136.632 124.123C136.632 118.75 132.299 112.814 124.717 112.814C117.568 112.814 110.765 117.191 110.765 124.946C110.765 131.792 116.224 135.562 122.637 135.562ZM126.667 127.416C126.667 128.803 126.32 130.189 124.673 130.103C121.684 129.929 120.904 123.257 120.731 120.527C120.644 119.27 121.424 117.927 122.854 117.927C125.8 117.927 126.667 125.466 126.667 127.416ZM150.966 118.794C150.966 112.598 151.529 107.832 151.529 106.835C151.529 105.535 151.183 104.582 149.709 104.582C149.103 104.582 137.837 105.492 137.837 109.261C137.837 111.731 140.394 110.605 141.044 113.811C141.434 115.761 141.347 119.01 141.347 120.7C141.347 122.823 141.347 128.239 140.784 130.016C140.264 131.619 138.401 131.056 138.401 132.572C138.401 135.649 144.467 135.432 146.416 135.432C148.28 135.432 153.566 135.649 153.566 132.746C153.566 130.926 151.616 131.662 151.139 130.103C150.923 129.409 150.966 127.979 150.966 127.199V118.794ZM171.321 122.91C171.321 124.816 171.495 130.146 168.592 130.146C165.905 130.146 165.385 126.593 165.385 124.556C165.385 122.52 165.905 117.537 168.808 117.537C171.321 117.537 171.321 121.22 171.321 122.91ZM180.897 106.922C180.897 105.492 180.594 104.582 179.294 104.582C179.164 104.582 168.115 105.405 168.115 108.611C168.115 110.951 171.278 109.521 171.278 112.208C171.278 112.684 171.235 114.114 170.585 114.114C170.108 114.114 168.418 112.814 165.429 112.814C159.449 112.814 154.77 118.447 154.77 124.21C154.77 129.539 159.189 135.562 164.865 135.562C166.772 135.562 168.115 134.912 169.111 134.305C170.108 133.655 170.758 133.049 171.148 133.049C172.578 133.049 171.018 135.432 173.228 135.432C173.704 135.432 183.193 135.215 183.193 131.922C183.193 129.669 180.897 130.666 180.897 127.633V106.922ZM196.825 114.851C196.825 113.941 196.782 112.944 195.482 112.944C195.049 112.944 184.043 114.244 184.043 117.321C184.043 119.27 186.253 118.794 186.643 120.31C187.12 121.913 187.033 128.196 186.47 129.713C185.95 131.056 184.173 131.142 184.173 132.702C184.173 133.742 184.477 135.432 191.929 135.432C193.879 135.432 199.382 135.432 199.382 132.486C199.382 130.189 196.825 132.052 196.825 126.94V114.851ZM196.609 107.312C196.609 105.145 194.139 104.582 192.406 104.582C190.196 104.582 184.477 105.752 184.477 108.611C184.477 110.735 186.426 111.558 188.246 111.558C190.716 111.558 196.609 110.691 196.609 107.312ZM220.699 124.99C222.086 124.99 223.386 124.6 223.386 121.74C223.386 118.49 220.136 112.814 212.77 112.814C206.271 112.814 200.595 117.667 200.595 124.34C200.595 129.929 204.624 135.562 212.424 135.562C216.323 135.562 222.433 133.136 222.433 129.799C222.433 128.976 221.653 127.633 220.743 127.633C219.833 127.633 218.23 129.583 214.98 129.583C212.944 129.583 210.127 127.763 210.127 125.596C210.127 124.86 210.82 124.99 211.297 124.99H220.699ZM212.51 120.83C211.384 120.83 209.911 121.177 209.911 119.617C209.911 118.23 211.08 116.757 212.51 116.757C214.113 116.757 215.067 117.97 215.067 119.53C215.067 121.09 213.68 120.83 212.51 120.83ZM227.356 124.426C227.356 125.64 227.226 128.109 226.88 129.193C226.403 130.709 224.41 130.709 224.41 132.529C224.41 135.519 230.303 135.432 232.296 135.432C237.062 135.432 240.875 135.215 240.875 132.486C240.875 129.886 237.582 131.056 237.322 129.149C237.105 127.503 236.975 125.683 236.975 124.383C236.975 123.603 236.759 120.7 237.972 120.7C239.098 120.7 239.878 123.17 242.695 123.17C245.554 123.17 248.024 120.873 248.024 117.97C248.024 115.111 246.118 112.944 243.215 112.944C239.488 112.944 238.839 116.367 237.799 116.367C237.062 116.367 237.105 115.371 237.062 114.851C236.889 113.378 236.845 112.944 235.199 112.944C234.809 112.944 224.67 113.898 224.67 117.321C224.67 119.964 227.356 117.581 227.356 121.827V124.426ZM258.229 112.814C253.766 112.814 250.213 115.544 250.213 119.877C250.213 127.026 258.706 127.329 258.706 129.886C258.706 130.839 257.882 131.272 257.016 131.272C254.59 131.272 252.856 126.983 250.95 126.983C249.693 126.983 249.303 127.893 249.303 129.019C249.303 130.666 250.387 133.136 251.47 134.349C252.076 135.042 252.51 135.172 253.376 135.172C253.68 135.172 253.94 135.129 254.2 135.085C254.503 135.042 254.763 134.999 255.066 134.999C255.326 134.999 256.279 135.129 257.363 135.259C258.446 135.432 259.702 135.562 260.569 135.562C265.075 135.562 269.018 132.746 269.018 128.673C269.018 121.957 259.486 121.437 259.486 118.664C259.486 117.84 260.266 117.191 261.045 117.191C262.952 117.191 264.338 120.614 266.808 120.614C267.935 120.614 268.931 119.747 268.931 118.577C268.931 116.801 266.938 112.814 264.945 112.814C264.555 112.814 264.165 112.944 263.775 113.074C263.385 113.248 263.039 113.378 262.605 113.378C262.302 113.378 261.609 113.248 260.829 113.074C260.006 112.944 259.096 112.814 258.229 112.814ZM296.333 135.562C302.702 135.562 310.328 131.229 310.328 124.123C310.328 118.75 305.995 112.814 298.412 112.814C291.263 112.814 284.461 117.191 284.461 124.946C284.461 131.792 289.92 135.562 296.333 135.562ZM300.362 127.416C300.362 128.803 300.016 130.189 298.369 130.103C295.379 129.929 294.599 123.257 294.426 120.527C294.34 119.27 295.119 117.927 296.549 117.927C299.496 117.927 300.362 125.466 300.362 127.416ZM314.696 128.413C314.523 131.056 311.49 129.929 311.49 132.356C311.49 135.389 317.079 135.432 319.159 135.432C328.908 135.432 328.994 133.309 328.994 132.269C328.994 129.583 325.918 130.969 325.138 128.369C324.835 127.243 324.705 125.726 324.705 124.513C324.705 121.653 325.138 121.697 327.695 121.697C328.301 121.697 328.778 121.61 328.821 120.96L329.038 117.797C329.124 116.497 326.655 116.974 324.835 116.974C324.402 116.974 324.358 116.844 324.228 116.497C323.448 114.591 318.942 113.681 318.942 110.951C318.942 110.085 319.549 109.391 320.415 109.391C322.885 109.391 323.362 113.291 327.131 113.291C328.951 113.291 330.424 111.774 330.424 109.955C330.424 108.092 328.778 104.365 321.715 104.365C317.382 104.365 312.053 106.098 312.053 111.255C312.053 113.984 313.699 115.587 313.699 116.411C313.699 117.147 313.006 117.191 312.486 117.234C311.186 117.321 311.446 117.71 311.446 121.133C311.446 121.913 312.789 121.697 313.309 121.697C314.696 121.697 315.129 122.39 315.043 123.733L314.696 128.413ZM41.9052 156.582C40.172 156.582 39.0022 156.409 38.1789 156.279C37.3557 156.105 36.879 155.975 36.5757 155.975C34.106 155.975 30.9863 160.785 30.9863 164.468C30.9863 166.028 31.9829 167.587 33.6727 167.587C37.1823 167.587 38.1356 162.475 40.0854 162.475C40.692 162.475 41.6019 162.431 41.4286 166.981L41.0819 176.556C41.0386 177.64 40.8653 180.239 40.432 181.149C39.5654 182.796 36.879 181.886 36.879 184.182C36.879 187.519 44.9815 187.432 47.1913 187.432C55.2937 187.432 56.117 185.525 56.117 184.182C56.117 181.149 52.1308 183.619 52.1308 178.463V165.161C52.1308 164.814 51.9574 162.475 53.6473 162.475C55.857 162.475 55.8137 167.587 59.5833 167.587C61.7931 167.587 62.9196 166.158 62.9196 163.991C62.9196 159.312 59.41 155.975 57.7202 155.975C56.8969 155.975 56.5503 156.105 55.9437 156.279C55.2937 156.409 54.4272 156.582 52.564 156.582H41.9052ZM91.0965 173.523C91.0531 172.31 91.6164 164.814 83.6439 164.814C78.7911 164.814 78.2278 168.671 76.928 168.671C75.8014 168.671 75.8448 167.284 75.8881 166.461L76.1481 158.228C76.1481 156.972 76.0614 156.582 74.7615 156.582C74.7182 156.582 63.4527 157.492 63.4527 160.958C63.4527 162.995 66.0525 161.911 66.1391 164.988C66.1825 166.937 66.3124 168.931 66.3124 170.88C66.3124 173.263 66.3124 178.983 65.7925 181.019C65.0559 183.836 63.3661 183.056 63.3661 184.789C63.3661 186.132 64.7959 187.432 70.9919 187.432C72.6384 187.432 77.5779 187.389 77.5779 184.876C77.5779 183.316 75.8448 184.052 75.8448 180.456V175.43C75.8448 173.48 75.7581 171.227 78.4011 171.227C81.4775 171.227 81.5208 175.3 81.5208 177.466C81.5208 178.896 81.4775 180.413 81.2175 181.799C80.8709 184.009 79.6577 183.966 79.6577 185.222C79.6577 187.432 84.9005 187.432 86.2436 187.432C87.8468 187.432 93.3929 187.475 93.3929 184.962C93.3929 183.272 91.2698 184.182 91.2698 180.499L91.0965 173.523ZM114.663 176.99C116.049 176.99 117.349 176.6 117.349 173.74C117.349 170.49 114.099 164.814 106.733 164.814C100.234 164.814 94.558 169.667 94.558 176.34C94.558 181.929 98.5876 187.562 106.387 187.562C110.286 187.562 116.396 185.136 116.396 181.799C116.396 180.976 115.616 179.633 114.706 179.633C113.796 179.633 112.193 181.583 108.943 181.583C106.907 181.583 104.09 179.763 104.09 177.596C104.09 176.86 104.784 176.99 105.26 176.99H114.663ZM106.473 172.83C105.347 172.83 103.874 173.177 103.874 171.617C103.874 170.23 105.044 168.757 106.473 168.757C108.077 168.757 109.03 169.97 109.03 171.53C109.03 173.09 107.643 172.83 106.473 172.83ZM142.526 156.582C140.793 156.582 139.623 156.409 138.8 156.279C137.976 156.105 137.5 155.975 137.196 155.975C134.727 155.975 131.607 160.785 131.607 164.468C131.607 166.028 132.604 167.587 134.293 167.587C137.803 167.587 138.756 162.475 140.706 162.475C141.313 162.475 142.223 162.431 142.049 166.981L141.703 176.556C141.659 177.64 141.486 180.239 141.053 181.149C140.186 182.796 137.5 181.886 137.5 184.182C137.5 187.519 145.602 187.432 147.812 187.432C155.914 187.432 156.738 185.525 156.738 184.182C156.738 181.149 152.751 183.619 152.751 178.463V165.161C152.751 164.814 152.578 162.475 154.268 162.475C156.478 162.475 156.434 167.587 160.204 167.587C162.414 167.587 163.54 166.158 163.54 163.991C163.54 159.312 160.031 155.975 158.341 155.975C157.518 155.975 157.171 156.105 156.564 156.279C155.914 156.409 155.048 156.582 153.185 156.582H142.526ZM174.428 187.562C180.798 187.562 188.424 183.229 188.424 176.123C188.424 170.75 184.091 164.814 176.508 164.814C169.359 164.814 162.556 169.191 162.556 176.946C162.556 183.792 168.016 187.562 174.428 187.562ZM178.458 179.416C178.458 180.803 178.111 182.189 176.465 182.103C173.475 181.929 172.695 175.257 172.522 172.527C172.435 171.27 173.215 169.927 174.645 169.927C177.591 169.927 178.458 177.466 178.458 179.416ZM202.107 176.383C202.107 174.433 201.847 171.444 204.62 171.444C208.693 171.444 207.48 178.376 207.263 181.453C207.047 184.269 205.617 183.532 205.617 185.092C205.617 187.519 209.776 187.432 211.336 187.432C219.482 187.432 219.309 185.612 219.309 184.832C219.309 182.969 217.532 183.749 217.316 180.326C216.882 173.74 218.399 164.944 209.43 164.944C206.96 164.944 205.66 165.854 204.794 166.721C203.927 167.631 203.537 168.541 202.844 168.541C202.194 168.541 201.977 167.934 201.977 167.414C201.977 167.154 202.021 166.894 202.021 166.634C202.021 165.768 201.414 164.944 200.461 164.944C199.594 164.944 189.629 167.111 189.629 169.407C189.629 171.704 192.272 170.664 192.185 173.87L192.012 180.369C191.882 184.616 189.889 182.752 189.889 184.832C189.889 187.432 194.308 187.432 196.041 187.432C197.818 187.432 203.58 187.519 203.58 184.832C203.58 183.186 202.107 183.922 202.107 179.719V176.383ZM240.587 176.99C241.973 176.99 243.273 176.6 243.273 173.74C243.273 170.49 240.023 164.814 232.657 164.814C226.158 164.814 220.482 169.667 220.482 176.34C220.482 181.929 224.512 187.562 232.311 187.562C236.21 187.562 242.32 185.136 242.32 181.799C242.32 180.976 241.54 179.633 240.63 179.633C239.72 179.633 238.117 181.583 234.867 181.583C232.831 181.583 230.014 179.763 230.014 177.596C230.014 176.86 230.708 176.99 231.184 176.99H240.587ZM232.397 172.83C231.271 172.83 229.798 173.177 229.798 171.617C229.798 170.23 230.968 168.757 232.397 168.757C234.001 168.757 234.954 169.97 234.954 171.53C234.954 173.09 233.567 172.83 232.397 172.83ZM272.22 174.433C271.743 174.433 270.66 174.563 270.66 173.827C270.66 173.307 271.396 171.617 271.57 171.14C271.743 170.664 272.48 168.064 273.519 168.064C274.473 168.064 275.209 169.667 275.599 170.36C275.946 170.967 277.202 173.22 277.202 173.87C277.202 174.52 275.902 174.433 275.469 174.433H272.22ZM263.64 177.25C262.991 178.636 262.081 180.716 261.127 181.886C259.871 183.446 257.531 182.839 257.531 184.876C257.531 186.262 258.094 187.432 264.29 187.432C266.024 187.432 270.703 187.389 270.703 184.789C270.703 182.536 267.93 183.662 267.93 181.973C267.93 179.849 269.273 179.763 271.526 179.763C278.502 179.763 279.585 179.936 279.585 181.886C279.585 183.402 276.942 182.622 276.942 184.702C276.942 187.389 280.669 187.432 286.865 187.432C289.031 187.432 295.184 187.562 295.184 184.399C295.184 181.929 292.844 183.922 291.414 180.629C289.854 177.076 283.312 163.818 282.575 162.561C280.885 159.702 278.502 155.845 274.733 155.845C270.876 155.845 269.49 158.098 269.49 161.088C269.49 164.511 267.713 168.324 266.37 171.314L263.64 177.25ZM298.57 176.426C298.57 177.64 298.44 180.109 298.093 181.193C297.616 182.709 295.623 182.709 295.623 184.529C295.623 187.519 301.516 187.432 303.509 187.432C308.275 187.432 312.088 187.215 312.088 184.486C312.088 181.886 308.795 183.056 308.535 181.149C308.318 179.503 308.188 177.683 308.188 176.383C308.188 175.603 307.972 172.7 309.185 172.7C310.312 172.7 311.092 175.17 313.908 175.17C316.768 175.17 319.237 172.873 319.237 169.97C319.237 167.111 317.331 164.944 314.428 164.944C310.702 164.944 310.052 168.367 309.012 168.367C308.275 168.367 308.318 167.371 308.275 166.851C308.102 165.378 308.059 164.944 306.412 164.944C306.022 164.944 295.883 165.898 295.883 169.321C295.883 171.964 298.57 169.581 298.57 173.827V176.426ZM323.018 178.853C323.018 184.269 320.419 183.229 320.419 185.179C320.419 187.475 325.531 187.432 327.221 187.432C333.157 187.432 334.154 185.915 334.154 184.789C334.154 183.229 332.984 183.489 332.984 179.503V175.993C332.984 174.39 332.767 171.444 335.194 171.444C337.663 171.444 337.447 175.343 337.447 176.903V179.373C337.577 184.529 335.41 182.709 335.367 185.006C335.324 186.219 335.67 187.432 342.213 187.432C343.773 187.432 348.972 187.389 348.972 184.702C348.972 183.099 347.412 184.009 347.412 178.68V175.993C347.412 174.39 347.196 171.444 349.622 171.444C352.092 171.444 351.875 175.083 351.875 176.903V180.803C351.875 183.316 350.359 183.272 350.359 184.876C350.359 187.129 355.385 187.432 356.815 187.432C358.505 187.432 363.444 187.302 363.444 184.572C363.444 183.316 361.841 183.099 361.841 180.586V171.444C361.841 167.197 359.285 164.944 355.168 164.944C352.959 164.944 351.225 165.898 349.926 166.851C348.669 167.847 347.889 168.801 347.542 168.801C346.633 168.801 346.589 164.944 341.433 164.944C338.877 164.944 337.144 165.898 335.93 166.851C334.717 167.847 334.024 168.801 333.591 168.801C332.681 168.801 332.854 167.327 332.854 166.807C332.854 165.898 332.767 164.944 331.684 164.944C331.597 164.944 320.852 166.158 320.852 169.364C320.852 170.49 321.459 170.447 322.022 170.924C322.455 171.314 323.018 172.094 323.018 174.867V178.853ZM385.744 176.253C386.351 174.563 387.044 172.657 387.997 171.14C389.514 168.584 392.113 169.71 392.113 167.154C392.113 165.161 388.907 164.944 387.477 164.944C385.917 164.944 381.845 165.204 381.845 167.501C381.845 168.974 383.231 168.844 383.231 170.794C383.231 171.834 382.321 174.823 381.021 174.823C380.285 174.823 378.378 171.79 378.378 170.144C378.378 169.104 379.375 168.757 379.375 167.587C379.375 165.118 375.475 164.944 373.829 164.944C364.686 164.944 363.906 166.851 363.906 168.151C363.906 170.144 366.376 169.624 367.199 171.357L373.265 184.052C373.785 185.136 374.652 186.782 374.652 187.995C374.652 188.992 374.132 190.118 372.962 190.118C371.186 190.118 372.312 185.525 368.283 185.525C366.073 185.525 364.426 187.345 364.426 189.512C364.426 193.108 368.109 194.711 371.229 194.711C378.292 194.711 381.065 189.078 383.188 183.316L385.744 176.253ZM399.774 182.319C399.774 179.416 397.434 177.076 394.531 177.076C391.628 177.076 389.289 179.416 389.289 182.319C389.289 185.222 391.628 187.562 394.531 187.562C397.434 187.562 399.774 185.222 399.774 182.319Z" fill="#F15A29"/>
</svg>
