<svg width="732" height="46" viewBox="0 0 732 46" fill="none" xmlns="http://www.w3.org/2000/svg">
<path d="M33.6355 33.3664C34.5291 35.4516 35.3235 36.7921 37.8059 36.7921C40.6358 36.7921 41.7776 34.2104 42.8202 31.5295L51.3596 9.1881C52.7001 5.71278 54.7853 6.35819 54.7853 3.92547C54.7853 1.14521 51.0617 0.896973 49.0262 0.896973C46.9906 0.896973 41.9266 0.74803 41.9266 3.77653C41.9266 6.50714 45.1537 5.41489 45.1537 7.54973C45.1537 8.2448 43.0188 16.6849 41.3308 16.6849C40.1393 16.6849 39.047 13.6067 38.6995 12.8124C38.203 11.7201 36.515 8.64198 36.515 7.3015C36.515 6.06031 38.7492 5.61348 38.7492 3.97512C38.7492 3.13111 38.9477 0.896973 29.3161 0.896973C18.9398 0.896973 19.6349 3.87582 19.6349 4.17371C19.6349 5.41489 20.4789 6.10996 21.4718 6.60643C22.9613 7.45044 24.0039 10.5286 24.0039 10.9754C24.0039 11.3229 23.5074 12.6138 23.3584 12.9117C23.1102 13.6564 22.0676 17.231 20.7768 17.231C19.6349 17.231 18.5426 13.7557 18.2944 12.9613C18.0958 12.3655 16.5567 8.74127 16.5567 7.3015C16.5567 5.76242 17.6986 5.56383 17.6986 4.07441C17.6986 2.03887 16.4574 0.896973 9.20891 0.896973C6.92513 0.896973 0.222717 0.996267 0.222717 4.42194C0.222717 7.45044 2.20862 5.61348 3.59875 9.1881L12.8332 32.7706C13.7268 35.0544 14.4715 36.7921 17.2518 36.7921C20.4789 36.7921 20.9754 34.9551 22.018 32.3735L25.0465 24.8767C26.3373 21.6993 26.6848 20.4084 27.6281 20.4084C28.4225 20.4084 28.8197 21.9475 29.0679 22.4936L33.6355 33.3664ZM74.2355 24.8271C75.8242 24.8271 77.3136 24.3802 77.3136 21.1035C77.3136 17.3799 73.59 10.8761 65.15 10.8761C57.7029 10.8761 51.199 16.4366 51.199 24.0823C51.199 30.4869 55.8162 36.941 64.7528 36.941C69.2211 36.941 76.2214 34.1608 76.2214 30.3379C76.2214 29.3946 75.3277 27.8555 74.2851 27.8555C73.2425 27.8555 71.4056 30.0897 67.682 30.0897C65.3486 30.0897 62.1215 28.0045 62.1215 25.5221C62.1215 24.6781 62.9158 24.8271 63.462 24.8271H74.2355ZM64.8521 20.0609C63.5613 20.0609 61.8732 20.4581 61.8732 18.6708C61.8732 17.082 63.2137 15.394 64.8521 15.394C66.689 15.394 67.7813 16.7842 67.7813 18.5715C67.7813 20.3588 66.1926 20.0609 64.8521 20.0609ZM127.411 9.23775C127.411 5.41489 125.078 1.09556 115.992 1.09556C114.851 1.09556 113.659 1.19486 112.517 1.2445C111.375 1.3438 110.233 1.44309 109.042 1.44309C107.205 1.44309 105.368 1.3438 103.531 1.2445C101.694 1.19486 99.857 1.09556 98.0201 1.09556C96.481 1.09556 94.4455 1.98922 94.4455 3.87582C94.4455 7.3015 98.7151 3.87582 98.4173 11.3726L97.8711 25.6711C97.5733 33.9125 94.3462 30.7847 94.3462 33.8629C94.3462 35.6006 96.0838 36.4942 97.6229 36.4942C99.3606 36.4942 101.049 36.4446 102.737 36.3453C104.425 36.2956 106.162 36.246 107.85 36.246C109.389 36.246 110.879 36.2956 112.368 36.3453C113.858 36.4446 115.397 36.4942 117.085 36.4942C127.064 36.4942 130.39 30.3876 130.39 25.4228C130.39 21.2524 126.865 18.6211 124.83 17.8268C124.333 17.5785 123.787 17.3799 123.787 16.7345C123.787 16.0891 124.234 15.7912 124.681 15.394C126.468 13.9543 127.411 11.5215 127.411 9.23775ZM110.233 9.1881C110.233 7.74832 110.035 6.2589 111.872 6.2589C114.602 6.2589 115.347 9.03916 115.347 11.2733C115.347 14.0039 114.652 16.0891 111.673 16.0891C110.134 16.0891 110.233 15.1458 110.233 13.2095V9.1881ZM110.233 22.8412C110.283 21.7986 110.631 21.0042 112.17 21.0042C115.645 21.0042 116.539 23.6852 116.539 26.7137C116.539 29.2953 115.546 31.2316 112.716 31.2316C111.177 31.2316 110.233 31.0826 110.233 25.3235V22.8412ZM146.025 12.9117C146.025 11.6705 145.876 11.0251 144.485 11.0251C144.088 11.0251 131.577 11.174 131.577 14.3514C131.577 17.6282 135.003 14.3018 135.003 21.8979C135.003 29.345 134.208 36.7921 143.641 36.7921C145.826 36.7921 147.415 36.0474 148.606 35.3027C149.798 34.558 150.592 33.8132 151.138 33.8132C153.124 33.8132 150.592 36.7921 154.415 36.7921C157.146 36.7921 165.933 35.8488 165.933 32.4728C165.933 30.0897 163.203 31.4798 163.203 28.501V18.5218C163.203 16.9331 163.302 15.394 163.302 13.8053C163.302 12.0677 162.557 11.0251 160.77 11.0251C158.883 11.0251 148.904 11.5215 148.904 14.4507C148.904 16.5359 151.337 15.6919 151.734 18.1743C151.982 19.763 151.933 21.8979 151.933 23.5362C151.933 25.9193 152.429 30.5862 148.854 30.5862C146.173 30.5862 146.025 27.508 146.025 25.5221V12.9117ZM191.448 23.983C192.143 22.0468 192.937 19.8623 194.029 18.1246C195.767 15.1954 198.746 16.4863 198.746 13.5571C198.746 11.2733 195.072 11.0251 193.434 11.0251C191.646 11.0251 186.979 11.3229 186.979 13.9543C186.979 15.6423 188.568 15.4933 188.568 17.7275C188.568 18.919 187.526 22.3447 186.036 22.3447C185.192 22.3447 183.008 18.8694 183.008 16.9828C183.008 15.7912 184.15 15.394 184.15 14.0536C184.15 11.2236 179.681 11.0251 177.795 11.0251C167.319 11.0251 166.425 13.2095 166.425 14.699C166.425 16.9828 169.255 16.387 170.199 18.3729L177.149 32.9196C177.745 34.1608 178.738 36.0474 178.738 37.4375C178.738 38.5794 178.142 39.8702 176.802 39.8702C174.766 39.8702 176.057 34.6076 171.44 34.6076C168.908 34.6076 167.021 36.6928 167.021 39.1752C167.021 43.2959 171.241 45.1329 174.816 45.1329C182.908 45.1329 186.086 38.6787 188.519 32.0756L191.448 23.983ZM249.029 7.84762C251.511 5.16665 255.086 7.00361 255.086 3.82617C255.086 1.64168 253.447 0.896973 247.241 0.896973C245.355 0.896973 239.596 0.896973 239.596 3.82617C239.596 5.71278 241.035 5.81207 241.035 7.2022C241.035 8.34409 238.95 10.9754 237.659 10.9754C236.418 10.9754 234.432 7.84762 234.432 6.75537C234.432 5.71278 235.822 5.2163 235.822 3.92547C235.822 2.83322 235.922 0.896973 225.595 0.896973C214.027 0.896973 214.375 3.13111 214.375 4.273C214.375 6.70573 217.602 5.91137 220.035 8.74127L225.645 15.2451C227.382 17.4792 227.829 18.4225 227.829 21.2524C227.829 26.0682 227.531 28.352 227.035 29.4939C226.141 31.5295 223.311 30.5365 223.311 33.2175C223.311 34.558 224.602 36.7921 234.333 36.7921C236.766 36.7921 244.61 36.7921 244.61 33.2175C244.61 30.884 241.979 31.1819 241.284 29.7422C240.837 28.7989 240.589 26.813 240.589 22.2454C240.589 18.7701 240.738 17.2806 242.922 14.55L249.029 7.84762ZM263.2 36.941C270.498 36.941 279.236 31.9763 279.236 23.8341C279.236 17.6778 274.271 10.8761 265.583 10.8761C257.391 10.8761 249.596 15.8905 249.596 24.7774C249.596 32.6217 255.852 36.941 263.2 36.941ZM267.817 27.6073C267.817 29.196 267.42 30.7847 265.533 30.6855C262.107 30.4869 261.214 22.8412 261.015 19.7134C260.916 18.2736 261.809 16.7345 263.448 16.7345C266.824 16.7345 267.817 25.3732 267.817 27.6073ZM295.064 12.9117C295.064 11.6705 294.915 11.0251 293.525 11.0251C293.128 11.0251 280.617 11.174 280.617 14.3514C280.617 17.6282 284.042 14.3018 284.042 21.8979C284.042 29.345 283.248 36.7921 292.681 36.7921C294.865 36.7921 296.454 36.0474 297.646 35.3027C298.837 34.558 299.631 33.8132 300.178 33.8132C302.164 33.8132 299.631 36.7921 303.454 36.7921C306.185 36.7921 314.973 35.8488 314.973 32.4728C314.973 30.0897 312.242 31.4798 312.242 28.501V18.5218C312.242 16.9331 312.341 15.394 312.341 13.8053C312.341 12.0677 311.597 11.0251 309.809 11.0251C307.923 11.0251 297.943 11.5215 297.943 14.4507C297.943 16.5359 300.376 15.6919 300.773 18.1743C301.022 19.763 300.972 21.8979 300.972 23.5362C300.972 25.9193 301.468 30.5862 297.894 30.5862C295.213 30.5862 295.064 27.508 295.064 25.5221V12.9117ZM319.337 24.1816C319.337 25.5718 319.188 28.4017 318.791 29.6429C318.245 31.3805 315.961 31.3805 315.961 33.4657C315.961 36.8914 322.713 36.7921 324.997 36.7921C330.458 36.7921 334.827 36.5439 334.827 33.4161C334.827 30.4372 331.054 31.7777 330.756 29.5932C330.508 27.7066 330.359 25.6214 330.359 24.132C330.359 23.2383 330.111 19.912 331.501 19.912C332.792 19.912 333.685 22.7419 336.912 22.7419C340.189 22.7419 343.019 20.1105 343.019 16.7842C343.019 13.5074 340.835 11.0251 337.508 11.0251C333.239 11.0251 332.494 14.9472 331.302 14.9472C330.458 14.9472 330.508 13.8053 330.458 13.2095C330.26 11.5215 330.21 11.0251 328.323 11.0251C327.877 11.0251 316.259 12.1173 316.259 16.0395C316.259 19.0679 319.337 16.3373 319.337 21.2028V24.1816ZM390.232 22.3943C390.232 22.9404 390.579 29.4443 382.735 29.4443C377.472 29.4443 375.238 25.6711 375.238 19.763V10.6279C375.486 4.57089 379.11 7.89727 379.11 4.32265C379.11 2.3864 377.472 0.896973 369.38 0.896973C359.152 0.896973 359.698 3.67723 359.698 4.3723C359.698 6.65608 363.074 6.65608 362.876 9.78387V21.2524C362.876 21.8482 360.691 36.941 380.252 36.941C397.43 36.941 397.381 25.0256 397.381 22.7915V9.38669C397.381 4.86877 401.104 6.55678 401.104 3.77653C401.104 0.896973 395.643 0.896973 393.756 0.896973C391.721 0.896973 385.962 0.797677 385.962 3.87582C385.962 6.75537 390.232 4.71983 390.232 10.0321V22.3943ZM413.184 10.8761C408.07 10.8761 403.999 14.0039 403.999 18.9687C403.999 27.1605 413.73 27.508 413.73 30.4372C413.73 31.5295 412.787 32.0259 411.794 32.0259C409.013 32.0259 407.027 27.1108 404.843 27.1108C403.403 27.1108 402.956 28.1534 402.956 29.4443C402.956 31.3309 404.198 34.1608 405.439 35.5509C406.134 36.3453 406.63 36.4942 407.623 36.4942C407.971 36.4942 408.269 36.4446 408.567 36.3949C408.914 36.3453 409.212 36.2956 409.56 36.2956C409.857 36.2956 410.95 36.4446 412.191 36.5935C413.432 36.7921 414.872 36.941 415.865 36.941C421.028 36.941 425.546 33.714 425.546 29.0471C425.546 21.3517 414.624 20.756 414.624 17.5785C414.624 16.6352 415.517 15.8905 416.411 15.8905C418.595 15.8905 420.184 19.8127 423.014 19.8127C424.305 19.8127 425.447 18.8197 425.447 17.4792C425.447 15.4437 423.163 10.8761 420.879 10.8761C420.432 10.8761 419.985 11.0251 419.539 11.174C419.092 11.3726 418.695 11.5215 418.198 11.5215C417.851 11.5215 417.056 11.3726 416.163 11.174C415.219 11.0251 414.177 10.8761 413.184 10.8761ZM450.567 24.8271C452.156 24.8271 453.645 24.3802 453.645 21.1035C453.645 17.3799 449.922 10.8761 441.482 10.8761C434.035 10.8761 427.531 16.4366 427.531 24.0823C427.531 30.4869 432.148 36.941 441.085 36.941C445.553 36.941 452.553 34.1608 452.553 30.3379C452.553 29.3946 451.659 27.8555 450.617 27.8555C449.574 27.8555 447.737 30.0897 444.014 30.0897C441.68 30.0897 438.453 28.0045 438.453 25.5221C438.453 24.6781 439.248 24.8271 439.794 24.8271H450.567ZM441.184 20.0609C439.893 20.0609 438.205 20.4581 438.205 18.6708C438.205 17.082 439.545 15.394 441.184 15.394C443.021 15.394 444.113 16.7842 444.113 18.5715C444.113 20.3588 442.524 20.0609 441.184 20.0609ZM474.132 22.444C474.132 24.6285 474.33 30.7351 471.004 30.7351C467.926 30.7351 467.33 26.664 467.33 24.3306C467.33 21.9971 467.926 16.2877 471.252 16.2877C474.132 16.2877 474.132 20.5077 474.132 22.444ZM485.104 4.12406C485.104 2.48569 484.756 1.44309 483.267 1.44309C483.118 1.44309 470.458 2.3864 470.458 6.06031C470.458 8.74127 474.082 7.10291 474.082 10.181C474.082 10.7272 474.033 12.3655 473.288 12.3655C472.742 12.3655 470.805 10.8761 467.38 10.8761C460.528 10.8761 455.167 17.3303 455.167 23.9334C455.167 30.04 460.231 36.941 466.734 36.941C468.919 36.941 470.458 36.1963 471.6 35.5013C472.742 34.7565 473.486 34.0615 473.933 34.0615C475.572 34.0615 473.784 36.7921 476.316 36.7921C476.862 36.7921 487.735 36.5439 487.735 32.7706C487.735 30.189 485.104 31.3309 485.104 27.8555V4.12406ZM520.058 9.23775C520.157 7.69867 520.108 6.55678 521.945 6.55678C524.824 6.55678 525.42 9.03916 525.42 11.4719C525.42 14.55 524.377 16.3373 521.15 16.3373C519.512 16.3373 519.76 15.2451 519.86 13.9543L520.058 9.23775ZM508.341 25.9193C508.341 32.3735 504.618 30.5862 504.618 33.1678C504.618 36.7921 511.668 36.7921 514.051 36.7921C522.094 36.7921 523.335 35.4516 523.335 33.6643C523.335 31.2812 520.803 31.9763 520.406 29.6925C520.157 28.3024 520.058 26.3165 520.058 24.8767C520.058 21.7489 520.455 21.6 521.548 21.6C524.278 21.6 525.122 23.8341 525.668 26.1179C527.207 32.6714 528.2 37.2389 536.144 37.2389C541.754 37.2389 544.038 35.253 544.038 33.3664C544.038 30.3379 540.811 33.1182 540.215 28.501C539.52 23.139 537.981 20.8553 534.506 19.5644C533.91 19.3162 533.264 19.1176 533.264 18.3729C533.264 17.7771 533.612 17.6282 534.059 17.3799C536.839 16.0395 538.279 13.1599 538.279 10.181C538.279 3.57793 531.775 1.09556 526.165 1.09556C524.576 1.09556 522.938 1.19486 521.349 1.2445C519.711 1.3438 518.122 1.44309 516.533 1.44309C515.54 1.44309 514.498 1.3438 513.505 1.2445C512.462 1.19486 511.469 1.09556 510.427 1.09556C508.441 1.09556 504.568 1.44309 504.568 4.17371C504.568 7.25185 508.341 4.07441 508.341 11.7698V25.9193ZM568.286 24.8271C569.875 24.8271 571.364 24.3802 571.364 21.1035C571.364 17.3799 567.641 10.8761 559.2 10.8761C551.753 10.8761 545.25 16.4366 545.25 24.0823C545.25 30.4869 549.867 36.941 558.803 36.941C563.272 36.941 570.272 34.1608 570.272 30.3379C570.272 29.3946 569.378 27.8555 568.336 27.8555C567.293 27.8555 565.456 30.0897 561.732 30.0897C559.399 30.0897 556.172 28.0045 556.172 25.5221C556.172 24.6781 556.966 24.8271 557.512 24.8271H568.286ZM558.903 20.0609C557.612 20.0609 555.924 20.4581 555.924 18.6708C555.924 17.082 557.264 15.394 558.903 15.394C560.74 15.394 561.832 16.7842 561.832 18.5715C561.832 20.3588 560.243 20.0609 558.903 20.0609ZM572.885 23.8341C572.885 31.4302 578.942 36.941 586.439 36.941C593.39 36.941 597.858 33.1678 597.858 30.2386C597.858 29.0471 596.964 27.5577 595.624 27.5577C594.581 27.5577 593.539 28.8485 590.411 28.8485C586.489 28.8485 583.758 25.1249 583.758 21.451C583.758 19.4651 584.95 17.231 587.134 17.231C591.056 17.231 588.574 23.3873 593.936 23.3873C596.716 23.3873 598.801 21.2524 598.801 18.4722C598.801 14.9969 594.879 10.8761 587.432 10.8761C579.091 10.8761 572.885 16.6849 572.885 23.8341ZM613.98 36.941C621.278 36.941 630.016 31.9763 630.016 23.8341C630.016 17.6778 625.052 10.8761 616.363 10.8761C608.172 10.8761 600.377 15.8905 600.377 24.7774C600.377 32.6217 606.632 36.941 613.98 36.941ZM618.597 27.6073C618.597 29.196 618.2 30.7847 616.314 30.6855C612.888 30.4869 611.994 22.8412 611.796 19.7134C611.696 18.2736 612.59 16.7345 614.229 16.7345C617.605 16.7345 618.597 25.3732 618.597 27.6073ZM634.773 24.1816C634.773 25.5718 634.624 28.4017 634.227 29.6429C633.681 31.3805 631.397 31.3805 631.397 33.4657C631.397 36.8914 638.149 36.7921 640.433 36.7921C645.894 36.7921 650.263 36.5439 650.263 33.4161C650.263 30.4372 646.49 31.7777 646.192 29.5932C645.944 27.7066 645.795 25.6214 645.795 24.132C645.795 23.2383 645.547 19.912 646.937 19.912C648.228 19.912 649.121 22.7419 652.348 22.7419C655.625 22.7419 658.455 20.1105 658.455 16.7842C658.455 13.5074 656.271 11.0251 652.944 11.0251C648.675 11.0251 647.93 14.9472 646.738 14.9472C645.894 14.9472 645.944 13.8053 645.894 13.2095C645.696 11.5215 645.646 11.0251 643.759 11.0251C643.313 11.0251 631.695 12.1173 631.695 16.0395C631.695 19.0679 634.773 16.3373 634.773 21.2028V24.1816ZM678.588 22.444C678.588 24.6285 678.787 30.7351 675.46 30.7351C672.382 30.7351 671.787 26.664 671.787 24.3306C671.787 21.9971 672.382 16.2877 675.709 16.2877C678.588 16.2877 678.588 20.5077 678.588 22.444ZM689.56 4.12406C689.56 2.48569 689.213 1.44309 687.723 1.44309C687.574 1.44309 674.914 2.3864 674.914 6.06031C674.914 8.74127 678.539 7.10291 678.539 10.181C678.539 10.7272 678.489 12.3655 677.744 12.3655C677.198 12.3655 675.262 10.8761 671.836 10.8761C664.985 10.8761 659.623 17.3303 659.623 23.9334C659.623 30.04 664.687 36.941 671.191 36.941C673.375 36.941 674.914 36.1963 676.056 35.5013C677.198 34.7565 677.943 34.0615 678.39 34.0615C680.028 34.0615 678.241 36.7921 680.773 36.7921C681.319 36.7921 692.192 36.5439 692.192 32.7706C692.192 30.189 689.56 31.3309 689.56 27.8555V4.12406ZM704.038 10.8761C698.925 10.8761 694.854 14.0039 694.854 18.9687C694.854 27.1605 704.585 27.508 704.585 30.4372C704.585 31.5295 703.641 32.0259 702.648 32.0259C699.868 32.0259 697.882 27.1108 695.698 27.1108C694.258 27.1108 693.811 28.1534 693.811 29.4443C693.811 31.3309 695.052 34.1608 696.293 35.5509C696.989 36.3453 697.485 36.4942 698.478 36.4942C698.825 36.4942 699.123 36.4446 699.421 36.3949C699.769 36.3453 700.067 36.2956 700.414 36.2956C700.712 36.2956 701.804 36.4446 703.046 36.5935C704.287 36.7921 705.726 36.941 706.719 36.941C711.883 36.941 716.401 33.714 716.401 29.0471C716.401 21.3517 705.478 20.756 705.478 17.5785C705.478 16.6352 706.372 15.8905 707.266 15.8905C709.45 15.8905 711.039 19.8127 713.869 19.8127C715.159 19.8127 716.301 18.8197 716.301 17.4792C716.301 15.4437 714.018 10.8761 711.734 10.8761C711.287 10.8761 710.84 11.0251 710.393 11.174C709.947 11.3726 709.549 11.5215 709.053 11.5215C708.705 11.5215 707.911 11.3726 707.017 11.174C706.074 11.0251 705.031 10.8761 704.038 10.8761ZM731.095 31.4302C731.095 28.4017 728.613 25.9193 725.584 25.9193C722.556 25.9193 720.073 28.4017 720.073 31.4302C720.073 34.4587 722.556 36.941 725.584 36.941C728.613 36.941 731.095 34.4587 731.095 31.4302ZM731.542 8.34409C731.542 4.67018 729.804 0.74803 725.584 0.74803C721.364 0.74803 719.627 4.67018 719.627 8.34409C719.627 11.4222 720.768 15.1458 722.159 17.8764C722.605 18.8197 724.343 22.0468 725.584 22.0468C726.825 22.0468 728.563 18.8197 729.01 17.8764C730.4 15.1458 731.542 11.4222 731.542 8.34409Z" fill="#F15A29"/>
</svg>
