<svg width="242" height="107" viewBox="0 0 242 107" fill="none" xmlns="http://www.w3.org/2000/svg">
<path d="M6.42271 23.1803C12.5277 28.0753 20.0627 27.0853 20.0627 31.0453C20.0627 33.1353 17.0377 33.7403 15.8277 33.7403C5.70771 33.7403 6.36771 24.9953 2.46271 24.9953C0.812711 24.9953 0.152711 26.4803 0.152711 27.9653C0.152711 30.7703 1.41771 36.6003 4.05771 38.0853C7.19271 39.7903 13.4077 40.7253 17.0377 40.7253C29.8527 40.7253 35.1327 33.4653 35.1327 27.0303C35.1327 22.9053 33.4277 20.1553 30.0177 17.9003C23.6377 13.6653 16.1027 14.8203 16.1027 10.4753C16.1027 8.49532 17.9177 7.72532 19.6227 7.72532C25.3427 7.72532 27.4877 13.9953 31.1727 13.9953C33.2077 13.9953 34.4177 12.1253 34.4177 10.2553C34.4177 5.63532 30.2377 1.56532 28.3677 1.56532C27.2127 1.56532 26.4427 2.22532 25.6727 2.22532C24.8477 2.22532 20.8877 0.63032 17.3677 0.63032C6.69771 0.63032 1.19771 7.72532 1.19771 13.4453C1.19771 17.4053 3.39771 20.7603 6.42271 23.1803ZM60.1981 26.9753C60.1981 29.6153 59.7581 33.3003 56.3481 33.3003C54.4231 33.3003 53.5431 32.6403 53.5431 30.8253C53.5431 20.8153 54.2031 19.9903 56.1831 19.9903C59.6481 19.9903 60.1981 24.3353 60.1981 26.9753ZM41.1131 32.0903C41.1131 38.1953 40.8931 39.7903 40.3431 40.9453C39.3531 43.0903 37.0981 42.1553 37.0981 44.6303C37.0981 47.4353 42.8731 50.1303 50.2431 50.1303C52.3881 50.1303 57.3931 49.7453 57.3931 46.6653C57.3931 43.9703 53.9831 45.2903 53.9831 41.1103C53.9831 40.5053 54.0931 39.3503 54.8631 39.3503C55.3581 39.3503 57.9431 40.7253 60.5281 40.7253C68.5581 40.7253 73.7831 32.8603 73.7831 25.4903C73.7831 19.0553 69.9331 11.8503 62.7281 11.8503C58.2181 11.8503 55.1381 14.8203 54.3681 14.8203C53.8181 14.8203 53.7631 14.0503 53.7631 13.6653C53.7631 12.4553 53.5431 12.0153 52.2231 12.0153C48.1531 12.0153 36.8231 14.8753 36.8231 18.6153C36.8231 21.7503 39.7931 21.0353 40.5081 21.7503C40.7831 22.0253 41.1131 23.2903 41.1131 29.0653V32.0903ZM91.5051 14.4353C91.5051 13.2803 91.4501 12.0153 89.8001 12.0153C89.2501 12.0153 75.2801 13.6653 75.2801 17.5703C75.2801 20.0453 78.0851 19.4403 78.5801 21.3653C79.1851 23.4003 79.0751 31.3753 78.3601 33.3003C77.7001 35.0053 75.4451 35.1153 75.4451 37.0953C75.4451 38.4153 75.8301 40.5603 85.2901 40.5603C87.7651 40.5603 94.7501 40.5603 94.7501 36.8203C94.7501 33.9053 91.5051 36.2703 91.5051 29.7803V14.4353ZM91.2301 4.86532C91.2301 2.11532 88.0951 1.40032 85.8951 1.40032C83.0901 1.40032 75.8301 2.88532 75.8301 6.51532C75.8301 9.21032 78.3051 10.2553 80.6151 10.2553C83.7501 10.2553 91.2301 9.15532 91.2301 4.86532ZM111.745 26.5353C111.745 24.0603 111.415 20.2653 114.935 20.2653C120.105 20.2653 118.565 29.0653 118.29 32.9703C118.015 36.5453 116.2 35.6103 116.2 37.5903C116.2 40.6703 121.48 40.5603 123.46 40.5603C133.8 40.5603 133.58 38.2503 133.58 37.2603C133.58 34.8953 131.325 35.8853 131.05 31.5403C130.5 23.1803 132.425 12.0153 121.04 12.0153C117.905 12.0153 116.255 13.1703 115.155 14.2703C114.055 15.4253 113.56 16.5803 112.68 16.5803C111.855 16.5803 111.58 15.8103 111.58 15.1503C111.58 14.8203 111.635 14.4903 111.635 14.1603C111.635 13.0603 110.865 12.0153 109.655 12.0153C108.555 12.0153 95.9051 14.7653 95.9051 17.6803C95.9051 20.5953 99.2601 19.2753 99.1501 23.3453L98.9301 31.5953C98.7651 36.9853 96.2351 34.6203 96.2351 37.2603C96.2351 40.5603 101.845 40.5603 104.045 40.5603C106.3 40.5603 113.615 40.6703 113.615 37.2603C113.615 35.1703 111.745 36.1053 111.745 30.7703V26.5353ZM156.048 31.6503C155.828 35.0053 151.978 33.5753 151.978 36.6553C151.978 40.5053 159.073 40.5603 161.713 40.5603C174.088 40.5603 174.198 37.8653 174.198 36.5453C174.198 33.1353 170.293 34.8953 169.303 31.5953C168.918 30.1653 168.753 28.2403 168.753 26.7003C168.753 23.0703 169.303 23.1253 172.548 23.1253C173.318 23.1253 173.923 23.0153 173.978 22.1903L174.253 18.1753C174.363 16.5253 171.228 17.1303 168.918 17.1303C168.368 17.1303 168.313 16.9653 168.148 16.5253C167.158 14.1053 161.438 12.9503 161.438 9.48532C161.438 8.38532 162.208 7.50532 163.308 7.50532C166.443 7.50532 167.048 12.4553 171.833 12.4553C174.143 12.4553 176.013 10.5303 176.013 8.22032C176.013 5.85532 173.923 1.12532 164.958 1.12532C159.458 1.12532 152.693 3.32532 152.693 9.87032C152.693 13.3353 154.783 15.3703 154.783 16.4153C154.783 17.3503 153.903 17.4053 153.243 17.4603C151.593 17.5703 151.923 18.0653 151.923 22.4103C151.923 23.4003 153.628 23.1253 154.288 23.1253C156.048 23.1253 156.598 24.0053 156.488 25.7103L156.048 31.6503ZM192.089 40.7253C200.174 40.7253 209.854 35.2253 209.854 26.2053C209.854 19.3853 204.354 11.8503 194.729 11.8503C185.654 11.8503 177.019 17.4053 177.019 27.2503C177.019 35.9403 183.949 40.7253 192.089 40.7253ZM197.204 30.3853C197.204 32.1453 196.764 33.9053 194.674 33.7953C190.879 33.5753 189.889 25.1053 189.669 21.6403C189.559 20.0453 190.549 18.3403 192.364 18.3403C196.104 18.3403 197.204 27.9103 197.204 30.3853ZM215.124 26.5903C215.124 28.1303 214.959 31.2653 214.519 32.6403C213.914 34.5653 211.384 34.5653 211.384 36.8753C211.384 40.6703 218.864 40.5603 221.394 40.5603C227.444 40.5603 232.284 40.2853 232.284 36.8203C232.284 33.5203 228.104 35.0053 227.774 32.5853C227.499 30.4953 227.334 28.1853 227.334 26.5353C227.334 25.5453 227.059 21.8603 228.599 21.8603C230.029 21.8603 231.019 24.9953 234.594 24.9953C238.224 24.9953 241.359 22.0803 241.359 18.3953C241.359 14.7653 238.939 12.0153 235.254 12.0153C230.524 12.0153 229.699 16.3603 228.379 16.3603C227.444 16.3603 227.499 15.0953 227.444 14.4353C227.224 12.5653 227.169 12.0153 225.079 12.0153C224.584 12.0153 211.714 13.2253 211.714 17.5703C211.714 20.9253 215.124 17.9003 215.124 23.2903V26.5903ZM45.7565 97.6503C49.0565 105.075 49.4965 104.965 50.3765 105.075C52.1365 105.295 54.1165 99.0253 55.3265 96.4953C56.6465 93.6903 58.4065 88.8503 60.1115 88.8503C62.0365 88.8503 60.9365 98.3103 60.7165 99.2453C60.3315 101.005 57.8565 101.335 57.8565 103.26C57.8565 106.78 65.3915 106.56 67.6465 106.56C70.0665 106.56 77.6015 106.725 77.6015 103.04C77.6015 100.565 74.3015 101.445 74.1365 97.4303C73.9165 92.3153 73.5865 86.2653 73.5865 85.4403C73.5865 82.9653 73.9715 76.4753 74.4115 74.9353C74.9615 73.0653 77.4365 72.6253 77.4365 70.4253C77.4365 66.9603 71.9365 66.7953 69.5165 66.7953C62.2565 66.7953 62.2015 68.4453 59.3965 73.6153C57.4165 77.2453 55.1615 83.9003 53.4565 83.5153C51.0365 82.9653 47.6265 73.9453 45.7015 70.7003C44.0515 67.8953 44.1615 66.7953 37.7265 66.7953C33.3265 66.7953 28.2115 67.5653 28.2115 70.7003C28.2115 72.9553 31.3465 73.3403 31.8965 74.4953C32.5015 75.7603 32.7215 77.4653 32.7215 80.7653C32.7215 88.7403 32.2265 93.8553 31.7865 98.4753C31.3465 102.985 28.0465 100.4 28.0465 103.535C28.0465 106.395 33.0515 106.56 34.9765 106.56C37.1215 106.56 43.0065 106.45 43.0065 103.315C43.0065 100.345 39.4865 103.095 39.4865 97.2103C39.4865 95.3953 38.9365 88.1353 40.6415 88.1353C41.6315 88.1353 42.2365 89.7853 42.5665 90.5003L45.7565 97.6503ZM94.9106 80.1053C94.9106 78.7303 94.7456 78.0153 93.2056 78.0153C92.7656 78.0153 78.9056 78.1803 78.9056 81.7003C78.9056 85.3303 82.7006 81.6453 82.7006 90.0603C82.7006 98.3103 81.8206 106.56 92.2706 106.56C94.6906 106.56 96.4506 105.735 97.7706 104.91C99.0906 104.085 99.9706 103.26 100.576 103.26C102.776 103.26 99.9706 106.56 104.206 106.56C107.231 106.56 116.966 105.515 116.966 101.775C116.966 99.1353 113.941 100.675 113.941 97.3753V86.3203C113.941 84.5603 114.051 82.8553 114.051 81.0953C114.051 79.1703 113.226 78.0153 111.246 78.0153C109.156 78.0153 98.1006 78.5653 98.1006 81.8103C98.1006 84.1203 100.796 83.1853 101.236 85.9353C101.511 87.6953 101.456 90.0603 101.456 91.8753C101.456 94.5153 102.006 99.6853 98.0456 99.6853C95.0756 99.6853 94.9106 96.2753 94.9106 94.0753V80.1053ZM130.106 77.8503C124.441 77.8503 119.931 81.3153 119.931 86.8153C119.931 95.8903 130.711 96.2753 130.711 99.5203C130.711 100.73 129.666 101.28 128.566 101.28C125.486 101.28 123.286 95.8353 120.866 95.8353C119.271 95.8353 118.776 96.9903 118.776 98.4203C118.776 100.51 120.151 103.645 121.526 105.185C122.296 106.065 122.846 106.23 123.946 106.23C124.331 106.23 124.661 106.175 124.991 106.12C125.376 106.065 125.706 106.01 126.091 106.01C126.421 106.01 127.631 106.175 129.006 106.34C130.381 106.56 131.976 106.725 133.076 106.725C138.796 106.725 143.801 103.15 143.801 97.9803C143.801 89.4553 131.701 88.7953 131.701 85.2753C131.701 84.2303 132.691 83.4053 133.681 83.4053C136.101 83.4053 137.861 87.7503 140.996 87.7503C142.426 87.7503 143.691 86.6503 143.691 85.1653C143.691 82.9103 141.161 77.8503 138.631 77.8503C138.136 77.8503 137.641 78.0153 137.146 78.1803C136.651 78.4003 136.211 78.5653 135.661 78.5653C135.276 78.5653 134.396 78.4003 133.406 78.1803C132.361 78.0153 131.206 77.8503 130.106 77.8503ZM161.84 80.4353C161.84 79.2803 161.785 78.0153 160.135 78.0153C159.585 78.0153 145.615 79.6653 145.615 83.5703C145.615 86.0453 148.42 85.4403 148.915 87.3653C149.52 89.4003 149.41 97.3753 148.695 99.3003C148.035 101.005 145.78 101.115 145.78 103.095C145.78 104.415 146.165 106.56 155.625 106.56C158.1 106.56 165.085 106.56 165.085 102.82C165.085 99.9053 161.84 102.27 161.84 95.7803V80.4353ZM161.565 70.8653C161.565 68.1153 158.43 67.4003 156.23 67.4003C153.425 67.4003 146.165 68.8853 146.165 72.5153C146.165 75.2103 148.64 76.2553 150.95 76.2553C154.085 76.2553 161.565 75.1553 161.565 70.8653ZM166.625 92.2053C166.625 100.62 173.335 106.725 181.64 106.725C189.34 106.725 194.29 102.545 194.29 99.3003C194.29 97.9803 193.3 96.3303 191.815 96.3303C190.66 96.3303 189.505 97.7603 186.04 97.7603C181.695 97.7603 178.67 93.6353 178.67 89.5653C178.67 87.3653 179.99 84.8903 182.41 84.8903C186.755 84.8903 184.005 91.7103 189.945 91.7103C193.025 91.7103 195.335 89.3453 195.335 86.2653C195.335 82.4153 190.99 77.8503 182.74 77.8503C173.5 77.8503 166.625 84.2853 166.625 92.2053ZM211.38 100.07C211.38 96.3853 208.41 93.4153 204.725 93.4153C201.04 93.4153 198.07 96.3853 198.07 100.07C198.07 103.755 201.04 106.725 204.725 106.725C208.41 106.725 211.38 103.755 211.38 100.07Z" fill="#F15A29"/>
</svg>
